{
.appVersion = "3337";
.formatVersion = 3;
DisplayStrings = (
"¥",
"<",
"̈",
"¨",
"̀",
"`",
",/commaturnedabove",
"̦",
"̦ʻ",
"ʻ",
"̒",
"̆",
"̊"
);
axes = (
{
name = Weight;
tag = wght;
}
);
classes = (
{
automatic = 1;
code = "A Aacute Abreve Acaron Acircumflex Adieresis Agrave Amacron Aogonek Aring Atilde AE B C Cacute Ccaron Ccedilla Cdotaccent D Dcaron Dcroat Eth E Eacute Ecaron Ecircumflex Edieresis Edotaccent Egrave Emacron Eogonek Etilde Schwa F G Gbreve Gcommaaccent Gdotaccent Gmacron H Hbar I IJ Iacute Icircumflex Idieresis Idotaccent Igrave Imacron Iogonek Itilde J Jacute K Kcommaaccent L Lacute Lcaron Lcommaaccent Lslash M N Nacute Ncaron Ncommaaccent Ntilde O Oacute Ocircumflex Odieresis Ograve Ohungarumlaut Omacron Oslash Otilde OE P Thorn Q R Racute Rcaron Rcommaaccent S Sacute Scaron Scedilla Scommaaccent Germandbls T Tcaron Tcedilla Tcommaaccent U Uacute Ucircumflex Udieresis Ugrave Uhungarumlaut Umacron Uogonek Uring Utilde V W Wacute Wcircumflex Wdieresis Wgrave X Y Yacute Ycircumflex Ydieresis Ygrave Ytilde Z Zacute Zcaron Zdotaccent Saltillo Lcommaaccent.loclMAH Ncommaaccent.loclMAH A.salt B.salt D.salt H.salt I.salt";
name = Uppercase;
}
);
customParameters = (
{
name = "Name Table Entry";
value = "13; This Font Software is licensed under the SIL Open Font License, Version 1.1. This license is available with a FAQ at: https://openfontlicense.org";
},
{
name = fsType;
value = (
);
},
{
name = "Use Typo Metrics";
value = 1;
}
);
date = "2025-01-03 22:15:53 +0000";
familyName = "Winky Sans";
featurePrefixes = (
{
automatic = 1;
code = "languagesystem DFLT dflt;

languagesystem latn dflt;
languagesystem latn AZE;
languagesystem latn CRT;
languagesystem latn KAZ;
languagesystem latn TAT;
languagesystem latn TRK;
languagesystem latn ROM;
languagesystem latn MOL;
languagesystem latn MAH;
languagesystem latn NLD;
";
name = Languagesystems;
}
);
features = (
{
automatic = 1;
code = "feature salt;
feature locl;
feature sups;
feature ordn;
feature onum;

glyphs = (
{
glyphname = A;
kernLeft = KO_A;
kernRight = KO_A;
lastChange = "2025-01-03 22:26:37 +0000";
layers = (
{
anchors = (
{
name = bottom;
pos = (203,0);
},
{
name = ogonek;
pos = (425,10);
},
{
name = top;
pos = (336,625);
}
);
hints = (
{
horizontal = 1;
place = (0,21);
target = up;
type = BottomGhost;
},
{
horizontal = 1;
place = (150,75);
type = Stem;
},
{
horizontal = 1;
place = (557,110);
type = Stem;
},
{
place = (-60,516);
type = Stem;
}
);
layerId = m005;
shapes = (
{
closed = 1;
nodes = (
(38,0,o),
(61,16,o),
(74,48,cs),
(85,77,o),
(98,106,o),
(110,134,cs),
(112,140,o),
(116,143,o),
(122,143,cs),
(197,146,o),
(271,147,o),
(344,147,cs),
(350,147,o),
(354,144,o),
(353,138,cs),
(354,113,o),
(354,87,o),
(353,62,cs),
(353,21,o),
(368,0,o),
(406,0,cs),
(440,0,o),
(461,22,o),
(460,59,cs),
(454,243,o),
(435,451,o),
(403,633,cs),
(398,663,o),
(380,677,o),
(348,677,cs),
(314,677,o),
(290,663,o),
(273,633,cs),
(197,508,o),
(123,370,o),
(55,235,cs),
(53,230,o),
(48,227,o),
(42,227,cs),
(15,227,ls),
(-10,227,o),
(-27,213,o),
(-32,188,cs),
(-32,186,ls),
(-38,161,o),
(-29,135,o),
(-4,137,cs),
(-2,137,o),
(0,137,o),
(2,138,cs),
(6,138,o),
(6,133,o),
(3,126,cs),
(-8,103,o),
(-19,81,o),
(-28,59,cs),
(-45,22,o),
(-32,0,o),
(5,0,cs)
);
},
{
closed = 1;
nodes = (
(154,227,o),
(152,231,o),
(156,238,cs),
(206,354,o),
(261,463,o),
(313,550,cs),
(319,558,o),
(325,558,o),
(327,550,cs),
(341,464,o),
(349,359,o),
(352,246,cs),
(353,238,o),
(349,233,o),
(341,232,cs),
(282,229,o),
(222,228,o),
(161,227,cs)
);
}
);
width = 550;
},
{
anchors = (
{
name = bottom;
pos = (254,0);
},
{
name = ogonek;
pos = (476,10);
},
{
name = top;
pos = (387,625);
}
);
hints = (
{
horizontal = 1;
place = (0,21);
target = up;
type = BottomGhost;
},
{
horizontal = 1;
place = (150,75);
type = Stem;
},
{
horizontal = 1;
place = (557,110);
type = Stem;
},
{
place = (-59,516);
type = Stem;
}
);
layerId = m002;
shapes = (
{
closed = 1;
nodes = (
(108,-25,o),
(161,8,o),
(178,64,cs),
(181,75,o),
(179,70,o),
(181,75,cs),
(187,90,o),
(202,93,o),
(214,93,cs),
(289,96,o),
(272,97,o),
(345,97,cs),
(355,97,o),
(358,91,o),
(359,84,cs),
(359,76,o),
(359,77,o),
(359,77,cs),
(351,13,o),
(393,-25,o),
(452,-25,cs),
(518,-25,o),
(569,27,o),
(568,96,cs),
(561,281,o),
(529,432,o),
(497,616,cs),
(488,665,o),
(455,692,o),
(402,692,cs),
(347,692,o),
(302,665,o),
(273,616,cs),
(197,489,o),
(161,440,o),
(92,304,cs),
(83,287,o),
(75,277,o),
(64,277,cs),
(54,277,ls),
(29,277,o),
(-20,241,o),
(-31,188,cs),
(-31,186,ls),
(-43,132,o),
(-27,134,o),
(-19,116,cs),
(-18,113,o),
(-15,111,o),
(-15,108,cs),
(-15,105,o),
(-15,105,o),
(-15,101,cs),
(-15,101,o),
(-19,95,o),
(-19,95,cs),
(-55,29,o),
(-18,-25,o),
(51,-25,cs)
);
},
{
closed = 1;
nodes = (
(282,277,o),
(284,293,o),
(291,310,cs),
(302,338,o),
(309,351,o),
(327,379,cs),
(334,390,o),
(340,384,o),
(341,379,cs),
(345,356,o),
(344,334,o),
(346,307,cs),
(347,296,o),
(341,283,o),
(324,279,cs),
(312,276,o),
(305,277,o),
(293,277,cs)
);
}
);
width = 622;
},
{
anchors = (
{
name = bottom;
pos = (203,0);
},
{
name = ogonek;
pos = (425,10);
},
{
name = top;
pos = (336,625);
}
);
hints = (
{
horizontal = 1;
place = (0,21);
target = up;
type = BottomGhost;
},
{
horizontal = 1;
place = (150,75);
type = Stem;
},
{
horizontal = 1;
place = (557,110);
type = Stem;
},
{
place = (-60,516);
type = Stem;
}
);
layerId = m003;
shapes = (
{
closed = 1;
nodes = (
(34,0,o),
(52,11,o),
(63,40,cs),
(78,76,o),
(91,111,o),
(107,147,cs),
(108,151,o),
(111,153,o),
(115,153,cs),
(197,157,o),
(277,157,o),
(357,157,cs),
(361,157,o),
(363,156,o),
(362,151,cs),
(363,119,o),
(362,86,o),
(362,54,cs),
(361,16,o),
(372,0,o),
(406,0,cs),
(435,0,o),
(448,14,o),
(447,47,cs),
(441,230,o),
(427,455,o),
(395,636,cs),
(390,663,o),
(377,674,o),
(348,674,cs),
(317,674,o),
(298,663,o),
(283,636,cs),
(207,510,o),
(129,362,o),
(63,223,cs),
(61,219,o),
(57,217,o),
(53,217,cs),
(13,217,ls),
(-8,217,o),
(-17,209,o),
(-22,188,cs),
(-22,186,ls),
(-27,164,o),
(-21,145,o),
(-2,147,cs),
(5,148,o),
(12,148,o),
(19,148,cs),
(24,149,o),
(25,146,o),
(23,141,cs),
(9,109,o),
(-7,77,o),
(-21,47,cs),
(-36,14,o),
(-27,0,o),
(5,0,cs)
);
},
{
closed = 1;
nodes = (
(139,217,o),
(138,220,o),
(140,225,cs),
(200,362,o),
(265,493,o),
(324,590,cs),
(328,595,o),
(332,595,o),
(334,589,cs),
(351,495,o),
(358,367,o),
(362,233,cs),
(362,227,o),
(359,223,o),
(354,223,cs),
(285,219,o),
(214,218,o),
(144,217,cs)
);
}
);
width = 550;
}
);
note = A;
unicode = 65;
userData = {
KernOnName = A;
};
},
{
glyphname = AE;
kernRight = KO_E;
lastChange = "2025-01-03 22:28:15 +0000";
layers = (
{
anchors = (
{
name = bottom;
pos = (329,0);
},
{
name = top;
pos = (471,667);
}
);
hints = (
{
horizontal = 1;
place = (0,75);
type = Stem;
},
{
horizontal = 1;
place = (150,75);
type = Stem;
},
{
horizontal = 1;
place = (305,74);
type = Stem;
},
{
horizontal = 1;
place = (592,75);
type = Stem;
},
{
place = (318,100);
type = Stem;
},
{
horizontal = 1;
place = (0,75);
type = Stem;
},
{
horizontal = 1;
place = (305,74);
type = Stem;
},
{
horizontal = 1;
place = (592,75);
type = Stem;
},
{
place = (298,100);
type = Stem;
}
);
layerId = m005;
shapes = (
{
closed = 1;
nodes = (
(-18,0,ls),
(7,0,o),
(25,11,o),
(40,34,cs),
(62,69,o),
(84,104,o),
(108,139,cs),
(111,145,o),
(115,147,o),
(120,147,cs),
(316,147,ls),
(322,147,o),
(326,143,o),
(323,137,cs),
(313,104,o),
(304,72,o),
(294,39,cs),
(286,14,o),
(310,0,o),
(335,0,cs),
(657,0,ls),
(682,0,o),
(699,14,o),
(704,39,cs),
(710,66,o),
(702,93,o),
(676,90,cs),
(591,81,o),
(507,80,o),
(423,80,cs),
(410,80,o),
(406,87,o),
(409,100,cs),
(429,159,o),
(441,213,o),
(454,272,cs),
(456,284,o),
(464,291,o),
(476,292,cs),
(542,300,o),
(607,300,o),
(671,300,cs),
(696,300,o),
(713,314,o),
(718,339,cs),
(724,366,o),
(716,394,o),
(690,390,cs),
(625,380,o),
(561,380,o),
(495,373,cs),
(482,371,o),
(476,377,o),
(479,390,cs),
(491,447,o),
(504,510,o),
(510,567,cs),
(510,580,o),
(518,587,o),
(531,587,cs),
(611,587,o),
(699,586,o),
(775,577,cs),
(799,574,o),
(819,601,o),
(824,626,cs),
(830,653,o),
(819,667,o),
(794,667,cs),
(448,667,ls),
(424,667,o),
(405,658,o),
(389,637,cs),
(228,442,o),
(82,246,o),
(-47,51,cs),
(-67,21,o),
(-58,0,o),
(-25,0,cs)
);
},
{
closed = 1;
nodes = (
(171,227,o),
(168,232,o),
(174,239,cs),
(242,337,o),
(314,434,o),
(394,532,cs),
(401,541,o),
(409,540,o),
(408,531,cs),
(393,433,o),
(374,335,o),
(349,237,cs),
(348,230,o),
(343,227,o),
(337,227,cs),
(178,227,ls)
);
}
);
width = 789;
},
{
anchors = (
{
name = bottom;
pos = (422,0);
},
{
name = top;
pos = (564,667);
}
);
hints = (
{
horizontal = 1;
place = (0,75);
type = Stem;
},
{
horizontal = 1;
place = (150,75);
type = Stem;
},
{
horizontal = 1;
place = (305,74);
type = Stem;
},
{
horizontal = 1;
place = (592,75);
type = Stem;
},
{
place = (318,100);
type = Stem;
},
{
horizontal = 1;
place = (0,75);
type = Stem;
},
{
horizontal = 1;
place = (305,74);
type = Stem;
},
{
horizontal = 1;
place = (592,75);
type = Stem;
},
{
place = (333,100);
type = Stem;
}
);
layerId = m002;
shapes = (
{
closed = 1;
nodes = (
(46,-25,ls),
(91,-25,o),
(130,-2,o),
(157,40,cs),
(172,65,o),
(187,89,o),
(202,114,cs),
(206,120,o),
(210,122,o),
(215,122,cs),
(385,122,ls),
(391,122,o),
(395,118,o),
(393,112,cs),
(389,98,o),
(384,84,o),
(380,70,cs),
(362,14,o),
(403,-25,o),
(459,-25,cs),
(781,-25,ls),
(834,-25,o),
(877,11,o),
(889,64,cs),
(901,122,o),
(872,171,o),
(815,165,cs),
(733,156,o),
(701,155,o),
(618,155,cs),
(605,155,o),
(599,155,o),
(603,170,cs),
(609,193,o),
(615,211,o),
(619,222,cs),
(624,235,o),
(635,240,o),
(650,242,cs),
(681,246,o),
(725,250,o),
(789,250,cs),
(842,250,o),
(886,286,o),
(897,339,cs),
(910,398,o),
(880,448,o),
(821,439,cs),
(761,430,o),
(726,427,o),
(678,423,cs),
(669,422,o),
(659,427,o),
(663,445,cs),
(666,459,o),
(669,474,o),
(672,488,cs),
(675,502,o),
(681,512,o),
(694,512,cs),
(774,512,o),
(809,511,o),
(882,502,cs),
(937,496,o),
(986,545,o),
(998,601,cs),
(1010,656,o),
(981,692,o),
(928,692,cs),
(522,692,ls),
(480,692,o),
(443,674,o),
(415,638,cs),
(253,441,o),
(116,293,o),
(-13,97,cs),
(-57,34,o),
(-31,-25,o),
(39,-25,cs)
);
},
{
closed = 1;
nodes = (
(335,302,o),
(333,307,o),
(338,314,cs),
(377,365,o),
(417,416,o),
(462,467,cs),
(469,476,o),
(477,474,o),
(475,465,cs),
(467,412,o),
(458,363,o),
(446,312,cs),
(445,305,o),
(440,302,o),
(434,302,cs),
(342,302,ls)
);
}
);
width = 985;
},
{
anchors = (
{
name = bottom;
pos = (359,0);
},
{
name = top;
pos = (500,667);
}
);
hints = (
{
horizontal = 1;
place = (0,75);
type = Stem;
},
{
horizontal = 1;
place = (150,75);
type = Stem;
},
{
horizontal = 1;
place = (305,74);
type = Stem;
},
{
horizontal = 1;
place = (592,75);
type = Stem;
},
{
place = (319,100);
type = Stem;
},
{
horizontal = 1;
place = (0,75);
type = Stem;
},
{
horizontal = 1;
place = (305,74);
type = Stem;
},
{
horizontal = 1;
place = (592,75);
type = Stem;
},
{
place = (315,100);
type = Stem;
}
);
layerId = m003;
shapes = (
{
closed = 1;
nodes = (
(9,-4,ls),
(33,-4,o),
(50,6,o),
(63,28,cs),
(88,67,o),
(113,106,o),
(137,145,cs),
(139,148,o),
(142,150,o),
(146,150,cs),
(374,150,ls),
(378,150,o),
(381,147,o),
(379,143,cs),
(369,104,o),
(358,66,o),
(345,28,cs),
(340,10,o),
(356,0,o),
(379,0,cs),
(701,0,ls),
(722,0,o),
(731,8,o),
(736,29,cs),
(741,54,o),
(735,72,o),
(716,70,cs),
(632,61,o),
(536,60,o),
(452,60,cs),
(433,60,o),
(434,62,o),
(439,81,cs),
(458,140,o),
(477,223,o),
(489,282,cs),
(493,299,o),
(494,301,o),
(511,302,cs),
(576,310,o),
(652,310,o),
(716,310,cs),
(737,310,o),
(747,318,o),
(752,339,cs),
(757,364,o),
(751,383,o),
(733,380,cs),
(667,370,o),
(593,370,o),
(528,363,cs),
(508,360,o),
(506,361,o),
(510,380,cs),
(522,437,o),
(541,529,o),
(547,586,cs),
(548,605,o),
(550,607,o),
(569,607,cs),
(649,607,o),
(747,606,o),
(823,597,cs),
(841,595,o),
(855,613,o),
(860,636,cs),
(865,659,o),
(858,667,o),
(837,667,cs),
(475,667,ls),
(452,667,o),
(435,659,o),
(419,638,c),
(259,444,o),
(111,238,o),
(-18,43,cs),
(-37,15,o),
(-29,-4,o),
(2,-4,cs)
);
},
{
closed = 1;
nodes = (
(193,224,o),
(192,227,o),
(195,232,cs),
(273,349,o),
(357,461,o),
(460,584,cs),
(464,589,o),
(470,588,o),
(468,582,cs),
(453,468,o),
(431,348,o),
(402,231,cs),
(401,226,o),
(397,224,o),
(393,224,cs),
(198,224,ls)
);
}
);
width = 860;
}
);
metricLeft = "=A";
metricRight = "=E";
note = AE;
unicode = 198;
},
{
glyphname = B;
kernLeft = KO_B;
kernRight = KO_B;
lastChange = "2025-01-03 22:26:44 +0000";
layers = (
{
hints = (
{
horizontal = 1;
place = (0,21);
target = up;
type = BottomGhost;
},
{
horizontal = 1;
place = (282,67);
type = Stem;
},
{
horizontal = 1;
place = (598,69);
type = Stem;
},
{
place = (-2,100);
type = Stem;
},
{
place = (334,99);
type = Stem;
}
);
layerId = m005;
shapes = (
{
closed = 1;
nodes = (
(195,0,ls),
(359,0,o),
(474,68,o),
(490,190,cs),
(499,257,o),
(482,307,o),
(427,336,cs),
(421,340,o),
(422,344,o),
(430,348,cs),
(488,376,o),
(525,422,o),
(538,484,cs),
(563,602,o),
(493,675,o),
(339,677,cs),
(274,678,o),
(171,673,o),
(131,667,cs),
(99,662,o),
(71,639,o),
(69,608,cs),
(67,569,o),
(116,585,o),
(115,576,cs),
(109,486,o),
(46,220,o),
(0,49,cs),
(-8,18,o),
(18,0,o),
(49,0,cs)
);
},
{
closed = 1;
nodes = (
(123,90,o),
(120,94,o),
(121,100,cs),
(162,290,ls),
(163,296,o),
(168,300,o),
(174,300,cs),
(260,300,ls),
(365,300,o),
(407,265,o),
(391,190,cs),
(375,115,o),
(320,90,o),
(215,90,cs),
(129,90,ls)
);
},
{
closed = 1;
nodes = (
(186,380,o),
(182,383,o),
(184,390,cs),
(197,452,o),
(201,513,o),
(214,576,cs),
(216,583,o),
(221,587,o),
(227,587,cs),
(321,587,ls),
(416,587,o),
(454,554,o),
(439,484,cs),
(424,413,o),
(372,380,o),
(277,380,cs),
(192,380,ls)
);
}
);
width = 513;
},
{
hints = (
{
horizontal = 1;
place = (0,21);
target = up;
type = BottomGhost;
},
{
horizontal = 1;
place = (282,67);
type = Stem;
},
{
horizontal = 1;
place = (598,69);
type = Stem;
},
{
place = (-1,100);
type = Stem;
},
{
place = (335,99);
type = Stem;
}
);
layerId = m002;
shapes = (
{
closed = 1;
nodes = (
(260,-15,ls),
(447,-15,o),
(596,72,o),
(617,229,cs),
(622,269,o),
(616,290,o),
(602,310,cs),
(586,335,o),
(591,355,o),
(615,381,cs),
(632,398,o),
(642,416,o),
(649,449,cs),
(680,598,o),
(585,682,o),
(408,682,cs),
(318,682,o),
(223,678,o),
(168,667,cs),
(105,655,o),
(82,612,o),
(81,578,cs),
(79,507,o),
(127,534,o),
(122,508,cs),
(103,401,o),
(63,224,o),
(27,87,cs),
(10,26,o),
(55,-15,o),
(114,-15,cs)
);
},
{
closed = 1;
nodes = (
(289,157,o),
(252,158,o),
(259,193,cs),
(264,218,ls),
(271,250,o),
(292,269,o),
(321,268,cs),
(362,266,ls),
(408,264,o),
(421,244,o),
(414,213,cs),
(407,179,o),
(371,160,o),
(348,159,cs),
(312,158,ls)
);
},
{
closed = 1;
nodes = (
(323,412,o),
(303,417,o),
(311,449,cs),
(313,461,o),
(313,455,o),
(318,480,cs),
(322,500,o),
(324,519,o),
(360,519,cs),
(399,519,ls),
(428,519,o),
(462,509,o),
(453,466,cs),
(447,435,o),
(419,412,o),
(375,412,cs),
(352,412,ls)
);
}
);
width = 647;
},
{
hints = (
{
horizontal = 1;
place = (0,21);
target = up;
type = BottomGhost;
},
{
horizontal = 1;
place = (282,67);
type = Stem;
},
{
horizontal = 1;
place = (598,69);
type = Stem;
},
{
place = (-2,100);
type = Stem;
},
{
place = (334,99);
type = Stem;
}
);
layerId = m003;
shapes = (
{
closed = 1;
nodes = (
(194,0,ls),
(355,0,o),
(463,63,o),
(480,189,cs),
(488,254,o),
(474,304,o),
(421,332,cs),
(409,340,o),
(409,344,o),
(425,352,cs),
(481,378,o),
(515,425,o),
(527,484,cs),
(553,604,o),
(487,672,o),
(338,674,cs),
(273,675,o),
(171,670,o),
(131,664,cs),
(103,660,o),
(82,643,o),
(81,617,cs),
(77,574,o),
(129,609,o),
(126,584,cs),
(120,494,o),
(53,210,o),
(7,38,cs),
(0,13,o),
(20,0,o),
(48,0,cs)
);
},
{
closed = 1;
nodes = (
(112,70,o),
(106,78,o),
(108,90,cs),
(151,290,ls),
(154,302,o),
(163,310,o),
(175,310,cs),
(261,310,ls),
(371,310,o),
(418,272,o),
(401,190,cs),
(381,98,o),
(319,70,o),
(210,70,cs),
(124,70,ls)
);
},
{
closed = 1;
nodes = (
(177,370,o),
(170,377,o),
(173,390,cs),
(186,451,o),
(192,519,o),
(205,583,cs),
(208,596,o),
(218,604,o),
(230,604,cs),
(324,604,ls),
(424,604,o),
(466,567,o),
(448,484,cs),
(432,407,o),
(374,370,o),
(274,370,cs),
(189,370,ls)
);
}
);
width = 532;
}
);
metricLeft = "=H";
metricRight = "=H/4";
note = P;
unicode = 66;
userData = {
KernOnName = B;
};
},
{
glyphname = C;
kernLeft = KO_O;
kernRight = KO_C;
lastChange = "2025-01-03 22:26:44 +0000";
layers = (
{
anchors = (
{
name = bottom;
pos = (211,0);
},
{
name = top;
pos = (344,625);
}
);
hints = (
{
horizontal = 1;
place = (-10,85);
type = Stem;
},
{
horizontal = 1;
place = (597,80);
type = Stem;
},
{
place = (-36,110);
type = Stem;
}
);
layerId = m005;
shapes = (
{
closed = 1;
nodes = (
(256,-10,o),
(308,-1,o),
(357,17,cs),
(382,26,o),
(400,45,o),
(393,69,cs),
(383,100,o),
(365,114,o),
(342,107,cs),
(307,96,o),
(266,80,o),
(228,80,cs),
(133,80,o),
(105,159,o),
(134,295,cs),
(145,347,ls),
(174,483,o),
(243,597,o),
(338,597,cs),
(365,597,o),
(385,582,o),
(401,571,cs),
(421,559,o),
(449,565,o),
(471,583,cs),
(498,605,o),
(494,627,o),
(475,643,cs),
(445,666,o),
(405,677,o),
(355,677,cs),
(201,677,o),
(83,527,o),
(45,347,cs),
(34,295,ls),
(-4,115,o),
(55,-10,o),
(209,-10,cs)
);
}
);
width = 446;
},
{
anchors = (
{
name = bottom;
pos = (213,0);
},
{
name = top;
pos = (346,625);
}
);
hints = (
{
horizontal = 1;
place = (-10,85);
type = Stem;
},
{
horizontal = 1;
place = (597,80);
type = Stem;
},
{
place = (-36,110);
type = Stem;
}
);
layerId = m002;
shapes = (
{
closed = 1;
nodes = (
(260,-25,o),
(320,-15,o),
(374,6,cs),
(431,26,o),
(463,75,o),
(452,127,cs),
(439,185,o),
(393,204,o),
(346,190,cs),
(308,178,o),
(276,165,o),
(248,165,cs),
(182,165,o),
(167,207,o),
(186,295,cs),
(197,347,ls),
(216,438,o),
(261,512,o),
(322,512,cs),
(334,512,o),
(344,504,o),
(362,492,cs),
(399,469,o),
(452,479,o),
(493,513,cs),
(545,556,o),
(551,614,o),
(506,649,cs),
(468,678,o),
(419,692,o),
(360,692,cs),
(171,692,o),
(32,511,o),
(-3,347,cs),
(-14,295,ls),
(-50,128,o),
(21,-25,o),
(208,-25,cs)
);
}
);
width = 531;
},
{
anchors = (
{
name = bottom;
pos = (212,0);
},
{
name = top;
pos = (345,625);
}
);
hints = (
{
horizontal = 1;
place = (-10,85);
type = Stem;
},
{
horizontal = 1;
place = (597,80);
type = Stem;
},
{
place = (-36,110);
type = Stem;
}
);
layerId = m003;
shapes = (
{
closed = 1;
nodes = (
(258,0,o),
(308,9,o),
(356,26,cs),
(378,34,o),
(389,46,o),
(384,64,cs),
(375,93,o),
(362,103,o),
(344,97,cs),
(310,87,o),
(267,70,o),
(227,70,cs),
(125,70,o),
(95,155,o),
(125,295,cs),
(136,347,ls),
(165,486,o),
(238,607,o),
(341,607,cs),
(371,607,o),
(393,591,o),
(409,580,cs),
(425,570,o),
(447,574,o),
(467,590,cs),
(487,608,o),
(486,621,o),
(468,635,cs),
(440,657,o),
(403,667,o),
(354,667,cs),
(206,667,o),
(93,524,o),
(56,347,cs),
(45,295,ls),
(7,118,o),
(63,0,o),
(212,0,cs)
);
}
);
width = 491;
}
);
metricLeft = "=O";
metricRight = "=O/4";
note = C;
unicode = 67;
userData = {
KernOnName = C;
};
},
{
glyphname = D;
kernLeft = KO_B;
kernRight = KO_D;
lastChange = "2025-01-03 22:26:44 +0000";
layers = (
{
anchors = (
{
name = bottom;
pos = (209,0);
},
{
name = center;
pos = (132,334);
},
{
name = top;
pos = (342,625);
}
);
hints = (
{
horizontal = 1;
place = (-10,80);
type = Stem;
},
{
horizontal = 1;
place = (597,80);
type = Stem;
},
{
place = (-37,110);
type = Stem;
},
{
place = (353,110);
type = Stem;
}
);
layerId = m005;
shapes = (
{
closed = 1;
nodes = (
(198,0,ls),
(352,0,o),
(490,126,o),
(537,347,cs),
(584,571,o),
(521,677,o),
(367,677,cs),
(257,677,o),
(180,673,o),
(139,667,cs),
(107,662,o),
(69,649,o),
(70,610,cs),
(70,574,o),
(114,589,o),
(112,574,cs),
(83,399,o),
(45,224,o),
(-2,49,cs),
(-10,18,o),
(16,0,o),
(47,0,cs)
);
},
{
closed = 1;
nodes = (
(154,262,o),
(185,409,o),
(211,572,cs),
(211,578,o),
(216,582,o),
(222,582,cs),
(347,582,ls),
(442,582,o),
(475,526,o),
(437,347,cs),
(399,171,o),
(312,90,o),
(217,90,cs),
(117,90,ls),
(111,90,o),
(108,94,o),
(110,100,cs)
);
}
);
width = 575;
},
{
anchors = (
{
name = bottom;
pos = (255,0);
},
{
name = center;
pos = (165,334);
},
{
name = top;
pos = (388,625);
}
);
hints = (
{
horizontal = 1;
place = (-10,80);
type = Stem;
},
{
horizontal = 1;
place = (597,80);
type = Stem;
},
{
place = (-36,110);
type = Stem;
},
{
place = (354,110);
type = Stem;
}
);
layerId = m002;
shapes = (
{
closed = 1;
nodes = (
(265,-25,ls),
(448,-25,o),
(611,124,o),
(659,347,cs),
(707,573,o),
(625,692,o),
(442,692,cs),
(314,692,o),
(261,688,o),
(213,677,cs),
(151,663,o),
(85,639,o),
(83,580,cs),
(82,522,o),
(126,540,o),
(120,503,cs),
(95,347,o),
(71,242,o),
(26,77,cs),
(10,16,o),
(55,-25,o),
(114,-25,cs)
);
},
{
closed = 1;
nodes = (
(272,275,o),
(292,380,o),
(298,408,cs),
(310,464,o),
(309,507,o),
(348,507,cs),
(403,507,ls),
(473,507,o),
(487,480,o),
(459,347,cs),
(431,215,o),
(377,165,o),
(305,165,cs),
(260,165,ls),
(247,165,o),
(242,175,o),
(246,188,cs)
);
}
);
width = 650;
},
{
anchors = (
{
name = bottom;
pos = (222,0);
},
{
name = center;
pos = (152,334);
},
{
name = top;
pos = (355,625);
}
);
hints = (
{
horizontal = 1;
place = (-10,80);
type = Stem;
},
{
horizontal = 1;
place = (597,80);
type = Stem;
},
{
place = (-37,110);
type = Stem;
},
{
place = (353,110);
type = Stem;
}
);
layerId = m003;
shapes = (
{
closed = 1;
nodes = (
(199,0,ls),
(349,0,o),
(480,120,o),
(528,347,cs),
(576,574,o),
(517,674,o),
(368,674,cs),
(258,674,o),
(182,670,o),
(142,664,cs),
(110,659,o),
(83,650,o),
(83,619,cs),
(83,583,o),
(129,609,o),
(125,582,cs),
(96,406,o),
(54,214,o),
(7,38,cs),
(0,13,o),
(20,0,o),
(48,0,cs)
);
},
{
closed = 1;
nodes = (
(143,252,o),
(178,416,o),
(203,578,c),
(204,590,o),
(210,599,o),
(222,599,cs),
(352,599,ls),
(453,599,o),
(489,539,o),
(448,347,cs),
(407,154,o),
(314,70,o),
(214,70,cs),
(109,70,ls),
(97,70,o),
(95,79,o),
(100,91,c)
);
}
);
width = 579;
}
);
metricLeft = "=H";
metricRight = "=O";
note = O;
unicode = 68;
},
{
glyphname = Eth;
kernLeft = KO_Eth;
kernRight = KO_D;
lastChange = "2025-01-03 22:32:09 +0000";
layers = (
{
hints = (
{
horizontal = 1;
place = (-10,80);
type = Stem;
},
{
horizontal = 1;
place = (597,80);
type = Stem;
},
{
place = (35,110);
type = Stem;
},
{
place = (425,110);
type = Stem;
}
);
layerId = m005;
shapes = (
{
pos = (-42,0);
ref = D;
},
{
closed = 1;
nodes = (
(-34,339,ls),
(-40,314,o),
(-31,286,o),
(-6,290,cs),
(65,300,o),
(137,310,o),
(203,300,cs),
(228,296,o),
(255,314,o),
(261,339,cs),
(261,341,ls),
(267,366,o),
(248,394,o),
(223,390,cs),
(152,380,o),
(83,380,o),
(14,380,cs),
(-11,380,o),
(-28,366,o),
(-34,341,cs)
);
}
);
width = 533;
},
{
hints = (
{
horizontal = 1;
place = (-10,80);
type = Stem;
},
{
horizontal = 1;
place = (597,80);
type = Stem;
},
{
place = (35,110);
type = Stem;
},
{
place = (425,110);
type = Stem;
}
);
layerId = m002;
shapes = (
{
pos = (-28,0);
ref = D;
},
{
closed = 1;
nodes = (
(-34,339,ls),
(-46,282,o),
(-17,232,o),
(42,241,cs),
(108,250,o),
(173,260,o),
(235,251,cs),
(289,242,o),
(349,283,o),
(361,339,cs),
(361,341,ls),
(373,397,o),
(333,448,o),
(275,439,cs),
(208,430,o),
(143,430,o),
(74,430,cs),
(21,430,o),
(-23,394,o),
(-34,341,cs)
);
}
);
width = 622;
},
{
hints = (
{
horizontal = 1;
place = (-10,80);
type = Stem;
},
{
horizontal = 1;
place = (597,80);
type = Stem;
},
{
place = (35,110);
type = Stem;
},
{
place = (425,110);
type = Stem;
}
);
layerId = m003;
shapes = (
{
pos = (-60,0);
ref = D;
},
{
closed = 1;
nodes = (
(-36,339,ls),
(-41,315,o),
(-34,289,o),
(-10,293,cs),
(61,303,o),
(132,313,o),
(199,303,cs),
(221,299,o),
(248,316,o),
(253,339,cs),
(253,341,ls),
(258,364,o),
(241,391,o),
(217,387,cs),
(146,377,o),
(77,377,o),
(8,377,cs),
(-15,377,o),
(-31,364,o),
(-36,341,cs)
);
}
);
width = 519;
}
);
metricLeft = "=H-60";
metricRight = "=O";
note = O;
unicode = 208;
},
{
glyphname = E;
kernLeft = KO_E;
kernRight = KO_E;
lastChange = "2025-01-03 22:26:44 +0000";
layers = (
{
anchors = (
{
name = bottom;
pos = (202,0);
},
{
name = ogonek;
pos = (400,10);
},
{
name = top;
pos = (335,625);
},
{
name = topleft;
pos = (119,667);
}
);
hints = (
{
horizontal = 1;
place = (0,75);
type = Stem;
},
{
horizontal = 1;
place = (305,74);
type = Stem;
},
{
horizontal = 1;
place = (592,75);
type = Stem;
},
{
place = (-1,100);
type = Stem;
}
);
layerId = m005;
shapes = (
{
closed = 1;
nodes = (
(551,653,o),
(540,667,o),
(515,667,cs),
(198,667,ls),
(173,667,o),
(143,653,o),
(141,628,cs),
(119,432,o),
(77,235,o),
(15,39,cs),
(7,14,o),
(31,0,o),
(56,0,cs),
(378,0,ls),
(403,0,o),
(420,14,o),
(425,39,cs),
(431,66,o),
(423,93,o),
(397,90,cs),
(312,81,o),
(228,80,o),
(144,80,cs),
(131,80,o),
(127,87,o),
(130,100,cs),
(150,159,o),
(162,213,o),
(175,272,cs),
(177,284,o),
(185,291,o),
(197,292,cs),
(263,300,o),
(328,300,o),
(392,300,cs),
(417,300,o),
(434,314,o),
(439,339,cs),
(445,366,o),
(437,394,o),
(411,390,cs),
(346,380,o),
(282,380,o),
(216,373,cs),
(203,371,o),
(197,377,o),
(200,390,cs),
(212,447,o),
(225,510,o),
(231,567,cs),
(231,580,o),
(239,587,o),
(252,587,cs),
(332,587,o),
(420,586,o),
(496,577,cs),
(520,574,o),
(540,601,o),
(545,626,cs)
);
}
);
width = 510;
},
{
anchors = (
{
name = bottom;
pos = (201,0);
},
{
name = ogonek;
pos = (399,10);
},
{
name = top;
pos = (334,625);
},
{
name = topleft;
pos = (118,667);
}
);
hints = (
{
horizontal = 1;
place = (0,75);
type = Stem;
},
{
horizontal = 1;
place = (305,74);
type = Stem;
},
{
horizontal = 1;
place = (592,75);
type = Stem;
},
{
place = (-1,100);
type = Stem;
}
);
layerId = m002;
shapes = (
{
closed = 1;
nodes = (
(601,656,o),
(572,692,o),
(519,692,cs),
(202,692,ls),
(146,692,o),
(89,653,o),
(83,597,cs),
(62,404,o),
(32,263,o),
(-29,70,cs),
(-47,14,o),
(-6,-25,o),
(50,-25,cs),
(372,-25,ls),
(425,-25,o),
(468,11,o),
(480,64,cs),
(492,122,o),
(463,171,o),
(406,165,cs),
(324,156,o),
(297,155,o),
(214,155,cs),
(201,155,o),
(190,156,o),
(194,170,cs),
(201,193,o),
(206,211,o),
(210,222,cs),
(215,235,o),
(226,240,o),
(241,242,cs),
(272,246,o),
(316,250,o),
(380,250,cs),
(433,250,o),
(477,286,o),
(488,339,cs),
(501,398,o),
(471,448,o),
(412,439,cs),
(352,430,o),
(317,427,o),
(269,423,cs),
(260,422,o),
(250,427,o),
(254,445,cs),
(255,453,o),
(259,468,o),
(263,488,cs),
(266,502,o),
(272,512,o),
(285,512,cs),
(365,512,o),
(400,511,o),
(473,502,cs),
(528,496,o),
(577,545,o),
(589,601,cs)
);
}
);
width = 576;
},
{
anchors = (
{
name = bottom;
pos = (176,0);
},
{
name = ogonek;
pos = (374,10);
},
{
name = top;
pos = (309,625);
},
{
name = topleft;
pos = (93,667);
}
);
hints = (
{
horizontal = 1;
place = (0,75);
type = Stem;
},
{
horizontal = 1;
place = (305,74);
type = Stem;
},
{
horizontal = 1;
place = (592,75);
type = Stem;
},
{
place = (-1,100);
type = Stem;
}
);
layerId = m003;
shapes = (
{
closed = 1;
nodes = (
(516,659,o),
(510,667,o),
(489,667,cs),
(172,667,ls),
(149,667,o),
(129,657,o),
(127,639,cs),
(105,443,o),
(59,224,o),
(-3,28,cs),
(-9,10,o),
(7,0,o),
(30,0,cs),
(352,0,ls),
(373,0,o),
(383,8,o),
(387,29,cs),
(393,54,o),
(386,72,o),
(368,70,cs),
(283,61,o),
(198,60,o),
(114,60,cs),
(95,60,o),
(87,72,o),
(92,91,cs),
(112,150,o),
(126,213,o),
(139,272,cs),
(143,289,o),
(155,301,o),
(172,302,cs),
(238,310,o),
(304,310,o),
(368,310,cs),
(389,310,o),
(399,318,o),
(403,339,cs),
(408,364,o),
(403,383,o),
(385,380,cs),
(319,370,o),
(255,370,o),
(189,363,cs),
(170,360,o),
(160,371,o),
(164,390,cs),
(176,447,o),
(190,519,o),
(197,576,cs),
(198,595,o),
(211,607,o),
(230,607,cs),
(310,607,o),
(399,606,o),
(475,597,cs),
(493,595,o),
(506,613,o),
(511,636,cs)
);
}
);
width = 511;
}
);
metricLeft = "=|H";
metricRight = "=H/2";
note = E;
unicode = 69;
userData = {
KernOnName = E;
};
},
{
glyphname = Schwa;
kernRight = KO_O;
lastChange = "2025-01-03 22:28:15 +0000";
layers = (
{
layerId = m003;
shapes = (
{
closed = 1;
nodes = (
(363,-7,o),
(474,116,o),
(512,295,cs),
(523,347,ls),
(561,526,o),
(507,674,o),
(355,674,cs),
(305,674,o),
(262,663,o),
(223,641,cs),
(198,625,o),
(187,605,o),
(201,587,cs),
(202,585,ls),
(216,568,o),
(241,562,o),
(264,574,cs),
(284,585,o),
(312,600,o),
(340,600,cs),
(430,600,o),
(454,500,o),
(434,377,c),
(116,377,ls),
(86,377,o),
(56,359,o),
(50,331,cs),
(-14,29,o),
(114,-7,o),
(211,-7,cs)
);
},
{
closed = 1;
nodes = (
(113,297,o),
(121,302,o),
(128,301,cs),
(150,300,o),
(348,298,o),
(418,295,c),
(389,158,o),
(325,77,o),
(228,77,cs),
(138,77,o),
(76,122,o),
(111,288,cs)
);
}
);
width = 570;
},
{
layerId = m005;
shapes = (
{
closed = 1;
nodes = (
(357,-10,o),
(470,115,o),
(508,295,cs),
(519,347,ls),
(557,527,o),
(503,677,o),
(349,677,cs),
(299,677,o),
(255,666,o),
(215,643,cs),
(188,627,o),
(176,605,o),
(191,585,cs),
(193,583,ls),
(207,565,o),
(233,559,o),
(257,571,cs),
(279,582,o),
(305,597,o),
(332,597,cs),
(419,597,o),
(444,501,o),
(425,380,c),
(110,380,ls),
(79,380,o),
(47,361,o),
(40,331,cs),
(-24,26,o),
(105,-10,o),
(203,-10,cs)
);
},
{
closed = 1;
nodes = (
(109,295,o),
(115,299,o),
(120,298,cs),
(142,297,o),
(336,295,o),
(407,292,c),
(378,158,o),
(316,80,o),
(222,80,cs),
(133,80,o),
(72,124,o),
(107,288,cs)
);
}
);
width = 556;
},
{
layerId = m002;
shapes = (
{
closed = 1;
nodes = (
(349,-25,o),
(473,113,o),
(512,295,cs),
(523,347,ls),
(561,528,o),
(502,692,o),
(331,692,cs),
(277,692,o),
(227,680,o),
(182,654,cs),
(136,626,o),
(125,586,o),
(147,557,cs),
(148,555,ls),
(168,530,o),
(205,521,o),
(242,539,cs),
(264,551,o),
(284,562,o),
(304,562,cs),
(367,562,o),
(390,494,o),
(382,405,c),
(94,405,ls),
(45,405,o),
(3,371,o),
(-6,331,cs),
(-73,14,o),
(75,-25,o),
(179,-25,cs)
);
},
{
closed = 1;
nodes = (
(112,293,o),
(97,274,o),
(91,273,c),
(103,272,o),
(270,270,o),
(355,268,c),
(330,172,o),
(281,115,o),
(209,115,cs),
(131,115,o),
(82,152,o),
(111,288,cs)
);
}
);
width = 512;
}
);
metricLeft = "=O";
metricRight = "=O";
unicode = 399;
},
{
glyphname = F;
kernLeft = KO_E;
kernRight = KO_F;
lastChange = "2025-01-03 22:26:44 +0000";
layers = (
{
hints = (
{
horizontal = 1;
place = (0,75);
type = Stem;
},
{
horizontal = 1;
place = (305,74);
type = Stem;
},
{
horizontal = 1;
place = (592,75);
type = Stem;
},
{
place = (-1,100);
type = Stem;
}
);
layerId = m005;
shapes = (
{
closed = 1;
nodes = (
(551,653,o),
(540,667,o),
(515,667,cs),
(198,667,ls),
(173,667,o),
(145,653,o),
(141,628,cs),
(109,432,o),
(67,235,o),
(15,39,cs),
(9,14,o),
(31,0,o),
(56,0,cs),
(103,0,o),
(133,14,o),
(135,39,cs),
(143,123,o),
(159,197,o),
(177,281,cs),
(178,287,o),
(182,290,o),
(188,291,cs),
(257,300,o),
(325,300,o),
(392,300,cs),
(417,300,o),
(434,314,o),
(439,339,cs),
(445,366,o),
(437,394,o),
(411,390,cs),
(342,380,o),
(275,380,o),
(208,380,cs),
(201,380,o),
(199,383,o),
(200,390,cs),
(213,452,o),
(226,514,o),
(231,576,cs),
(232,583,o),
(236,587,o),
(243,587,cs),
(325,587,o),
(417,587,o),
(496,577,cs),
(520,574,o),
(540,601,o),
(545,626,cs)
);
}
);
width = 510;
},
{
hints = (
{
horizontal = 1;
place = (0,75);
type = Stem;
},
{
horizontal = 1;
place = (305,74);
type = Stem;
},
{
horizontal = 1;
place = (592,75);
type = Stem;
},
{
place = (-1,100);
type = Stem;
}
);
layerId = m002;
shapes = (
{
closed = 1;
nodes = (
(601,656,o),
(572,692,o),
(519,692,cs),
(202,692,ls),
(148,692,o),
(93,655,o),
(84,601,cs),
(52,406,o),
(22,261,o),
(-30,66,cs),
(-43,12,o),
(-4,-25,o),
(50,-25,cs),
(128,-25,o),
(185,14,o),
(191,70,cs),
(198,151,o),
(201,162,o),
(213,221,cs),
(216,236,o),
(222,240,o),
(234,242,cs),
(270,248,o),
(313,250,o),
(380,250,cs),
(433,250,o),
(477,286,o),
(488,339,cs),
(501,398,o),
(471,448,o),
(412,439,cs),
(348,430,o),
(295,430,o),
(268,430,cs),
(257,430,o),
(254,441,o),
(255,450,cs),
(256,465,o),
(255,455,o),
(258,475,cs),
(261,492,o),
(268,512,o),
(296,512,cs),
(378,512,o),
(397,512,o),
(473,502,cs),
(528,496,o),
(577,545,o),
(589,601,cs)
);
}
);
width = 576;
},
{
hints = (
{
horizontal = 1;
place = (0,75);
type = Stem;
},
{
horizontal = 1;
place = (305,74);
type = Stem;
},
{
horizontal = 1;
place = (592,75);
type = Stem;
},
{
place = (-1,100);
type = Stem;
}
);
layerId = m003;
shapes = (
{
closed = 1;
nodes = (
(516,659,o),
(510,667,o),
(489,667,cs),
(172,667,ls),
(150,667,o),
(130,657,o),
(127,638,cs),
(95,442,o),
(49,225,o),
(-3,29,cs),
(-8,10,o),
(8,0,o),
(30,0,cs),
(75,0,o),
(95,10,o),
(97,28,cs),
(105,112,o),
(123,197,o),
(141,281,cs),
(143,292,o),
(152,299,o),
(163,301,cs),
(232,310,o),
(301,310,o),
(368,310,cs),
(389,310,o),
(399,318,o),
(403,339,cs),
(408,364,o),
(403,383,o),
(385,380,cs),
(315,370,o),
(247,370,o),
(180,370,cs),
(167,370,o),
(161,377,o),
(164,390,cs),
(177,452,o),
(192,524,o),
(196,585,c),
(199,598,o),
(208,607,o),
(221,607,cs),
(303,607,o),
(396,607,o),
(475,597,cs),
(493,595,o),
(506,613,o),
(511,636,cs)
);
}
);
width = 511;
}
);
metricLeft = "=|H";
metricRight = "=H/2";
note = E;
unicode = 70;
userData = {
KernOnName = F;
};
},
{
glyphname = G;
kernLeft = KO_O;
kernRight = KO_G;
lastChange = "2025-01-03 22:26:44 +0000";
layers = (
{
anchors = (
{
name = bottom;
pos = (211,0);
},
{
name = top;
pos = (344,625);
}
);
hints = (
{
horizontal = 1;
place = (-10,85);
type = Stem;
},
{
horizontal = 1;
place = (597,80);
type = Stem;
},
{
place = (-36,110);
type = Stem;
},
{
horizontal = 1;
place = (-10,85);
type = Stem;
},
{
horizontal = 1;
place = (597,80);
type = Stem;
},
{
place = (-36,110);
type = Stem;
}
);
layerId = m005;
shapes = (
{
closed = 1;
nodes = (
(256,-10,o),
(308,-1,o),
(357,17,cs),
(360,18,o),
(363,20,o),
(367,21,cs),
(410,40,ls),
(437,52,o),
(454,71,o),
(457,98,cs),
(465,181,o),
(483,263,o),
(500,300,cs),
(516,331,ls),
(533,361,o),
(499,380,o),
(468,380,cs),
(331,380,ls),
(306,380,o),
(279,366,o),
(273,339,cs),
(268,314,o),
(286,286,o),
(312,290,cs),
(340,294,o),
(366,297,o),
(392,298,cs),
(399,299,o),
(402,295,o),
(401,288,cs),
(381,153,o),
(384,123,o),
(342,107,cs),
(307,94,o),
(266,80,o),
(228,80,cs),
(133,80,o),
(105,159,o),
(134,295,cs),
(145,347,ls),
(174,483,o),
(243,597,o),
(338,597,cs),
(365,597,o),
(385,582,o),
(401,571,cs),
(421,559,o),
(449,565,o),
(471,583,cs),
(473,585,ls),
(498,605,o),
(494,627,o),
(475,643,cs),
(445,666,o),
(405,677,o),
(355,677,cs),
(201,677,o),
(83,527,o),
(45,347,cs),
(34,295,ls),
(-4,115,o),
(55,-10,o),
(209,-10,cs)
);
}
);
width = 558;
},
{
anchors = (
{
name = bottom;
pos = (212,0);
},
{
name = top;
pos = (354,667);
}
);
hints = (
{
horizontal = 1;
place = (-10,85);
type = Stem;
},
{
horizontal = 1;
place = (597,80);
type = Stem;
},
{
place = (-36,110);
type = Stem;
}
);
layerId = m002;
shapes = (
{
closed = 1;
nodes = (
(260,-25,o),
(320,-15,o),
(375,6,cs),
(380,8,o),
(382,8,o),
(384,9,cs),
(431,30,ls),
(480,51,o),
(512,90,o),
(518,139,cs),
(524,217,o),
(529,255,o),
(547,287,cs),
(563,315,ls),
(597,375,o),
(553,430,o),
(481,430,cs),
(344,430,ls),
(291,430,o),
(237,394,o),
(225,339,cs),
(213,283,o),
(213,232,o),
(271,241,cs),
(299,245,o),
(312,248,o),
(329,248,cs),
(349,248,o),
(343,227,o),
(338,203,cs),
(336,194,o),
(336,186,o),
(317,177,cs),
(292,165,o),
(277,165,o),
(248,165,cs),
(182,165,o),
(167,207,o),
(186,295,cs),
(197,347,ls),
(224,473,o),
(261,512,o),
(322,512,cs),
(334,512,o),
(344,504,o),
(362,492,cs),
(399,469,o),
(452,479,o),
(493,513,cs),
(496,515,ls),
(545,556,o),
(551,614,o),
(506,649,cs),
(468,678,o),
(419,692,o),
(360,692,cs),
(171,692,o),
(32,511,o),
(-3,347,cs),
(-14,295,ls),
(-50,128,o),
(21,-25,o),
(208,-25,cs)
);
}
);
width = 553;
},
{
anchors = (
{
name = bottom;
pos = (212,0);
},
{
name = top;
pos = (345,625);
}
);
hints = (
{
horizontal = 1;
place = (-10,85);
type = Stem;
},
{
horizontal = 1;
place = (597,80);
type = Stem;
},
{
place = (-36,110);
type = Stem;
}
);
layerId = m003;
shapes = (
{
closed = 1;
nodes = (
(257,-7,o),
(299,-2,o),
(355,19,cs),
(356,20,o),
(361,22,o),
(364,23,cs),
(407,42,ls),
(431,53,o),
(444,67,o),
(446,90,cs),
(454,173,o),
(471,265,o),
(492,303,cs),
(508,334,ls),
(520,356,o),
(496,370,o),
(467,370,cs),
(330,370,ls),
(308,370,o),
(289,360,o),
(284,339,cs),
(280,318,o),
(293,297,o),
(313,300,cs),
(342,304,o),
(369,308,o),
(395,308,cs),
(406,308,o),
(414,302,o),
(413,289,cs),
(391,148,o),
(394,110,o),
(343,91,cs),
(309,78,o),
(266,63,o),
(226,63,cs),
(124,63,o),
(94,148,o),
(125,295,cs),
(136,347,ls),
(167,493,o),
(240,614,o),
(343,614,cs),
(373,614,o),
(394,598,o),
(411,587,cs),
(427,577,o),
(449,581,o),
(468,597,cs),
(470,599,ls),
(490,615,o),
(488,628,o),
(470,642,cs),
(441,664,o),
(404,674,o),
(355,674,cs),
(207,674,o),
(95,531,o),
(56,347,cs),
(45,295,ls),
(6,111,o),
(62,-7,o),
(211,-7,cs)
);
}
);
width = 546;
}
);
metricLeft = "=O";
metricRight = "=O";
note = C;
unicode = 71;
},
{
glyphname = H;
kernLeft = KO_H;
kernRight = KO_H;
lastChange = "2025-01-03 22:26:37 +0000";
layers = (
{
hints = (
{
horizontal = 1;
place = (0,21);
target = up;
type = BottomGhost;
},
{
horizontal = 1;
place = (305,75);
type = Stem;
},
{
place = (-1,100);
type = Stem;
},
{
place = (359,100);
type = Stem;
}
);
layerId = m005;
shapes = (
{
closed = 1;
nodes = (
(96,0,o),
(132,18,o),
(135,49,cs),
(138,84,o),
(154,173,o),
(175,273,cs),
(179,289,o),
(183,297,o),
(190,297,cs),
(266,300,o),
(340,300,o),
(416,300,cs),
(422,300,o),
(425,296,o),
(424,290,cs),
(400,185,o),
(377,86,o),
(365,49,cs),
(354,18,o),
(382,0,o),
(415,0,cs),
(446,0,o),
(480,18,o),
(485,49,cs),
(515,239,o),
(555,428,o),
(605,618,cs),
(614,649,o),
(588,667,o),
(557,667,cs),
(524,667,o),
(502,649,o),
(495,618,cs),
(488,585,o),
(470,497,o),
(448,398,cs),
(446,391,o),
(443,388,o),
(435,387,cs),
(360,383,o),
(284,381,o),
(208,380,cs),
(202,380,o),
(199,384,o),
(200,390,cs),
(222,492,o),
(244,584,o),
(255,618,cs),
(266,649,o),
(238,667,o),
(205,667,cs),
(174,667,o),
(140,649,o),
(135,618,cs),
(123,542,o),
(110,466,o),
(95,390,cs),
(94,384,o),
(89,380,o),
(83,380,cs),
(49,380,o),
(32,366,o),
(27,341,cs),
(26,339,ls),
(19,304,o),
(30,290,o),
(65,291,cs),
(71,291,o),
(74,288,o),
(73,281,cs),
(57,204,o),
(41,127,o),
(25,49,cs),
(18,18,o),
(32,0,o),
(63,0,cs)
);
}
);
width = 595;
},
{
hints = (
{
horizontal = 1;
place = (0,21);
target = up;
type = BottomGhost;
},
{
horizontal = 1;
place = (305,75);
type = Stem;
},
{
place = (-1,100);
type = Stem;
},
{
place = (359,100);
type = Stem;
}
);
layerId = m002;
shapes = (
{
closed = 1;
nodes = (
(172,-25,o),
(236,19,o),
(241,80,cs),
(242,100,o),
(255,152,o),
(262,200,cs),
(265,227,o),
(287,249,o),
(320,249,cs),
(335,249,o),
(349,250,o),
(364,250,cs),
(397,250,o),
(414,242,o),
(407,218,cs),
(391,153,o),
(379,105,o),
(371,80,cs),
(350,19,o),
(396,-25,o),
(460,-25,cs),
(519,-25,o),
(582,16,o),
(590,77,cs),
(620,265,o),
(650,402,o),
(700,590,cs),
(716,651,o),
(671,692,o),
(612,692,cs),
(551,692,o),
(503,652,o),
(490,593,cs),
(481,548,o),
(474,519,o),
(465,474,cs),
(458,442,o),
(439,434,o),
(407,433,cs),
(391,432,o),
(376,432,o),
(360,432,cs),
(327,431,o),
(310,439,o),
(319,473,cs),
(332,532,o),
(341,565,o),
(349,587,cs),
(370,648,o),
(324,692,o),
(260,692,cs),
(201,692,o),
(138,651,o),
(130,590,cs),
(121,541,o),
(119,515,o),
(109,466,cs),
(104,438,o),
(86,424,o),
(63,404,cs),
(45,388,o),
(32,366,o),
(27,341,cs),
(26,339,ls),
(20,311,o),
(24,284,o),
(38,265,cs),
(52,246,o),
(63,232,o),
(58,205,cs),
(47,153,o),
(41,126,o),
(30,74,cs),
(17,15,o),
(49,-25,o),
(108,-25,cs)
);
}
);
width = 670;
},
{
hints = (
{
horizontal = 1;
place = (0,21);
target = up;
type = BottomGhost;
},
{
horizontal = 1;
place = (305,75);
type = Stem;
},
{
place = (-1,100);
type = Stem;
},
{
place = (359,100);
type = Stem;
}
);
layerId = m003;
shapes = (
{
closed = 1;
nodes = (
(68,0,o),
(95,13,o),
(97,38,cs),
(101,73,o),
(119,173,o),
(140,273,cs),
(145,296,o),
(154,307,o),
(167,307,cs),
(243,310,o),
(317,310,o),
(393,310,cs),
(405,310,o),
(411,302,o),
(409,290,cs),
(385,185,o),
(360,75,o),
(347,38,cs),
(339,13,o),
(360,0,o),
(390,0,cs),
(418,0,o),
(444,13,o),
(447,38,cs),
(478,229,o),
(522,438,o),
(573,629,cs),
(580,654,o),
(560,667,o),
(532,667,cs),
(503,667,o),
(488,655,o),
(483,628,cs),
(476,595,o),
(455,497,o),
(433,398,cs),
(430,386,o),
(422,379,o),
(409,377,c),
(332,373,o),
(257,371,o),
(181,370,cs),
(169,370,o),
(162,378,o),
(165,390,cs),
(187,492,o),
(212,595,o),
(223,629,cs),
(231,654,o),
(210,667,o),
(180,667,cs),
(152,667,o),
(126,654,o),
(123,629,cs),
(110,552,o),
(95,466,o),
(80,390,cs),
(77,378,o),
(68,370,o),
(56,370,cs),
(26,370,o),
(16,362,o),
(12,341,cs),
(11,339,ls),
(5,308,o),
(11,300,o),
(42,301,cs),
(54,301,o),
(61,294,o),
(58,281,cs),
(42,204,o),
(24,117,o),
(7,39,cs),
(2,12,o),
(11,0,o),
(38,0,cs)
);
}
);
width = 570;
}
);
note = H;
unicode = 72;
userData = {
KernOnName = H;
};
},
{
glyphname = Hbar;
lastChange = "2024-12-25 20:25:25 +0000";
layers = (
{
layerId = m003;
shapes = (
{
ref = H;
},
{
closed = 1;
nodes = (
(19,514,ls),
(19,491,o),
(31,467,o),
(52,471,cs),
(121,481,o),
(460,491,o),
(529,481,cs),
(551,477,o),
(572,493,o),
(572,514,cs),
(572,516,ls),
(572,537,o),
(550,563,o),
(529,559,cs),
(460,549,o),
(121,549,o),
(52,549,cs),
(31,549,o),
(19,537,o),
(19,516,cs)
);
}
);
width = 582;
},
{
layerId = m005;
shapes = (
{
pos = (-6,0);
ref = H;
},
{
closed = 1;
nodes = (
(10,514,ls),
(10,490,o),
(23,464,o),
(46,468,cs),
(115,478,o),
(498,488,o),
(567,478,cs),
(590,474,o),
(613,491,o),
(613,514,cs),
(613,516,ls),
(613,539,o),
(590,566,o),
(567,562,cs),
(498,552,o),
(115,552,o),
(46,552,cs),
(23,552,o),
(10,539,o),
(10,516,cs)
);
}
);
width = 623;
},
{
layerId = m002;
shapes = (
{
ref = H;
},
{
closed = 1;
nodes = (
(32,543,ls),
(32,504,o),
(57,465,o),
(97,472,cs),
(164,482,o),
(544,492,o),
(610,482,cs),
(648,476,o),
(685,504,o),
(685,543,cs),
(685,545,ls),
(685,585,o),
(647,622,o),
(610,616,cs),
(543,606,o),
(162,606,o),
(93,606,cs),
(56,606,o),
(32,582,o),
(32,545,cs)
);
}
);
width = 695;
}
);
unicode = 294;
},
{
glyphname = I;
kernLeft = KO_I;
kernRight = KO_I;
lastChange = "2025-01-03 22:26:44 +0000";
layers = (
{
anchors = (
{
name = bottom;
pos = (114,0);
},
{
name = ogonek;
pos = (204,10);
},
{
name = top;
pos = (247,625);
},
{
name = topleft;
pos = (166,667);
}
);
hints = (
{
horizontal = 1;
place = (0,21);
target = up;
type = BottomGhost;
},
{
place = (-1,100);
type = Stem;
}
);
layerId = m005;
shapes = (
{
closed = 1;
nodes = (
(83,-5,o),
(143,-5,o),
(206,5,cs),
(232,9,o),
(258,19,o),
(264,44,cs),
(271,81,o),
(251,99,o),
(225,95,cs),
(215,94,o),
(205,92,o),
(194,90,cs),
(187,89,o),
(184,92,o),
(185,99,cs),
(288,581,ls),
(289,587,o),
(294,591,o),
(300,590,cs),
(310,589,o),
(320,588,o),
(330,587,cs),
(354,583,o),
(372,601,o),
(377,626,cs),
(383,653,o),
(372,665,o),
(347,667,cs),
(287,672,o),
(227,672,o),
(165,667,cs),
(140,665,o),
(123,653,o),
(118,628,cs),
(112,601,o),
(120,573,o),
(146,577,cs),
(156,578,o),
(167,580,o),
(177,582,cs),
(184,583,o),
(188,580,o),
(186,573,cs),
(84,91,ls),
(82,85,o),
(77,81,o),
(72,82,cs),
(61,83,o),
(51,84,o),
(41,85,cs),
(17,89,o),
(-1,71,o),
(-6,44,cs),
(-12,19,o),
(-3,-5,o),
(22,-5,cs)
);
}
);
width = 370;
},
{
anchors = (
{
name = bottom;
pos = (143,0);
},
{
name = ogonek;
pos = (233,10);
},
{
name = top;
pos = (276,625);
},
{
name = topleft;
pos = (195,667);
}
);
hints = (
{
horizontal = 1;
place = (0,21);
target = up;
type = BottomGhost;
},
{
place = (-1,100);
type = Stem;
}
);
layerId = m002;
shapes = (
{
closed = 1;
nodes = (
(108,-25,o),
(172,-25,o),
(239,-14,cs),
(299,-5,o),
(339,28,o),
(349,74,cs),
(363,141,o),
(352,175,o),
(325,175,cs),
(313,175,o),
(299,169,o),
(292,169,cs),
(284,169,o),
(282,180,o),
(286,199,cs),
(345,481,ls),
(348,493,o),
(352,510,o),
(361,510,cs),
(372,510,o),
(376,508,o),
(381,507,cs),
(406,502,o),
(438,541,o),
(450,596,cs),
(462,651,o),
(432,683,o),
(384,687,cs),
(322,692,o),
(258,692,o),
(194,687,cs),
(144,683,o),
(102,651,o),
(90,596,cs),
(78,540,o),
(67,489,o),
(104,497,cs),
(113,499,o),
(124,500,o),
(133,500,cs),
(144,500,o),
(147,490,o),
(144,473,cs),
(84,191,ls),
(81,179,o),
(77,163,o),
(64,162,c),
(53,163,o),
(46,166,o),
(33,165,cs),
(11,163,o),
(-8,135,o),
(-21,74,cs),
(-32,21,o),
(-6,-25,o),
(47,-25,cs)
);
}
);
width = 431;
},
{
anchors = (
{
name = bottom;
pos = (147,0);
},
{
name = ogonek;
pos = (237,10);
},
{
name = top;
pos = (280,625);
},
{
name = topleft;
pos = (199,667);
}
);
hints = (
{
horizontal = 1;
place = (0,21);
target = up;
type = BottomGhost;
},
{
place = (-1,100);
type = Stem;
}
);
layerId = m003;
shapes = (
{
closed = 1;
nodes = (
(117,-2,o),
(176,-2,o),
(238,8,cs),
(262,12,o),
(281,19,o),
(285,37,cs),
(292,69,o),
(277,81,o),
(256,78,cs),
(245,77,o),
(236,75,o),
(225,73,cs),
(211,71,o),
(204,79,o),
(206,92,cs),
(313,591,ls),
(315,603,o),
(327,612,o),
(338,610,cs),
(348,609,o),
(358,608,o),
(368,607,cs),
(387,604,o),
(397,614,o),
(402,636,cs),
(407,658,o),
(400,665,o),
(379,667,cs),
(320,672,o),
(260,672,o),
(199,667,cs),
(176,665,o),
(167,658,o),
(162,636,cs),
(157,613,o),
(163,594,o),
(182,597,cs),
(192,598,o),
(201,600,o),
(212,602,cs),
(226,604,o),
(234,596,o),
(231,583,cs),
(125,84,ls),
(122,72,o),
(110,63,o),
(100,65,cs),
(89,66,o),
(79,67,o),
(69,68,cs),
(50,71,o),
(40,61,o),
(35,37,cs),
(30,15,o),
(37,-2,o),
(56,-2,cs)
);
}
);
width = 439;
}
);
metricLeft = "=O";
metricRight = "=O";
note = I;
unicode = 73;
userData = {
KernOnName = I;
};
},
{
glyphname = J;
kernLeft = KO_J;
kernRight = KO_J;
lastChange = "2025-01-03 22:26:44 +0000";
layers = (
{
anchors = (
{
name = bottom;
pos = (212,0);
},
{
name = top;
pos = (345,625);
}
);
hints = (
{
horizontal = 1;
place = (-10,85);
type = Stem;
},
{
horizontal = 1;
place = (597,80);
type = Stem;
},
{
place = (-35,110);
type = Stem;
}
);
layerId = m005;
shapes = (
{
closed = 1;
nodes = (
(280,-10,o),
(387,90,o),
(426,270,cs),
(491,576,ls),
(492,582,o),
(497,586,o),
(503,586,cs),
(515,586,ls),
(537,587,o),
(556,603,o),
(561,625,cs),
(566,650,o),
(553,667,o),
(530,667,cs),
(294,667,ls),
(269,667,o),
(246,648,o),
(240,622,cs),
(235,597,o),
(250,575,o),
(277,579,cs),
(313,584,o),
(348,586,o),
(383,586,cs),
(389,586,o),
(392,582,o),
(391,576,cs),
(326,270,ls),
(297,134,o),
(240,80,o),
(145,80,cs),
(111,80,o),
(79,93,o),
(53,101,cs),
(25,109,o),
(-4,83,o),
(-16,67,cs),
(-33,42,o),
(-29,13,o),
(-5,6,cs),
(36,-7,o),
(82,-10,o),
(126,-10,cs)
);
}
);
width = 554;
},
{
anchors = (
{
name = bottom;
pos = (270,0);
},
{
name = top;
pos = (403,625);
}
);
hints = (
{
horizontal = 1;
place = (-10,85);
type = Stem;
},
{
horizontal = 1;
place = (597,80);
type = Stem;
},
{
place = (-33,110);
type = Stem;
}
);
layerId = m002;
shapes = (
{
closed = 1;
nodes = (
(371,-25,o),
(504,100,o),
(548,305,cs),
(579,451,ls),
(581,463,o),
(586,486,o),
(605,486,cs),
(619,486,ls),
(652,486,o),
(680,526,o),
(690,575,cs),
(701,628,o),
(671,667,o),
(620,667,cs),
(359,667,ls),
(306,667,o),
(256,626,o),
(244,572,cs),
(232,516,o),
(269,471,o),
(328,480,cs),
(347,483,o),
(366,486,o),
(376,486,cs),
(386,486,o),
(381,462,o),
(378,450,cs),
(348,305,ls),
(323,187,o),
(300,165,o),
(228,165,cs),
(203,165,o),
(177,176,o),
(149,184,cs),
(100,198,o),
(45,165,o),
(15,122,cs),
(-21,72,o),
(-9,9,o),
(43,-7,cs),
(89,-22,o),
(142,-25,o),
(187,-25,cs)
);
}
);
width = 670;
},
{
anchors = (
{
name = bottom;
pos = (247,0);
},
{
name = top;
pos = (380,625);
}
);
hints = (
{
horizontal = 1;
place = (-10,85);
type = Stem;
},
{
horizontal = 1;
place = (597,80);
type = Stem;
},
{
place = (-35,110);
type = Stem;
}
);
layerId = m003;
shapes = (
{
closed = 1;
nodes = (
(302,-7,o),
(403,87,o),
(441,263,cs),
(510,591,ls),
(512,600,o),
(520,606,o),
(529,606,cs),
(546,606,ls),
(564,606,o),
(576,617,o),
(580,635,cs),
(584,656,o),
(576,667,o),
(557,667,cs),
(321,667,ls),
(300,667,o),
(284,654,o),
(279,632,cs),
(275,611,o),
(286,596,o),
(307,599,cs),
(343,604,o),
(384,606,o),
(419,606,cs),
(428,606,o),
(432,600,o),
(430,591,cs),
(361,263,ls),
(331,121,o),
(268,63,o),
(168,63,cs),
(132,63,o),
(99,76,o),
(73,84,cs),
(51,91,o),
(28,70,o),
(16,54,cs),
(2,34,o),
(6,14,o),
(26,9,cs),
(65,-4,o),
(109,-7,o),
(153,-7,cs)
);
}
);
width = 616;
}
);
metricLeft = "=O/4";
metricRight = "=I";
note = C;
unicode = 74;
userData = {
KernOnName = J;
};
},
{
glyphname = K;
kernLeft = KO_N;
kernRight = KO_K;
lastChange = "2025-01-03 22:26:44 +0000";
layers = (
{
anchors = (
{
name = bottom;
pos = (193,0);
},
{
name = top;
pos = (326,625);
}
);
hints = (
{
horizontal = 1;
place = (0,21);
target = up;
type = BottomGhost;
},
{
horizontal = 1;
place = (282,67);
type = Stem;
},
{
horizontal = 1;
place = (598,69);
type = Stem;
},
{
place = (-2,100);
type = Stem;
},
{
place = (334,99);
type = Stem;
}
);
layerId = m005;
shapes = (
{
closed = 1;
nodes = (
(58,0,o),
(96,20,o),
(100,49,cs),
(109,107,o),
(120,165,o),
(130,223,cs),
(131,228,o),
(133,232,o),
(137,236,cs),
(158,259,o),
(179,281,o),
(201,303,cs),
(206,308,o),
(211,309,o),
(215,305,cs),
(242,286,o),
(331,209,o),
(321,40,cs),
(320,16,o),
(344,0,o),
(369,0,cs),
(402,0,o),
(442,28,o),
(442,62,cs),
(436,238,o),
(322,339,o),
(281,369,cs),
(276,373,o),
(276,378,o),
(282,383,cs),
(352,452,o),
(422,517,o),
(501,592,cs),
(532,621,o),
(526,652,o),
(510,665,cs),
(490,681,o),
(460,675,o),
(426,640,cs),
(343,553,o),
(257,465,o),
(173,378,cs),
(165,371,o),
(160,373,o),
(162,382,cs),
(212,618,ls),
(218,647,o),
(201,667,o),
(170,667,cs),
(142,667,o),
(106,646,o),
(101,618,cs),
(70,428,o),
(30,239,o),
(-20,49,cs),
(-27,21,o),
(0,0,o),
(28,0,cs)
);
}
);
width = 484;
},
{
anchors = (
{
name = bottom;
pos = (280,0);
},
{
name = top;
pos = (413,625);
}
);
hints = (
{
horizontal = 1;
place = (0,21);
target = up;
type = BottomGhost;
},
{
horizontal = 1;
place = (282,67);
type = Stem;
},
{
horizontal = 1;
place = (598,69);
type = Stem;
},
{
place = (-2,100);
type = Stem;
},
{
place = (334,99);
type = Stem;
}
);
layerId = m002;
shapes = (
{
closed = 1;
nodes = (
(172,-25,o),
(237,18,o),
(246,77,cs),
(255,134,o),
(253,136,o),
(264,194,cs),
(263,191,o),
(267,209,o),
(271,220,cs),
(274,226,o),
(279,233,o),
(287,237,cs),
(295,241,o),
(302,241,o),
(318,226,c),
(334,206,o),
(376,162,o),
(366,57,cs),
(360,-3,o),
(404,-25,o),
(454,-25,cs),
(519,-25,o),
(589,33,o),
(589,99,cs),
(582,293,o),
(490,350,o),
(458,373,cs),
(452,377,o),
(445,386,o),
(456,399,cs),
(499,447,o),
(537,459,o),
(617,535,cs),
(672,586,o),
(669,651,o),
(631,681,cs),
(593,711,o),
(533,703,o),
(478,645,cs),
(394,559,o),
(365,535,o),
(343,516,cs),
(331,506,o),
(330,516,o),
(332,525,cs),
(347,593,ls),
(359,650,o),
(325,692,o),
(269,692,cs),
(209,692,o),
(145,648,o),
(135,591,cs),
(105,402,o),
(76,265,o),
(26,76,cs),
(12,19,o),
(56,-25,o),
(113,-25,cs)
);
}
);
width = 651;
},
{
anchors = (
{
name = bottom;
pos = (221,0);
},
{
name = top;
pos = (354,625);
}
);
hints = (
{
horizontal = 1;
place = (0,21);
target = up;
type = BottomGhost;
},
{
horizontal = 1;
place = (282,67);
type = Stem;
},
{
horizontal = 1;
place = (598,69);
type = Stem;
},
{
place = (-2,100);
type = Stem;
},
{
place = (334,99);
type = Stem;
}
);
layerId = m003;
shapes = (
{
closed = 1;
nodes = (
(74,0,o),
(104,15,o),
(106,38,cs),
(116,97,o),
(128,165,o),
(139,223,cs),
(140,229,o),
(144,236,o),
(149,242,cs),
(171,265,o),
(200,295,o),
(222,318,cs),
(226,322,o),
(231,322,o),
(237,318,cs),
(266,299,o),
(358,204,o),
(348,32,cs),
(347,12,o),
(366,0,o),
(386,0,cs),
(417,0,o),
(449,22,o),
(448,50,cs),
(443,222,o),
(322,337,o),
(283,368,cs),
(277,372,o),
(279,375,o),
(284,380,cs),
(349,448,o),
(438,534,o),
(516,608,cs),
(542,633,o),
(538,655,o),
(523,667,cs),
(507,680,o),
(485,676,o),
(454,644,cs),
(371,557,o),
(267,444,o),
(182,357,cs),
(166,342,o),
(164,351,o),
(168,369,cs),
(223,628,ls),
(228,653,o),
(216,667,o),
(189,667,cs),
(164,667,o),
(136,651,o),
(132,628,cs),
(101,438,o),
(57,229,o),
(7,39,cs),
(1,16,o),
(22,0,o),
(47,0,cs)
);
}
);
width = 534;
}
);
metricLeft = "=H";
metricRight = "=H/4";
note = P;
unicode = 75;
},
{
glyphname = L;
kernLeft = KO_N;
kernRight = KO_L;
lastChange = "2025-01-03 22:26:44 +0000";
layers = (
{
anchors = (
{
name = bottom;
pos = (138,0);
},
{
name = center;
pos = (209,334);
},
{
name = top;
pos = (271,625);
},
{
name = topright;
pos = (372,667);
}
);
hints = (
{
horizontal = 1;
place = (0,75);
type = Stem;
},
{
horizontal = 1;
place = (305,74);
type = Stem;
},
{
horizontal = 1;
place = (592,75);
type = Stem;
},
{
place = (-1,100);
type = Stem;
}
);
layerId = m005;
shapes = (
{
closed = 1;
nodes = (
(281,0,ls),
(316,0,o),
(344,19,o),
(349,44,cs),
(355,71,o),
(338,104,o),
(302,100,cs),
(234,92,o),
(164,81,o),
(97,80,cs),
(91,80,o),
(88,84,o),
(89,90,cs),
(127,266,o),
(164,442,o),
(211,618,cs),
(220,649,o),
(204,667,o),
(171,667,cs),
(140,667,o),
(106,649,o),
(101,618,cs),
(71,428,o),
(31,239,o),
(-19,49,cs),
(-28,18,o),
(-2,0,o),
(29,0,cs)
);
}
);
width = 401;
},
{
anchors = (
{
name = bottom;
pos = (208,0);
},
{
name = center;
pos = (279,334);
},
{
name = top;
pos = (341,625);
},
{
name = topright;
pos = (442,667);
}
);
hints = (
{
horizontal = 1;
place = (0,75);
type = Stem;
},
{
horizontal = 1;
place = (305,74);
type = Stem;
},
{
horizontal = 1;
place = (592,75);
type = Stem;
},
{
place = (-4,100);
type = Stem;
}
);
layerId = m002;
shapes = (
{
closed = 1;
nodes = (
(366,0,ls),
(429,0,o),
(484,41,o),
(495,94,cs),
(508,151,o),
(469,207,o),
(403,200,cs),
(367,196,o),
(322,191,o),
(287,187,cs),
(253,183,o),
(248,201,o),
(255,235,cs),
(283,365,o),
(303,448,o),
(341,590,cs),
(358,650,o),
(324,692,o),
(264,692,cs),
(203,692,o),
(140,651,o),
(131,590,cs),
(101,402,o),
(77,290,o),
(27,102,cs),
(10,41,o),
(55,0,o),
(114,0,cs)
);
}
);
width = 549;
},
{
anchors = (
{
name = bottom;
pos = (169,0);
},
{
name = center;
pos = (240,334);
},
{
name = top;
pos = (302,625);
},
{
name = topright;
pos = (403,667);
}
);
hints = (
{
horizontal = 1;
place = (0,75);
type = Stem;
},
{
horizontal = 1;
place = (305,74);
type = Stem;
},
{
horizontal = 1;
place = (592,75);
type = Stem;
},
{
place = (-2,100);
type = Stem;
}
);
layerId = m003;
shapes = (
{
closed = 1;
nodes = (
(300,0,ls),
(332,0,o),
(352,14,o),
(357,34,cs),
(362,58,o),
(348,83,o),
(318,80,cs),
(246,72,o),
(171,60,o),
(99,60,cs),
(94,60,o),
(93,62,o),
(94,67,cs),
(132,247,o),
(176,455,o),
(225,636,cs),
(232,662,o),
(221,674,o),
(192,674,cs),
(164,674,o),
(138,661,o),
(135,636,cs),
(104,445,o),
(58,229,o),
(7,38,cs),
(0,13,o),
(20,0,o),
(48,0,cs)
);
}
);
width = 421;
}
);
metricLeft = "=H";
note = E;
unicode = 76;
userData = {
KernOnName = L;
};
},
{
glyphname = Lslash;
kernRight = KO_Lslash;
lastChange = "2025-01-03 22:30:49 +0000";
layers = (
{
hints = (
{
horizontal = 1;
place = (-10,80);
type = Stem;
},
{
horizontal = 1;
place = (597,80);
type = Stem;
},
{
place = (35,110);
type = Stem;
},
{
place = (425,110);
type = Stem;
}
);
layerId = m005;
shapes = (
{
pos = (57,0);
ref = L;
},
{
closed = 1;
nodes = (
(167,398,o),
(92,336,o),
(-6,264,cs),
(-28,247,o),
(-34,216,o),
(-20,198,cs),
(-19,197,ls),
(-5,180,o),
(15,178,o),
(36,197,cs),
(113,269,o),
(211,341,o),
(308,413,cs),
(331,430,o),
(334,451,o),
(320,469,cs),
(319,470,ls),
(305,487,o),
(276,488,o),
(254,470,cs)
);
}
);
width = 458;
},
{
hints = (
{
horizontal = 1;
place = (-10,80);
type = Stem;
},
{
horizontal = 1;
place = (597,80);
type = Stem;
},
{
place = (35,110);
type = Stem;
},
{
place = (425,110);
type = Stem;
}
);
layerId = m002;
shapes = (
{
pos = (51,0);
ref = L;
},
{
closed = 1;
nodes = (
(237,416,o),
(162,354,o),
(65,283,cs),
(32,258,o),
(19,210,o),
(42,180,c),
(44,179,l),
(69,149,o),
(106,154,o),
(136,181,cs),
(212,251,o),
(307,322,o),
(405,394,cs),
(436,418,o),
(450,455,o),
(426,487,c),
(424,488,l),
(400,517,o),
(354,513,o),
(324,488,cs)
);
}
);
width = 600;
},
{
hints = (
{
horizontal = 1;
place = (-10,80);
type = Stem;
},
{
horizontal = 1;
place = (597,80);
type = Stem;
},
{
place = (35,110);
type = Stem;
},
{
place = (425,110);
type = Stem;
}
);
layerId = m003;
shapes = (
{
pos = (99,0);
ref = L;
},
{
closed = 1;
nodes = (
(230,396,o),
(155,334,o),
(58,262,cs),
(37,246,o),
(31,217,o),
(45,200,cs),
(46,199,ls),
(59,183,o),
(77,181,o),
(97,199,cs),
(174,271,o),
(271,343,o),
(368,415,cs),
(390,431,o),
(393,450,o),
(379,467,cs),
(379,468,ls),
(365,484,o),
(338,485,o),
(318,468,cs)
);
}
);
width = 520;
}
);
metricRight = "=L";
note = O;
unicode = 321;
},
{
glyphname = M;
kernLeft = KO_M;
kernRight = KO_M;
lastChange = "2025-01-03 22:26:44 +0000";
layers = (
{
hints = (
{
horizontal = 1;
place = (0,21);
target = up;
type = BottomGhost;
},
{
place = (-36,724);
type = Stem;
},
{
horizontal = 1;
place = (0,150);
type = Stem;
}
);
layerId = m005;
shapes = (
{
closed = 1;
nodes = (
(276,274,o),
(280,120,o),
(277,48,cs),
(276,19,o),
(294,0,o),
(323,0,cs),
(354,0,o),
(380,19,o),
(392,48,cs),
(427,137,o),
(504,306,o),
(615,534,cs),
(617,540,o),
(626,540,o),
(626,535,cs),
(626,440,o),
(602,246,o),
(561,52,cs),
(554,19,o),
(582,0,o),
(615,0,cs),
(646,0,o),
(677,19,o),
(680,52,cs),
(703,290,o),
(706,503,o),
(700,622,cs),
(698,650,o),
(673,667,o),
(645,667,cs),
(615,667,o),
(580,649,o),
(568,621,cs),
(493,449,o),
(419,293,o),
(367,178,cs),
(365,173,o),
(357,173,o),
(357,178,cs),
(353,293,o),
(347,449,o),
(344,621,cs),
(344,649,o),
(317,667,o),
(287,667,cs),
(259,667,o),
(226,650,o),
(212,622,cs),
(156,503,o),
(69,290,o),
(-10,52,cs),
(-21,19,o),
(2,0,o),
(34,0,cs),
(66,0,o),
(99,17,o),
(105,48,cs),
(154,268,o),
(208,441,o),
(250,537,cs),
(253,543,o),
(260,542,o),
(261,536,cs)
);
}
);
width = 730;
},
{
hints = (
{
horizontal = 1;
place = (0,21);
target = up;
type = BottomGhost;
},
{
place = (-36,724);
type = Stem;
},
{
horizontal = 1;
place = (0,150);
type = Stem;
}
);
layerId = m002;
shapes = (
{
closed = 1;
nodes = (
(317,160,o),
(313,108,o),
(312,64,cs),
(310,12,o),
(345,-25,o),
(398,-25,cs),
(453,-25,o),
(502,11,o),
(525,63,cs),
(544,111,o),
(563,166,o),
(614,255,cs),
(624,271,o),
(630,268,o),
(628,255,cs),
(620,198,o),
(611,146,o),
(596,77,cs),
(584,16,o),
(629,-25,o),
(690,-25,cs),
(751,-25,o),
(810,20,o),
(817,83,cs),
(839,323,o),
(832,490,o),
(826,610,cs),
(822,660,o),
(780,692,o),
(730,692,cs),
(676,692,o),
(618,658,o),
(596,607,cs),
(559,521,o),
(536,459,o),
(492,388,cs),
(488,382,o),
(482,382,o),
(482,388,cs),
(468,459,o),
(471,521,o),
(470,607,cs),
(470,658,o),
(426,692,o),
(372,692,cs),
(322,692,o),
(266,660,o),
(242,610,cs),
(184,490,o),
(107,323,o),
(27,83,cs),
(6,20,o),
(47,-25,o),
(109,-25,cs),
(169,-25,o),
(228,14,o),
(241,73,cs),
(259,153,o),
(273,207,o),
(290,268,cs),
(294,280,o),
(302,280,o),
(303,268,cs)
);
}
);
width = 745;
},
{
hints = (
{
horizontal = 1;
place = (0,21);
target = up;
type = BottomGhost;
},
{
place = (-36,724);
type = Stem;
},
{
horizontal = 1;
place = (0,150);
type = Stem;
}
);
layerId = m003;
shapes = (
{
closed = 1;
nodes = (
(381,291,o),
(383,116,o),
(381,40,cs),
(379,14,o),
(393,0,o),
(418,0,cs),
(445,0,o),
(465,14,o),
(476,40,cs),
(514,134,o),
(601,337,o),
(722,586,cs),
(724,591,o),
(731,592,o),
(731,587,cs),
(740,515,o),
(712,269,o),
(664,42,cs),
(658,15,o),
(680,0,o),
(710,0,cs),
(738,0,o),
(760,14,o),
(763,41,cs),
(785,278,o),
(793,511,o),
(787,629,cs),
(785,653,o),
(765,667,o),
(738,667,cs),
(713,667,o),
(685,653,o),
(675,629,cs),
(589,435,o),
(498,247,o),
(452,125,cs),
(449,117,o),
(439,117,o),
(440,125,cs),
(446,247,o),
(435,435,o),
(431,629,cs),
(431,653,o),
(409,667,o),
(382,667,cs),
(357,667,o),
(331,653,o),
(319,629,cs),
(263,511,o),
(171,278,o),
(93,41,cs),
(84,14,o),
(100,0,o),
(129,0,cs),
(158,0,o),
(183,13,o),
(188,38,cs),
(244,291,o),
(311,500,o),
(357,588,cs),
(359,593,o),
(366,592,o),
(366,587,cs)
);
}
);
width = 756;
}
);
metricLeft = "=V";
metricRight = "=V";
note = W;
unicode = 77;
userData = {
KernOnName = M;
};
},
{
glyphname = N;
kernLeft = KO_N;
kernRight = KO_N;
lastChange = "2025-01-03 22:26:44 +0000";
layers = (
{
anchors = (
{
name = bottom;
pos = (218,0);
},
{
name = top;
pos = (351,625);
}
);
hints = (
{
horizontal = 1;
place = (0,21);
target = up;
type = BottomGhost;
},
{
place = (-2,100);
type = Stem;
},
{
place = (381,97.5);
type = Stem;
}
);
layerId = m005;
shapes = (
{
closed = 1;
nodes = (
(402,0,o),
(436,28,o),
(444,67,cs),
(483,251,o),
(524,444,o),
(574,628,cs),
(581,656,o),
(553,677,o),
(523,677,cs),
(495,677,o),
(457,656,o),
(454,628,cs),
(432,484,o),
(409,373,o),
(380,234,cs),
(377,223,o),
(370,221,o),
(368,232,cs),
(345,386,o),
(281,555,o),
(240,626,cs),
(223,655,o),
(203,667,o),
(177,667,cs),
(146,667,o),
(104,639,o),
(98,600,cs),
(68,416,o),
(30,233,o),
(-20,49,cs),
(-27,21,o),
(1,0,o),
(29,0,cs),
(59,0,o),
(97,21,o),
(100,49,cs),
(123,200,o),
(150,331,o),
(182,481,cs),
(183,486,o),
(190,488,o),
(192,484,cs),
(230,401,o),
(251,341,o),
(312,39,cs),
(317,15,o),
(335,0,o),
(360,0,cs)
);
}
);
width = 562;
},
{
anchors = (
{
name = bottom;
pos = (295,0);
},
{
name = top;
pos = (437,667);
}
);
hints = (
{
horizontal = 1;
place = (0,21);
target = up;
type = BottomGhost;
},
{
place = (-2,100);
type = Stem;
},
{
place = (381,97.5);
type = Stem;
}
);
layerId = m002;
shapes = (
{
closed = 1;
nodes = (
(515,-25,o),
(575,25,o),
(590,92,cs),
(629,276,o),
(659,418,o),
(708,600,cs),
(724,658,o),
(677,702,o),
(618,702,cs),
(561,702,o),
(496,658,o),
(488,600,cs),
(479,544,o),
(473,492,o),
(462,443,cs),
(460,432,o),
(453,435,o),
(451,440,cs),
(424,521,o),
(394,591,o),
(370,632,cs),
(345,677,o),
(309,692,o),
(272,692,cs),
(212,692,o),
(143,640,o),
(132,572,cs),
(103,390,o),
(75,259,o),
(26,77,cs),
(10,19,o),
(57,-25,o),
(114,-25,cs),
(173,-25,o),
(238,19,o),
(246,77,cs),
(258,157,o),
(271,233,o),
(287,308,cs),
(289,320,o),
(297,319,o),
(299,311,cs),
(316,254,o),
(332,169,o),
(358,45,cs),
(366,2,o),
(400,-25,o),
(445,-25,cs)
);
}
);
width = 678;
},
{
anchors = (
{
name = bottom;
pos = (249,0);
},
{
name = top;
pos = (391,667);
}
);
hints = (
{
horizontal = 1;
place = (0,21);
target = up;
type = BottomGhost;
},
{
place = (-2,100);
type = Stem;
},
{
place = (381,97.5);
type = Stem;
}
);
layerId = m003;
shapes = (
{
closed = 1;
nodes = (
(417,0,o),
(444,22,o),
(451,57,cs),
(491,241,o),
(535,451,o),
(585,636,cs),
(591,658,o),
(569,674,o),
(542,674,cs),
(517,674,o),
(487,658,o),
(485,636,cs),
(460,467,o),
(431,339,o),
(394,162,cs),
(392,152,o),
(383,149,o),
(381,160,cs),
(355,329,o),
(290,548,o),
(252,630,cs),
(238,659,o),
(220,667,o),
(196,667,cs),
(168,667,o),
(134,644,o),
(129,611,cs),
(100,426,o),
(57,223,o),
(7,38,cs),
(1,16,o),
(23,0,o),
(48,0,cs),
(75,0,o),
(105,16,o),
(107,38,cs),
(131,200,o),
(165,358,o),
(200,521,cs),
(201,526,o),
(209,529,o),
(211,524,cs),
(253,415,o),
(287,285,o),
(339,33,cs),
(344,11,o),
(357,0,o),
(379,0,cs)
);
}
);
width = 582;
}
);
metricLeft = "=H";
metricRight = "=H";
note = N;
unicode = 78;
userData = {
KernOnName = N;
};
},
{
glyphname = O;
kernLeft = KO_O;
kernRight = KO_O;
lastChange = "2025-01-03 22:26:37 +0000";
layers = (
{
anchors = (
{
name = bottom;
pos = (214,0);
},
{
name = center;
pos = (285,334);
},
{
name = ogonek;
pos = (444,10);
},
{
name = top;
pos = (347,625);
},
{
name = topleft;
pos = (91,667);
},
{
name = topright;
pos = (621,667);
}
);
hints = (
{
horizontal = 1;
place = (-10,80);
type = Stem;
},
{
horizontal = 1;
place = (597,80);
type = Stem;
},
{
place = (-36,110);
type = Stem;
},
{
place = (354,110);
type = Stem;
}
);
layerId = m005;
shapes = (
{
closed = 1;
nodes = (
(533,347,cs),
(572,530,o),
(512,677,o),
(358,677,cs),
(204,677,o),
(84,539,o),
(43,347,cs),
(-7,110,o),
(36,-21,o),
(222,-10,cs),
(388,0,o),
(483,110,o)
);
},
{
closed = 1;
nodes = (
(143,347,ls),
(172,483,o),
(246,597,o),
(341,597,cs),
(436,597,o),
(462,483,o),
(433,347,cs),
(427,320,ls),
(394,163,o),
(328,90,o),
(231,80,cs),
(135,70,o),
(104,163,o),
(137,320,cs)
);
}
);
width = 570;
},
{
anchors = (
{
name = bottom;
pos = (214,0);
},
{
name = center;
pos = (285,334);
},
{
name = ogonek;
pos = (444,10);
},
{
name = top;
pos = (347,625);
},
{
name = topleft;
pos = (91,667);
},
{
name = topright;
pos = (621,667);
}
);
hints = (
{
horizontal = 1;
place = (-10,80);
type = Stem;
},
{
horizontal = 1;
place = (597,80);
type = Stem;
},
{
place = (-36,110);
type = Stem;
},
{
place = (354,110);
type = Stem;
}
);
layerId = m002;
shapes = (
{
closed = 1;
nodes = (
(583,347,cs),
(619,516,o),
(549,690,o),
(364,692,cs),
(178,694,o),
(32,529,o),
(-7,347,cs),
(-55,123,o),
(-2,-38,o),
(222,-25,cs),
(419,-13,o),
(536,124,o)
);
},
{
closed = 1;
nodes = (
(193,347,ls),
(212,438,o),
(261,512,o),
(323,512,cs),
(385,512,o),
(402,438,o),
(383,347,cs),
(377,320,ls),
(354,213,o),
(318,172,o),
(244,165,cs),
(182,158,o),
(164,211,o),
(187,320,cs)
);
}
);
width = 570;
},
{
anchors = (
{
name = bottom;
pos = (214,0);
},
{
name = center;
pos = (285,334);
},
{
name = ogonek;
pos = (444,10);
},
{
name = top;
pos = (347,625);
},
{
name = topleft;
pos = (91,667);
},
{
name = topright;
pos = (621,667);
}
);
hints = (
{
horizontal = 1;
place = (-10,80);
type = Stem;
},
{
horizontal = 1;
place = (597,80);
type = Stem;
},
{
place = (-36,110);
type = Stem;
},
{
place = (354,110);
type = Stem;
}
);
layerId = m003;
shapes = (
{
closed = 1;
nodes = (
(523,347,cs),
(563,534,o),
(505,674,o),
(356,674,cs),
(208,674,o),
(95,543,o),
(53,347,cs),
(2,106,o),
(42,-18,o),
(222,-7,cs),
(383,3,o),
(472,106,o)
);
},
{
closed = 1;
nodes = (
(133,347,ls),
(164,493,o),
(242,614,o),
(345,614,cs),
(448,614,o),
(474,493,o),
(443,347,cs),
(437,320,ls),
(401,152,o),
(332,74,o),
(229,63,cs),
(124,52,o),
(91,151,o),
(127,320,cs)
);
}
);
width = 570;
}
);
note = O;
unicode = 79;
userData = {
KernOnName = O;
};
},
{
glyphname = Oslash;
kernLeft = KO_O;
kernRight = KO_O;
lastChange = "2024-12-25 18:47:36 +0000";
layers = (
{
hints = (
{
horizontal = 1;
place = (-10,80);
type = Stem;
},
{
horizontal = 1;
place = (597,80);
type = Stem;
},
{
place = (35,110);
type = Stem;
},
{
place = (425,110);
type = Stem;
}
);
layerId = m005;
shapes = (
{
closed = 1;
nodes = (
(140,-35,o),
(168,-19,o),
(177,3,cs),
(265,213,o),
(363,423,o),
(471,633,cs),
(482,654,o),
(465,671,o),
(444,681,cs),
(441,682,ls),
(420,692,o),
(403,686,o),
(393,664,cs),
(295,454,o),
(197,244,o),
(89,34,cs),
(78,13,o),
(95,-14,o),
(116,-24,cs),
(119,-25,ls)
);
},
{
ref = O;
}
);
width = 570;
},
{
hints = (
{
horizontal = 1;
place = (-10,80);
type = Stem;
},
{
horizontal = 1;
place = (597,80);
type = Stem;
},
{
place = (35,110);
type = Stem;
},
{
place = (425,110);
type = Stem;
}
);
layerId = m002;
shapes = (
{
closed = 1;
nodes = (
(147,-91,o),
(208,-64,o),
(223,-16,cs),
(286,193,o),
(388,401,o),
(515,610,cs),
(542,654,o),
(517,703,o),
(462,728,cs),
(459,729,ls),
(414,748,o),
(365,733,o),
(348,685,cs),
(275,475,o),
(177,266,o),
(45,57,cs),
(17,12,o),
(49,-49,o),
(98,-71,cs),
(101,-72,ls)
);
},
{
ref = O;
}
);
width = 570;
},
{
hints = (
{
horizontal = 1;
place = (-10,80);
type = Stem;
},
{
horizontal = 1;
place = (597,80);
type = Stem;
},
{
place = (35,110);
type = Stem;
},
{
place = (425,110);
type = Stem;
}
);
layerId = m003;
shapes = (
{
closed = 1;
nodes = (
(140,-31,o),
(166,-17,o),
(174,4,cs),
(262,214,o),
(360,424,o),
(468,634,cs),
(478,653,o),
(463,669,o),
(443,678,cs),
(440,679,ls),
(420,689,o),
(405,683,o),
(396,663,cs),
(298,453,o),
(200,243,o),
(92,33,cs),
(82,13,o),
(97,-12,o),
(117,-21,cs),
(120,-22,ls)
);
},
{
ref = O;
}
);
width = 570;
}
);
note = O;
unicode = 216;
},
{
glyphname = OE;
kernLeft = KO_O;
kernRight = KO_E;
lastChange = "2025-01-03 22:29:10 +0000";
layers = (
{
hints = (
{
horizontal = 1;
place = (0,75);
type = Stem;
},
{
horizontal = 1;
place = (305,74);
type = Stem;
},
{
horizontal = 1;
place = (592,75);
type = Stem;
},
{
place = (35,110);
type = Stem;
},
{
place = (425,100);
type = Stem;
},
{
horizontal = 1;
place = (-10,80);
type = Stem;
},
{
horizontal = 1;
place = (597,80);
type = Stem;
}
);
layerId = m005;
shapes = (
{
pos = (337,0);
ref = E;
},
{
closed = 1;
nodes = (
(388,0,o),
(433,110,o),
(483,347,cs),
(522,530,o),
(512,677,o),
(358,677,cs),
(204,677,o),
(84,539,o),
(43,347,cs),
(-7,110,o),
(36,-21,o),
(222,-10,cs)
);
},
{
closed = 1;
nodes = (
(143,347,ls),
(172,483,o),
(246,597,o),
(341,597,cs),
(436,597,o),
(462,483,o),
(433,347,cs),
(427,320,ls),
(394,163,o),
(328,90,o),
(231,80,cs),
(135,70,o),
(104,163,o),
(137,320,cs)
);
}
);
width = 847;
},
{
hints = (
{
horizontal = 1;
place = (0,75);
type = Stem;
},
{
horizontal = 1;
place = (305,74);
type = Stem;
},
{
horizontal = 1;
place = (592,75);
type = Stem;
},
{
place = (35,110);
type = Stem;
},
{
place = (425,100);
type = Stem;
},
{
horizontal = 1;
place = (-10,80);
type = Stem;
},
{
horizontal = 1;
place = (597,80);
type = Stem;
}
);
layerId = m002;
shapes = (
{
pos = (338,0);
ref = E;
},
{
closed = 1;
nodes = (
(420,-13,o),
(486,124,o),
(533,347,cs),
(569,516,o),
(549,690,o),
(364,692,cs),
(178,694,o),
(32,529,o),
(-7,347,cs),
(-55,123,o),
(-2,-38,o),
(222,-25,cs)
);
},
{
closed = 1;
nodes = (
(193,347,ls),
(212,438,o),
(261,512,o),
(323,512,cs),
(385,512,o),
(402,438,o),
(383,347,cs),
(377,320,ls),
(355,213,o),
(318,172,o),
(244,165,cs),
(182,158,o),
(164,211,o),
(187,320,cs)
);
}
);
width = 914;
},
{
hints = (
{
horizontal = 1;
place = (0,75);
type = Stem;
},
{
horizontal = 1;
place = (305,74);
type = Stem;
},
{
horizontal = 1;
place = (592,75);
type = Stem;
},
{
place = (35,110);
type = Stem;
},
{
place = (425,100);
type = Stem;
},
{
horizontal = 1;
place = (-10,80);
type = Stem;
},
{
horizontal = 1;
place = (597,80);
type = Stem;
}
);
layerId = m003;
shapes = (
{
pos = (363,0);
ref = E;
},
{
closed = 1;
nodes = (
(383,3,o),
(422,106,o),
(473,347,c),
(513,534,o),
(506,674,o),
(357,674,cs),
(209,674,o),
(95,543,o),
(53,347,cs),
(2,106,o),
(42,-18,o),
(222,-7,cs)
);
},
{
closed = 1;
nodes = (
(133,347,ls),
(164,493,o),
(242,614,o),
(345,614,cs),
(448,614,o),
(474,493,o),
(443,347,cs),
(437,320,ls),
(402,152,o),
(332,74,o),
(229,63,cs),
(124,52,o),
(91,151,o),
(127,320,cs)
);
}
);
width = 874;
}
);
metricLeft = "=O";
metricRight = "=E";
note = OE;
unicode = 338;
},
{
glyphname = P;
kernLeft = KO_N;
kernRight = KO_P;
lastChange = "2025-01-03 22:26:44 +0000";
layers = (
{
hints = (
{
horizontal = 1;
place = (0,21);
target = up;
type = BottomGhost;
},
{
horizontal = 1;
place = (282,67);
type = Stem;
},
{
horizontal = 1;
place = (598,69);
type = Stem;
},
{
place = (-2,100);
type = Stem;
},
{
place = (334,99);
type = Stem;
}
);
layerId = m005;
shapes = (
{
closed = 1;
nodes = (
(59,0,o),
(99,21,o),
(101,50,cs),
(108,125,o),
(122,199,o),
(138,274,cs),
(140,281,o),
(147,286,o),
(153,284,cs),
(169,282,o),
(197,277,o),
(223,277,cs),
(387,277,o),
(505,355,o),
(530,477,cs),
(556,599,o),
(481,677,o),
(318,677,cs),
(242,677,o),
(202,673,o),
(171,667,cs),
(144,662,o),
(104,646,o),
(100,617,cs),
(70,428,o),
(29,239,o),
(-20,50,cs),
(-27,21,o),
(0,0,o),
(29,0,cs)
);
},
{
closed = 1;
nodes = (
(237,597,o),
(270,597,o),
(302,597,cs),
(407,597,o),
(447,552,o),
(431,477,cs),
(415,402,o),
(355,357,o),
(251,357,cs),
(211,357,o),
(178,363,o),
(165,365,cs),
(160,366,o),
(158,370,o),
(159,375,cs),
(173,442,o),
(188,511,o),
(193,578,cs),
(193,584,o),
(197,588,o),
(202,589,cs)
);
}
);
width = 506;
},
{
hints = (
{
horizontal = 1;
place = (0,21);
target = up;
type = BottomGhost;
},
{
horizontal = 1;
place = (282,67);
type = Stem;
},
{
horizontal = 1;
place = (598,69);
type = Stem;
},
{
place = (-1,100);
type = Stem;
},
{
place = (335,99);
type = Stem;
}
);
layerId = m002;
shapes = (
{
closed = 1;
nodes = (
(175,-25,o),
(244,21,o),
(249,82,cs),
(251,128,o),
(257,158,o),
(265,200,cs),
(267,217,o),
(282,228,o),
(297,227,cs),
(299,227,o),
(301,227,o),
(303,227,cs),
(491,227,o),
(641,334,o),
(668,460,cs),
(703,627,o),
(600,692,o),
(412,692,cs),
(333,692,o),
(289,687,o),
(255,681,cs),
(202,671,o),
(141,636,o),
(133,579,cs),
(103,392,o),
(75,265,o),
(26,77,cs),
(12,19,o),
(57,-25,o),
(115,-25,cs)
);
},
{
closed = 1;
nodes = (
(358,512,o),
(366,512,o),
(375,512,cs),
(461,512,o),
(473,478,o),
(469,460,cs),
(464,435,o),
(438,407,o),
(353,407,cs),
(345,407,o),
(337,407,o),
(329,408,cs),
(316,409,o),
(309,419,o),
(312,433,cs),
(315,452,o),
(317,464,o),
(320,483,cs),
(322,499,o),
(335,512,o),
(349,512,cs)
);
}
);
width = 667;
},
{
hints = (
{
horizontal = 1;
place = (0,21);
target = up;
type = BottomGhost;
},
{
horizontal = 1;
place = (282,67);
type = Stem;
},
{
horizontal = 1;
place = (598,69);
type = Stem;
},
{
place = (-2,100);
type = Stem;
},
{
place = (334,99);
type = Stem;
}
);
layerId = m003;
shapes = (
{
closed = 1;
nodes = (
(75,0,o),
(106,16,o),
(108,39,cs),
(114,120,o),
(134,209,o),
(151,290,cs),
(152,295,o),
(157,298,o),
(161,297,cs),
(184,292,o),
(217,287,o),
(244,287,cs),
(405,287,o),
(516,364,o),
(541,481,cs),
(567,605,o),
(496,674,o),
(337,674,cs),
(262,674,o),
(222,670,o),
(192,664,cs),
(165,659,o),
(134,647,o),
(131,625,cs),
(101,435,o),
(56,229,o),
(7,40,cs),
(1,16,o),
(22,0,o),
(48,0,cs)
);
},
{
closed = 1;
nodes = (
(251,614,o),
(289,614,o),
(325,614,cs),
(436,614,o),
(480,568,o),
(462,481,cs),
(444,400,o),
(377,347,o),
(268,347,cs),
(228,347,o),
(190,353,o),
(169,358,cs),
(167,359,o),
(165,361,o),
(166,364,cs),
(182,440,o),
(199,521,o),
(205,595,cs),
(205,599,o),
(207,602,o),
(211,603,cs)
);
}
);
width = 545;
}
);
metricLeft = "=H";
metricRight = "=H/4";
note = P;
unicode = 80;
userData = {
KernOnName = P;
};
},
{
glyphname = Thorn;
lastChange = "2025-01-03 22:28:15 +0000";
layers = (
{
hints = (
{
horizontal = 1;
place = (0,21);
target = up;
type = BottomGhost;
},
{
horizontal = 1;
place = (140,67);
type = Stem;
},
{
horizontal = 1;
place = (456,69);
type = Stem;
},
{
place = (-1,100);
type = Stem;
},
{
place = (335,99);
type = Stem;
}
);
layerId = m005;
shapes = (
{
closed = 1;
nodes = (
(32,0,ls),
(63,0,o),
(85,18,o),
(92,49,cs),
(113,150,l),
(205,140,ls),
(364,123,o),
(476,218,o),
(502,340,cs),
(528,462,o),
(452,530,o),
(288,530,cs),
(193,530,l),
(211,618,ls),
(218,649,o),
(214,667,o),
(183,667,cs),
(181,667,ls),
(150,667,o),
(118,649,o),
(111,618,cs),
(71,428,o),
(31,239,o),
(-19,49,cs),
(-28,18,o),
(-2,0,o),
(29,0,cs)
);
},
{
closed = 1;
nodes = (
(272,450,ls),
(377,450,o),
(419,415,o),
(403,340,cs),
(387,265,o),
(328,219,o),
(224,225,cs),
(130,230,l),
(176,450,l)
);
}
);
width = 500;
},
{
hints = (
{
horizontal = 1;
place = (0,21);
target = up;
type = BottomGhost;
},
{
horizontal = 1;
place = (140,67);
type = Stem;
},
{
horizontal = 1;
place = (456,69);
type = Stem;
},
{
place = (-1,100);
type = Stem;
},
{
place = (335,99);
type = Stem;
}
);
layerId = m002;
shapes = (
{
closed = 1;
nodes = (
(117,-25,ls),
(176,-25,o),
(224,15,o),
(237,74,cs),
(246,119,l),
(285,115,ls),
(475,95,o),
(616,215,o),
(642,340,cs),
(669,467,o),
(573,555,o),
(383,555,cs),
(338,555,l),
(346,593,ls),
(362,669,o),
(321,692,o),
(278,692,cs),
(276,692,ls),
(217,692,o),
(159,652,o),
(146,593,cs),
(106,403,o),
(76,265,o),
(26,77,cs),
(10,17,o),
(53,-25,o),
(114,-25,cs)
);
},
{
closed = 1;
nodes = (
(346,375,ls),
(425,375,o),
(447,358,o),
(443,340,cs),
(439,320,o),
(408,296,o),
(333,300,cs),
(285,302,l),
(300,375,l)
);
}
);
width = 638;
},
{
hints = (
{
horizontal = 1;
place = (0,21);
target = up;
type = BottomGhost;
},
{
horizontal = 1;
place = (140,67);
type = Stem;
},
{
horizontal = 1;
place = (456,69);
type = Stem;
},
{
place = (-1,100);
type = Stem;
},
{
place = (335,99);
type = Stem;
}
);
layerId = m003;
shapes = (
{
closed = 1;
nodes = (
(57,-4,ls),
(86,-4,o),
(107,13,o),
(113,42,cs),
(137,153,l),
(232,143,ls),
(389,126,o),
(500,220,o),
(525,340,cs),
(551,460,o),
(476,527,o),
(313,527,cs),
(215,527,l),
(236,625,ls),
(242,655,o),
(239,671,o),
(210,671,cs),
(208,671,ls),
(178,671,o),
(148,654,o),
(142,625,cs),
(102,435,o),
(58,232,o),
(8,42,cs),
(0,13,o),
(24,-4,o),
(54,-4,cs)
);
},
{
closed = 1;
nodes = (
(298,453,ls),
(404,453,o),
(449,417,o),
(432,340,cs),
(416,263,o),
(354,216,o),
(249,222,cs),
(152,227,l),
(199,453,l)
);
}
);
width = 529;
}
);
metricLeft = "=P";
metricRight = "=P";
note = Thorn;
unicode = 222;
},
{
glyphname = Q;
kernLeft = KO_O;
kernRight = KO_O;
lastChange = "2025-01-03 22:26:44 +0000";
layers = (
{
anchors = (
{
name = bottom;
pos = (214,0);
},
{
name = center;
pos = (285,334);
},
{
name = ogonek;
pos = (444,10);
},
{
name = top;
pos = (347,625);
},
{
name = topleft;
pos = (91,667);
},
{
name = topright;
pos = (621,667);
}
);
hints = (
{
horizontal = 1;
place = (-200,70);
type = Stem;
},
{
horizontal = 1;
place = (-7,21);
target = up;
type = BottomGhost;
},
{
horizontal = 1;
place = (597,80);
type = Stem;
},
{
place = (-16,110);
type = Stem;
},
{
place = (374,110);
type = Stem;
},
{
horizontal = 1;
place = (-7,77);
type = Stem;
},
{
horizontal = 1;
place = (-10,80);
type = Stem;
},
{
horizontal = 1;
place = (597,80);
type = Stem;
},
{
place = (-16,110);
type = Stem;
},
{
place = (374,110);
type = Stem;
}
);
layerId = m005;
shapes = (
{
closed = 1;
nodes = (
(533,347,cs),
(572,530,o),
(512,677,o),
(358,677,cs),
(204,677,o),
(84,539,o),
(43,347,cs),
(-2,138,o),
(29,22,o),
(159,-4,cs),
(165,-6,o),
(167,-9,o),
(166,-15,cs),
(150,-116,o),
(203,-184,o),
(303,-198,cs),
(325,-200,o),
(344,-184,o),
(348,-163,cs),
(353,-143,o),
(342,-131,o),
(325,-127,cs),
(272,-117,o),
(247,-80,o),
(256,-18,cs),
(257,-11,o),
(260,-8,o),
(267,-7,cs),
(404,14,o),
(487,132,o)
);
},
{
closed = 1;
nodes = (
(143,347,ls),
(172,483,o),
(246,597,o),
(341,597,cs),
(436,597,o),
(462,483,o),
(433,347,cs),
(427,320,ls),
(394,163,o),
(328,90,o),
(231,80,cs),
(135,70,o),
(104,163,o),
(137,320,cs)
);
}
);
width = 570;
},
{
anchors = (
{
name = bottom;
pos = (214,0);
},
{
name = center;
pos = (285,334);
},
{
name = ogonek;
pos = (444,10);
},
{
name = top;
pos = (347,625);
},
{
name = topleft;
pos = (91,667);
},
{
name = topright;
pos = (621,667);
}
);
hints = (
{
horizontal = 1;
place = (-200,70);
type = Stem;
},
{
horizontal = 1;
place = (-7,21);
target = up;
type = BottomGhost;
},
{
horizontal = 1;
place = (597,80);
type = Stem;
},
{
place = (-12,110);
type = Stem;
},
{
place = (378,110);
type = Stem;
},
{
horizontal = 1;
place = (-7,77);
type = Stem;
},
{
horizontal = 1;
place = (-10,80);
type = Stem;
},
{
horizontal = 1;
place = (597,80);
type = Stem;
},
{
place = (-12,110);
type = Stem;
},
{
place = (378,110);
type = Stem;
}
);
layerId = m002;
shapes = (
{
closed = 1;
nodes = (
(583,347,cs),
(619,516,o),
(549,690,o),
(364,692,cs),
(178,694,o),
(32,529,o),
(-7,347,cs),
(-46,166,o),
(-17,35,o),
(109,-9,cs),
(114,-10,o),
(116,-14,o),
(115,-20,cs),
(97,-147,o),
(167,-234,o),
(294,-250,cs),
(343,-256,o),
(388,-214,o),
(398,-165,cs),
(409,-113,o),
(378,-88,o),
(333,-77,cs),
(308,-71,o),
(301,-56,o),
(305,-23,cs),
(305,-17,o),
(309,-13,o),
(316,-11,cs),
(456,30,o),
(543,161,o)
);
},
{
closed = 1;
nodes = (
(193,347,ls),
(212,438,o),
(261,512,o),
(323,512,cs),
(385,512,o),
(402,438,o),
(383,347,cs),
(377,320,ls),
(354,213,o),
(318,172,o),
(244,165,cs),
(182,159,o),
(164,211,o),
(187,320,cs)
);
}
);
width = 570;
},
{
anchors = (
{
name = bottom;
pos = (214,0);
},
{
name = center;
pos = (285,334);
},
{
name = ogonek;
pos = (444,10);
},
{
name = top;
pos = (347,625);
},
{
name = topleft;
pos = (91,667);
},
{
name = topright;
pos = (621,667);
}
);
hints = (
{
horizontal = 1;
place = (-200,70);
type = Stem;
},
{
horizontal = 1;
place = (-7,21);
target = up;
type = BottomGhost;
},
{
horizontal = 1;
place = (597,80);
type = Stem;
},
{
place = (-17,110);
type = Stem;
},
{
place = (373,110);
type = Stem;
},
{
horizontal = 1;
place = (-7,77);
type = Stem;
},
{
horizontal = 1;
place = (-10,80);
type = Stem;
},
{
horizontal = 1;
place = (597,80);
type = Stem;
},
{
place = (-17,110);
type = Stem;
},
{
place = (373,110);
type = Stem;
}
);
layerId = m003;
shapes = (
{
closed = 1;
nodes = (
(523,347,cs),
(563,534,o),
(506,674,o),
(357,674,cs),
(209,674,o),
(95,543,o),
(53,347,cs),
(7,129,o),
(37,16,o),
(174,-3,cs),
(178,-4,o),
(179,-6,o),
(179,-10,cs),
(166,-115,o),
(214,-176,o),
(306,-188,cs),
(321,-190,o),
(336,-178,o),
(339,-163,cs),
(342,-149,o),
(335,-140,o),
(323,-138,cs),
(268,-128,o),
(241,-88,o),
(249,-13,cs),
(249,-8,o),
(251,-6,o),
(256,-5,cs),
(395,11,o),
(476,124,o)
);
},
{
closed = 1;
nodes = (
(133,347,ls),
(164,493,o),
(242,614,o),
(345,614,cs),
(448,614,o),
(474,493,o),
(443,347,cs),
(437,320,ls),
(402,152,o),
(330,64,o),
(229,63,cs),
(126,62,o),
(91,151,o),
(127,320,cs)
);
}
);
width = 570;
}
);
metricLeft = "=O";
metricRight = "=O";
note = Q;
unicode = 81;
userData = {
KernOnName = Q;
};
},
{
glyphname = R;
kernLeft = KO_N;
kernRight = KO_R;
lastChange = "2025-01-03 22:26:44 +0000";
layers = (
{
anchors = (
{
name = bottom;
pos = (200,0);
},
{
name = top;
pos = (332,625);
}
);
hints = (
{
horizontal = 1;
place = (0,21);
target = up;
type = BottomGhost;
},
{
horizontal = 1;
place = (282,67);
type = Stem;
},
{
horizontal = 1;
place = (598,69);
type = Stem;
},
{
place = (-2,100);
type = Stem;
},
{
place = (334,99);
type = Stem;
}
);
layerId = m005;
shapes = (
{
closed = 1;
nodes = (
(59,0,o),
(97,21,o),
(100,49,cs),
(107,129,o),
(124,208,o),
(141,288,cs),
(142,295,o),
(148,299,o),
(155,298,cs),
(174,295,o),
(213,290,o),
(236,290,cs),
(243,290,o),
(245,289,o),
(246,288,cs),
(270,258,o),
(320,178,o),
(321,40,cs),
(321,16,o),
(346,0,o),
(369,0,cs),
(403,0,o),
(443,29,o),
(441,65,cs),
(437,205,o),
(374,274,o),
(346,298,cs),
(343,301,o),
(344,304,o),
(348,305,cs),
(440,334,o),
(499,398,o),
(517,484,cs),
(542,602,o),
(473,682,o),
(319,682,cs),
(247,682,o),
(194,673,o),
(170,667,cs),
(143,660,o),
(106,646,o),
(101,618,cs),
(70,428,o),
(30,239,o),
(-20,49,cs),
(-27,21,o),
(1,0,o),
(29,0,cs)
);
},
{
closed = 1;
nodes = (
(210,370,o),
(180,375,o),
(168,378,cs),
(164,379,o),
(162,383,o),
(163,387,cs),
(176,451,o),
(190,514,o),
(194,577,c),
(195,583,o),
(200,588,o),
(206,589,cs),
(224,591,o),
(265,597,o),
(302,597,cs),
(397,597,o),
(433,554,o),
(418,484,cs),
(403,413,o),
(349,370,o),
(254,370,cs)
);
}
);
width = 504;
},
{
anchors = (
{
name = bottom;
pos = (284,0);
},
{
name = top;
pos = (417,625);
}
);
hints = (
{
horizontal = 1;
place = (0,21);
target = up;
type = BottomGhost;
},
{
horizontal = 1;
place = (282,67);
type = Stem;
},
{
horizontal = 1;
place = (598,69);
type = Stem;
},
{
place = (-1,100);
type = Stem;
},
{
place = (335,99);
type = Stem;
}
);
layerId = m002;
shapes = (
{
closed = 1;
nodes = (
(174,-25,o),
(241,21,o),
(247,80,cs),
(251,132,o),
(257,166,o),
(266,213,cs),
(268,223,o),
(273,232,o),
(279,237,cs),
(284,240,o),
(288,241,o),
(293,241,cs),
(298,240,o),
(302,238,o),
(304,235,cs),
(347,179,o),
(366,131,o),
(366,55,cs),
(366,7,o),
(407,-25,o),
(454,-25,cs),
(521,-25,o),
(591,35,o),
(589,102,cs),
(587,178,o),
(567,232,o),
(540,273,cs),
(533,285,o),
(537,300,o),
(551,310,cs),
(605,350,o),
(641,403,o),
(654,464,cs),
(681,590,o),
(594,692,o),
(412,692,cs),
(336,692,o),
(275,682,o),
(250,675,cs),
(198,662,o),
(142,632,o),
(133,576,cs),
(102,387,o),
(76,265,o),
(26,76,cs),
(12,19,o),
(57,-25,o),
(114,-25,cs)
);
},
{
closed = 1;
nodes = (
(348,420,o),
(340,420,o),
(333,421,cs),
(320,421,o),
(313,432,o),
(316,446,cs),
(317,457,o),
(319,467,o),
(321,478,cs),
(322,493,o),
(333,505,o),
(349,506,cs),
(357,507,o),
(366,507,o),
(374,507,cs),
(449,507,o),
(461,493,o),
(455,464,cs),
(448,434,o),
(430,420,o),
(355,420,cs)
);
}
);
width = 643;
},
{
anchors = (
{
name = bottom;
pos = (229,0);
},
{
name = top;
pos = (361,625);
}
);
hints = (
{
horizontal = 1;
place = (0,21);
target = up;
type = BottomGhost;
},
{
horizontal = 1;
place = (282,67);
type = Stem;
},
{
horizontal = 1;
place = (598,69);
type = Stem;
},
{
place = (-2,100);
type = Stem;
},
{
place = (334,99);
type = Stem;
}
);
layerId = m003;
shapes = (
{
closed = 1;
nodes = (
(75,0,o),
(104,16,o),
(107,38,cs),
(115,123,o),
(135,217,o),
(153,303,cs),
(154,308,o),
(159,311,o),
(163,310,cs),
(194,305,o),
(234,300,o),
(257,300,cs),
(268,300,o),
(270,299,o),
(271,298,cs),
(293,271,o),
(348,179,o),
(348,32,cs),
(348,12,o),
(368,0,o),
(388,0,cs),
(418,0,o),
(449,23,o),
(448,53,cs),
(444,208,o),
(367,281,o),
(343,301,cs),
(341,303,o),
(342,307,o),
(346,308,cs),
(446,334,o),
(509,400,o),
(527,489,cs),
(554,613,o),
(488,682,o),
(338,682,cs),
(267,682,o),
(215,673,o),
(192,667,cs),
(165,661,o),
(135,649,o),
(132,628,cs),
(102,438,o),
(57,229,o),
(7,39,cs),
(1,16,o),
(23,0,o),
(48,0,cs)
);
},
{
closed = 1;
nodes = (
(225,360,o),
(189,366,o),
(173,372,c),
(171,372,o),
(169,375,o),
(170,378,cs),
(185,448,o),
(202,528,o),
(207,598,cs),
(206,602,o),
(210,606,o),
(214,606,c),
(243,611,o),
(289,617,o),
(326,617,cs),
(426,617,o),
(467,575,o),
(448,489,cs),
(432,412,o),
(371,360,o),
(271,360,cs)
);
}
);
width = 531;
}
);
metricLeft = "=H";
metricRight = "=H/2";
note = P;
unicode = 82;
userData = {
KernOnName = R;
};
},
{
glyphname = S;
kernLeft = KO_S;
kernRight = KO_S;
lastChange = "2025-01-03 22:26:44 +0000";
layers = (
{
anchors = (
{
name = bottom;
pos = (139,0);
},
{
name = top;
pos = (281,625);
}
);
hints = (
{
horizontal = 1;
place = (-10,85);
type = Stem;
},
{
horizontal = 1;
place = (597,80);
type = Stem;
},
{
place = (-30,90);
type = Stem;
},
{
place = (260,110);
type = Stem;
}
);
layerId = m005;
shapes = (
{
closed = 1;
nodes = (
(435,298,o),
(379,369,o),
(254,400,cs),
(185,416,o),
(157,448,o),
(168,500,cs),
(182,562,o),
(220,597,o),
(276,597,cs),
(304,597,o),
(324,582,o),
(340,571,cs),
(359,558,o),
(387,565,o),
(408,582,cs),
(414,587,ls),
(437,606,o),
(433,627,o),
(415,642,cs),
(383,665,o),
(344,677,o),
(293,677,cs),
(185,677,o),
(101,607,o),
(78,499,cs),
(59,408,o),
(103,340,o),
(205,310,cs),
(286,286,o),
(324,246,o),
(315,200,cs),
(297,116,o),
(242,80,o),
(156,80,cs),
(119,80,o),
(86,96,o),
(58,116,cs),
(40,129,o),
(-7,99,o),
(-15,67,cs),
(-21,45,o),
(-19,26,o),
(3,16,cs),
(43,-1,o),
(90,-10,o),
(137,-10,cs),
(278,-10,o),
(388,73,o),
(415,200,cs)
);
}
);
width = 449;
},
{
anchors = (
{
name = bottom;
pos = (189,0);
},
{
name = top;
pos = (331,625);
}
);
hints = (
{
horizontal = 1;
place = (-10,85);
type = Stem;
},
{
horizontal = 1;
place = (597,80);
type = Stem;
},
{
place = (-30,90);
type = Stem;
},
{
place = (260,110);
type = Stem;
}
);
layerId = m002;
shapes = (
{
closed = 1;
nodes = (
(541,324,o),
(469,413,o),
(326,449,cs),
(279,460,o),
(264,470,o),
(266,490,cs),
(269,504,o),
(284,512,o),
(308,512,cs),
(321,512,o),
(330,505,o),
(348,493,cs),
(384,468,o),
(437,478,o),
(478,512,cs),
(484,517,ls),
(533,557,o),
(537,614,o),
(493,649,cs),
(455,677,o),
(406,692,o),
(346,692,cs),
(210,692,o),
(107,634,o),
(78,499,cs),
(54,385,o),
(109,298,o),
(231,262,cs),
(300,242,o),
(320,227,o),
(315,200,cs),
(309,174,o),
(286,165,o),
(239,165,cs),
(197,165,o),
(175,175,o),
(150,193,cs),
(102,228,o),
(6,171,o),
(-8,102,cs),
(-17,59,o),
(-9,23,o),
(31,5,cs),
(76,-15,o),
(131,-25,o),
(184,-25,cs),
(351,-25,o),
(481,44,o),
(515,200,cs)
);
}
);
width = 513;
},
{
anchors = (
{
name = bottom;
pos = (165,0);
},
{
name = top;
pos = (307,625);
}
);
hints = (
{
horizontal = 1;
place = (-10,85);
type = Stem;
},
{
horizontal = 1;
place = (597,80);
type = Stem;
},
{
place = (-30,90);
type = Stem;
},
{
place = (260,110);
type = Stem;
}
);
layerId = m003;
shapes = (
{
closed = 1;
nodes = (
(451,294,o),
(397,360,o),
(275,390,cs),
(203,407,o),
(172,443,o),
(184,500,cs),
(199,567,o),
(244,614,o),
(306,614,cs),
(337,614,o),
(358,598,o),
(375,587,cs),
(391,576,o),
(412,581,o),
(430,596,cs),
(436,601,ls),
(453,615,o),
(452,628,o),
(434,641,cs),
(405,663,o),
(368,674,o),
(318,674,cs),
(214,674,o),
(136,603,o),
(114,499,cs),
(96,412,o),
(136,349,o),
(235,320,cs),
(319,295,o),
(362,252,o),
(351,200,cs),
(331,110,o),
(270,63,o),
(179,63,cs),
(140,63,o),
(103,80,o),
(76,101,cs),
(62,110,o),
(26,87,o),
(20,60,cs),
(15,39,o),
(15,26,o),
(33,18,cs),
(73,2,o),
(118,-7,o),
(164,-7,cs),
(301,-7,o),
(404,77,o),
(431,200,cs)
);
}
);
width = 466;
}
);
metricLeft = "=O/2";
metricRight = "=O/2";
note = S;
unicode = 83;
userData = {
KernOnName = S;
};
},
{
glyphname = Germandbls;
kernLeft = KO_N;
kernRight = KO_S;
lastChange = "2025-01-03 22:28:15 +0000";
layers = (
{
layerId = m005;
shapes = (
{
closed = 1;
nodes = (
(129,229,o),
(167,408,o),
(205,587,c),
(422,587,l),
(254,401,ls),
(228,372,o),
(232,346,o),
(265,337,cs),
(305,325,l),
(353,310,ls),
(432,285,o),
(475,257,o),
(465,211,cs),
(447,127,o),
(390,81,o),
(304,81,cs),
(266,81,o),
(244,107,o),
(213,118,cs),
(194,125,o),
(162,100,o),
(147,81,cs),
(144,77,ls),
(129,56,o),
(130,37,o),
(150,28,cs),
(191,10,o),
(237,-9,o),
(285,-9,cs),
(426,-9,o),
(538,84,o),
(565,211,cs),
(586,309,o),
(527,369,o),
(402,400,cs),
(376,406,l),
(561,617,ls),
(580,638,o),
(585,667,o),
(560,667,cs),
(171,667,ls),
(140,667,o),
(106,649,o),
(101,618,cs),
(71,428,o),
(31,240,o),
(-19,50,cs),
(-28,19,o),
(-4,-9,o),
(27,-9,cs),
(29,-9,ls),
(60,-9,o),
(96,19,o),
(101,50,cs)
);
}
);
width = 597;
},
{
layerId = m002;
shapes = (
{
closed = 1;
nodes = (
(272,258,o),
(291,350,o),
(325,512,c),
(487,512,l),
(395,429,ls),
(338,378,o),
(353,307,o),
(418,289,cs),
(457,277,l),
(505,262,ls),
(569,242,o),
(595,230,o),
(592,215,cs),
(584,179,o),
(556,159,o),
(498,165,cs),
(477,167,o),
(461,186,o),
(422,199,cs),
(380,215,o),
(325,182,o),
(292,139,cs),
(288,134,ls),
(254,87,o),
(260,36,o),
(305,16,cs),
(346,-3,o),
(401,-25,o),
(458,-25,cs),
(627,-25,o),
(765,91,o),
(798,245,cs),
(824,368,o),
(756,401,o),
(654,435,cs),
(641,439,l),
(768,564,ls),
(820,615,o),
(809,692,o),
(741,692,cs),
(262,692,ls),
(201,692,o),
(140,650,o),
(132,590,cs),
(102,402,o),
(77,285,o),
(27,97,cs),
(10,37,o),
(52,-15,o),
(112,-15,cs),
(114,-15,ls),
(174,-15,o),
(238,37,o),
(247,97,cs)
);
}
);
width = 793;
},
{
layerId = m003;
shapes = (
{
closed = 1;
nodes = (
(151,229,o),
(190,413,o),
(228,593,c),
(454,593,l),
(281,402,ls),
(258,375,o),
(261,351,o),
(292,343,cs),
(332,331,l),
(380,316,ls),
(460,291,o),
(501,248,o),
(490,200,cs),
(472,114,o),
(414,67,o),
(326,67,cs),
(287,67,o),
(264,93,o),
(234,104,cs),
(217,111,o),
(186,87,o),
(173,69,cs),
(170,65,ls),
(154,45,o),
(156,28,o),
(174,20,cs),
(215,2,o),
(261,-17,o),
(308,-17,cs),
(447,-17,o),
(558,75,o),
(584,200,cs),
(606,300,o),
(549,369,o),
(426,400,cs),
(396,407,l),
(585,622,ls),
(602,642,o),
(607,667,o),
(585,667,cs),
(196,667,ls),
(166,667,o),
(134,650,o),
(130,621,cs),
(100,431,o),
(59,239,o),
(8,49,cs),
(0,20,o),
(23,-7,o),
(52,-7,cs),
(54,-7,ls),
(83,-7,o),
(118,20,o),
(122,49,cs)
);
}
);
width = 618;
}
);
metricLeft = "=H";
metricRight = "=S";
unicode = 7838;
},
{
glyphname = T;
kernLeft = KO_T;
kernRight = KO_T;
lastChange = "2025-01-03 22:26:44 +0000";
layers = (
{
anchors = (
{
name = bottom;
pos = (165,0);
},
{
name = center;
pos = (236,334);
},
{
name = top;
pos = (298,625);
}
);
hints = (
{
horizontal = 1;
place = (0,21);
target = up;
type = BottomGhost;
},
{
place = (-1,100);
type = Stem;
}
);
layerId = m005;
shapes = (
{
closed = 1;
nodes = (
(262,217,o),
(299,395,o),
(337,574,cs),
(338,580,o),
(343,584,o),
(349,584,cs),
(391,583,o),
(433,581,o),
(474,577,cs),
(498,575,o),
(518,601,o),
(523,626,cs),
(529,653,o),
(520,679,o),
(495,677,cs),
(369,667,o),
(243,657,o),
(121,667,cs),
(96,669,o),
(79,653,o),
(73,626,cs),
(68,601,o),
(76,575,o),
(102,577,cs),
(145,581,o),
(187,583,o),
(229,584,cs),
(235,584,o),
(238,580,o),
(237,574,cs),
(199,394,o),
(161,221,o),
(113,39,cs),
(106,8,o),
(131,-10,o),
(164,-10,cs),
(195,-10,o),
(228,8,o),
(233,39,cs)
);
}
);
width = 490;
},
{
anchors = (
{
name = bottom;
pos = (141,0);
},
{
name = center;
pos = (212,334);
},
{
name = top;
pos = (274,625);
}
);
hints = (
{
horizontal = 1;
place = (0,21);
target = up;
type = BottomGhost;
},
{
place = (-1,100);
type = Stem;
}
);
layerId = m002;
shapes = (
{
closed = 1;
nodes = (
(290,221,o),
(307,311,o),
(336,445,cs),
(343,479,o),
(365,497,o),
(397,495,cs),
(407,494,o),
(417,493,o),
(427,492,cs),
(481,488,o),
(530,536,o),
(542,591,cs),
(554,648,o),
(525,696,o),
(469,692,cs),
(343,682,o),
(222,672,o),
(104,682,cs),
(50,686,o),
(4,647,o),
(-8,591,cs),
(-20,536,o),
(8,488,o),
(64,492,cs),
(77,493,o),
(91,494,o),
(104,495,cs),
(132,497,o),
(142,479,o),
(135,445,cs),
(106,312,o),
(86,225,o),
(47,76,cs),
(32,16,o),
(75,-25,o),
(137,-25,cs),
(196,-25,o),
(255,16,o),
(266,76,cs)
);
}
);
width = 534;
},
{
anchors = (
{
name = bottom;
pos = (99,0);
},
{
name = center;
pos = (170,334);
},
{
name = top;
pos = (232,625);
}
);
hints = (
{
horizontal = 1;
place = (0,21);
target = up;
type = BottomGhost;
},
{
place = (-1,100);
type = Stem;
}
);
layerId = m003;
shapes = (
{
closed = 1;
nodes = (
(185,214,o),
(227,414,o),
(266,597,cs),
(266,602,o),
(269,604,o),
(274,604,cs),
(319,603,o),
(367,601,o),
(413,597,cs),
(430,595,o),
(444,614,o),
(449,636,cs),
(454,660,o),
(448,679,o),
(430,677,cs),
(304,667,o),
(176,657,o),
(54,667,cs),
(34,669,o),
(24,659,o),
(19,636,cs),
(14,614,o),
(20,595,o),
(39,597,cs),
(86,601,o),
(134,603,o),
(179,604,cs),
(184,604,o),
(187,602,o),
(185,597,cs),
(146,413,o),
(103,218,o),
(56,32,cs),
(49,6,o),
(68,-7,o),
(98,-7,cs),
(126,-7,o),
(151,6,o),
(156,32,cs)
);
}
);
width = 469;
}
);
metricLeft = "=O/2";
metricRight = "=O/2";
note = I;
unicode = 84;
userData = {
KernOnName = T;
};
},
{
glyphname = U;
kernLeft = KO_U;
kernRight = KO_U;
lastChange = "2025-01-03 22:26:44 +0000";
layers = (
{
anchors = (
{
name = bottom;
pos = (183,0);
},
{
name = ogonek;
pos = (297,10);
},
{
name = top;
pos = (316,625);
},
{
name = topright;
pos = (590,667);
}
);
hints = (
{
horizontal = 1;
place = (-10,85);
type = Stem;
},
{
place = (-21,105);
type = Stem;
},
{
place = (344,105);
type = Stem;
}
);
layerId = m005;
shapes = (
{
closed = 1;
nodes = (
(121,667,o),
(83,646,o),
(79,617,cs),
(65,501,o),
(40,386,o),
(16,270,cs),
(-23,90,o),
(38,-1,o),
(181,-10,cs),
(334,-20,o),
(427,90,o),
(466,270,cs),
(490,386,o),
(517,511,o),
(551,627,cs),
(560,656,o),
(531,677,o),
(502,677,cs),
(473,677,o),
(436,656,o),
(431,627,cs),
(417,511,o),
(390,386,o),
(366,270,cs),
(337,134,o),
(285,80,o),
(200,80,cs),
(115,80,o),
(87,134,o),
(116,270,cs),
(140,386,o),
(165,501,o),
(189,617,cs),
(195,646,o),
(179,667,o),
(150,667,cs)
);
}
);
width = 540;
},
{
anchors = (
{
name = bottom;
pos = (245,0);
},
{
name = ogonek;
pos = (401,10);
},
{
name = top;
pos = (378,625);
},
{
name = topright;
pos = (652,667);
}
);
hints = (
{
horizontal = 1;
place = (-10,85);
type = Stem;
},
{
place = (-22,105);
type = Stem;
},
{
place = (343,105);
type = Stem;
}
);
layerId = m002;
shapes = (
{
closed = 1;
nodes = (
(159,692,o),
(94,648,o),
(85,588,cs),
(71,474,o),
(60,421,o),
(35,305,cs),
(-9,100,o),
(67,-14,o),
(237,-25,cs),
(422,-37,o),
(541,100,o),
(585,305,cs),
(610,421,o),
(623,484,o),
(657,598,cs),
(674,658,o),
(627,702,o),
(569,702,cs),
(511,702,o),
(446,658,o),
(437,598,cs),
(423,484,o),
(410,421,o),
(385,305,cs),
(366,216,o),
(340,165,o),
(280,165,cs),
(220,165,o),
(216,216,o),
(235,305,cs),
(260,421,o),
(271,476,o),
(296,592,cs),
(308,649,o),
(274,692,o),
(217,692,cs)
);
}
);
width = 628;
},
{
anchors = (
{
name = bottom;
pos = (177,0);
},
{
name = ogonek;
pos = (290,10);
},
{
name = top;
pos = (310,625);
},
{
name = topright;
pos = (584,667);
}
);
hints = (
{
horizontal = 1;
place = (-10,85);
type = Stem;
},
{
place = (-21,105);
type = Stem;
},
{
place = (344,105);
type = Stem;
}
);
layerId = m003;
shapes = (
{
closed = 1;
nodes = (
(118,667,o),
(89,651,o),
(86,628,cs),
(71,511,o),
(42,376,o),
(17,260,cs),
(-20,84,o),
(37,-1,o),
(176,-10,cs),
(323,-20,o),
(410,83,o),
(447,260,cs),
(472,376,o),
(503,521,o),
(538,638,cs),
(545,661,o),
(522,677,o),
(496,677,cs),
(470,677,o),
(441,661,o),
(438,638,cs),
(423,521,o),
(392,376,o),
(367,260,cs),
(337,118,o),
(281,60,o),
(190,60,cs),
(99,60,o),
(67,118,o),
(97,260,cs),
(122,376,o),
(151,511,o),
(175,627,cs),
(181,652,o),
(169,667,o),
(144,667,cs)
);
}
);
width = 535;
}
);
metricLeft = "=H";
metricRight = "=H";
note = U;
unicode = 85;
},
{
glyphname = V;
kernLeft = KO_V;
kernRight = KO_V;
lastChange = "2025-01-03 22:26:37 +0000";
layers = (
{
hints = (
{
horizontal = 1;
place = (0,21);
target = up;
type = BottomGhost;
},
{
horizontal = 1;
place = (150,75);
type = Stem;
},
{
horizontal = 1;
place = (557,110);
type = Stem;
},
{
place = (-60,516);
type = Stem;
}
);
layerId = m005;
shapes = (
{
closed = 1;
nodes = (
(200,255,o),
(190,428,o),
(194,612,cs),
(195,645,o),
(179,667,o),
(141,667,cs),
(111,667,o),
(74,633,o),
(77,594,cs),
(93,419,o),
(113,215,o),
(144,45,cs),
(149,17,o),
(171,0,o),
(203,0,cs),
(233,0,o),
(263,17,o),
(280,45,cs),
(383,215,o),
(489,419,o),
(579,594,cs),
(600,633,o),
(593,677,o),
(537,677,cs),
(511,677,o),
(474,650,o),
(465,624,cs),
(400,436,o),
(314,258,o),
(232,121,cs),
(230,117,o),
(224,117,o),
(224,121,cs)
);
}
);
width = 549;
},
{
hints = (
{
horizontal = 1;
place = (0,21);
target = up;
type = BottomGhost;
},
{
horizontal = 1;
place = (150,75);
type = Stem;
},
{
horizontal = 1;
place = (557,110);
type = Stem;
},
{
place = (-60,516);
type = Stem;
}
);
layerId = m002;
shapes = (
{
closed = 1;
nodes = (
(242,403,o),
(238,474,o),
(240,596,cs),
(242,653,o),
(208,692,o),
(146,692,cs),
(82,692,o),
(14,625,o),
(21,554,cs),
(37,379,o),
(57,223,o),
(98,52,cs),
(109,6,o),
(146,-25,o),
(198,-25,cs),
(248,-25,o),
(297,6,o),
(328,52,cs),
(441,223,o),
(529,379,o),
(619,554,cs),
(658,629,o),
(628,702,o),
(542,702,cs),
(491,702,o),
(430,657,o),
(412,606,cs),
(368,481,o),
(334,406,o),
(274,304,cs),
(269,298,o),
(261,297,o),
(260,304,cs)
);
}
);
width = 549;
},
{
hints = (
{
horizontal = 1;
place = (0,21);
target = up;
type = BottomGhost;
},
{
horizontal = 1;
place = (150,75);
type = Stem;
},
{
horizontal = 1;
place = (557,110);
type = Stem;
},
{
place = (-60,516);
type = Stem;
}
);
layerId = m003;
shapes = (
{
closed = 1;
nodes = (
(190,222,o),
(181,425,o),
(186,620,cs),
(187,650,o),
(175,667,o),
(141,667,cs),
(116,667,o),
(86,641,o),
(90,607,cs),
(106,432,o),
(120,208,o),
(151,39,cs),
(156,14,o),
(174,0,o),
(203,0,cs),
(230,0,o),
(254,14,o),
(269,39,cs),
(372,208,o),
(482,432,o),
(572,607,cs),
(591,643,o),
(586,677,o),
(537,677,cs),
(515,677,o),
(484,655,o),
(477,633,cs),
(407,433,o),
(310,225,o),
(224,83,cs),
(221,79,o),
(217,79,o),
(216,83,cs)
);
}
);
width = 549;
}
);
note = A;
unicode = 86;
userData = {
KernOnName = V;
};
},
{
glyphname = W;
kernLeft = KO_W;
kernRight = KO_W;
lastChange = "2025-01-03 22:26:44 +0000";
layers = (
{
anchors = (
{
name = bottom;
pos = (305,0);
},
{
name = top;
pos = (438,625);
}
);
hints = (
{
horizontal = 1;
place = (0,21);
target = up;
type = BottomGhost;
},
{
place = (-37,724);
type = Stem;
},
{
horizontal = 1;
place = (0,150);
type = Stem;
}
);
layerId = m005;
shapes = (
{
closed = 1;
nodes = (
(176,0,o),
(217,17,o),
(228,46,cs),
(274,161,o),
(341,307,o),
(400,458,cs),
(402,461,o),
(404,461,o),
(404,458,cs),
(399,307,o),
(404,161,o),
(402,46,cs),
(401,17,o),
(434,0,o),
(463,0,cs),
(492,0,o),
(531,17,o),
(544,45,cs),
(629,235,o),
(728,458,o),
(805,625,cs),
(820,658,o),
(795,677,o),
(762,677,cs),
(730,677,o),
(701,662,o),
(690,632,cs),
(639,479,o),
(573,291,o),
(490,117,cs),
(488,114,o),
(486,114,o),
(486,117,cs),
(477,290,o),
(479,468,o),
(492,621,cs),
(494,651,o),
(481,667,o),
(443,667,cs),
(413,667,o),
(392,651,o),
(382,621,cs),
(331,468,o),
(257,290,o),
(174,117,cs),
(172,114,o),
(170,114,o),
(170,117,cs),
(161,291,o),
(173,469,o),
(186,622,cs),
(189,652,o),
(166,667,o),
(136,667,cs),
(100,667,o),
(80,648,o),
(79,615,cs),
(74,448,o),
(81,235,o),
(86,45,cs),
(87,17,o),
(118,0,o),
(147,0,cs)
);
}
);
width = 767;
},
{
anchors = (
{
name = bottom;
pos = (305,0);
},
{
name = top;
pos = (438,625);
}
);
hints = (
{
horizontal = 1;
place = (0,21);
target = up;
type = BottomGhost;
},
{
place = (-37,724);
type = Stem;
},
{
horizontal = 1;
place = (0,150);
type = Stem;
}
);
layerId = m002;
shapes = (
{
closed = 1;
nodes = (
(198,-25,o),
(260,9,o),
(280,62,cs),
(299,108,o),
(321,160,o),
(345,215,cs),
(349,225,o),
(357,225,o),
(357,215,cs),
(357,160,o),
(357,108,o),
(356,62,cs),
(354,9,o),
(402,-25,o),
(459,-25,cs),
(511,-25,o),
(571,8,o),
(595,58,cs),
(691,249,o),
(770,421,o),
(846,588,cs),
(876,655,o),
(830,702,o),
(767,702,cs),
(710,702,o),
(656,669,o),
(636,613,cs),
(608,528,o),
(581,454,o),
(544,362,cs),
(540,352,o),
(531,352,o),
(531,362,cs),
(531,450,o),
(530,519,o),
(538,602,cs),
(542,657,o),
(511,692,o),
(448,692,cs),
(393,692,o),
(348,657,o),
(328,602,cs),
(300,519,o),
(270,449,o),
(233,360,cs),
(227,350,o),
(219,350,o),
(220,360,cs),
(221,449,o),
(224,519,o),
(232,603,cs),
(236,659,o),
(196,692,o),
(141,692,cs),
(74,692,o),
(24,645,o),
(23,581,cs),
(18,412,o),
(25,248,o),
(39,58,cs),
(43,8,o),
(89,-25,o),
(141,-25,cs)
);
}
);
width = 768;
},
{
anchors = (
{
name = bottom;
pos = (306,0);
},
{
name = top;
pos = (439,625);
}
);
hints = (
{
horizontal = 1;
place = (0,21);
target = up;
type = BottomGhost;
},
{
place = (-37,724);
type = Stem;
},
{
horizontal = 1;
place = (0,150);
type = Stem;
}
);
layerId = m003;
shapes = (
{
closed = 1;
nodes = (
(175,0,o),
(208,14,o),
(217,38,cs),
(270,167,o),
(352,355,o),
(416,526,cs),
(417,529,o),
(419,529,o),
(420,526,cs),
(412,355,o),
(414,167,o),
(411,38,cs),
(410,14,o),
(437,0,o),
(465,0,cs),
(491,0,o),
(522,14,o),
(533,37,cs),
(618,227,o),
(722,470,o),
(798,637,cs),
(811,664,o),
(793,677,o),
(761,677,cs),
(734,677,o),
(712,666,o),
(703,641,cs),
(648,477,o),
(572,253,o),
(481,69,cs),
(479,66,o),
(477,66,o),
(477,69,cs),
(465,253,o),
(470,466,o),
(485,630,cs),
(487,656,o),
(478,667,o),
(444,667,cs),
(418,667,o),
(403,656,o),
(395,630,cs),
(340,466,o),
(255,253,o),
(165,69,cs),
(163,66,o),
(161,66,o),
(161,69,cs),
(148,255,o),
(164,467,o),
(179,631,cs),
(181,656,o),
(164,667,o),
(137,667,cs),
(106,667,o),
(93,655,o),
(92,627,cs),
(88,460,o),
(90,227,o),
(95,37,cs),
(96,14,o),
(121,0,o),
(147,0,cs)
);
}
);
width = 769;
}
);
metricLeft = "=V";
metricRight = "=V";
note = W;
unicode = 87;
userData = {
KernOnName = W;
};
},
{
glyphname = X;
kernLeft = KO_X;
kernRight = KO_X;
lastChange = "2025-01-03 22:26:44 +0000";
layers = (
{
hints = (
{
horizontal = 1;
place = (0,21);
target = up;
type = BottomGhost;
},
{
place = (-51,498);
type = Stem;
}
);
layerId = m005;
shapes = (
{
closed = 1;
nodes = (
(33,0,o),
(69,12,o),
(85,39,cs),
(135,119,o),
(193,204,o),
(268,281,cs),
(269,283,o),
(271,283,o),
(272,281,cs),
(311,194,o),
(337,129,o),
(353,49,cs),
(359,22,o),
(387,0,o),
(418,0,cs),
(447,0,o),
(473,23,o),
(464,57,cs),
(439,149,o),
(393,254,o),
(344,338,cs),
(343,339,o),
(344,341,o),
(345,342,cs),
(428,423,o),
(510,522,o),
(571,610,cs),
(593,642,o),
(580,677,o),
(551,677,cs),
(516,677,o),
(481,645,o),
(464,618,cs),
(417,541,o),
(370,471,o),
(296,397,cs),
(295,395,o),
(293,395,o),
(292,397,cs),
(250,471,o),
(231,533,o),
(216,608,cs),
(206,660,o),
(185,667,o),
(157,667,cs),
(125,667,o),
(110,644,o),
(119,610,cs),
(142,522,o),
(172,423,o),
(221,342,cs),
(222,341,o),
(221,339,o),
(220,338,cs),
(136,254,o),
(45,149,o),
(-20,57,cs),
(-43,23,o),
(-27,0,o),
(2,0,cs)
);
}
);
width = 536;
},
{
hints = (
{
horizontal = 1;
place = (0,21);
target = up;
type = BottomGhost;
},
{
place = (-51,498);
type = Stem;
}
);
layerId = m002;
shapes = (
{
closed = 1;
nodes = (
(134,-25,o),
(190,-1,o),
(218,45,cs),
(252,100,o),
(289,155,o),
(327,187,cs),
(333,192,o),
(338,192,o),
(341,188,cs),
(368,156,o),
(388,111,o),
(394,55,cs),
(400,-1,o),
(447,-25,o),
(498,-25,cs),
(564,-25,o),
(622,36,o),
(604,104,cs),
(583,186,o),
(538,255,o),
(495,333,cs),
(492,338,o),
(493,342,o),
(498,347,cs),
(572,421,o),
(637,485,o),
(691,564,cs),
(736,629,o),
(707,702,o),
(641,702,cs),
(584,702,o),
(530,658,o),
(502,612,cs),
(470,558,o),
(452,533,o),
(405,488,cs),
(400,482,o),
(395,482,o),
(391,488,cs),
(364,531,o),
(356,551,o),
(346,602,cs),
(333,669,o),
(299,692,o),
(247,692,cs),
(181,692,o),
(130,635,o),
(149,564,cs),
(169,487,o),
(201,423,o),
(240,347,cs),
(243,342,o),
(242,338,o),
(237,333,cs),
(161,256,o),
(88,186,o),
(30,104,cs),
(-16,36,o),
(16,-25,o),
(85,-25,cs)
);
}
);
width = 702;
},
{
hints = (
{
horizontal = 1;
place = (0,21);
target = up;
type = BottomGhost;
},
{
place = (-51,498);
type = Stem;
}
);
layerId = m003;
shapes = (
{
closed = 1;
nodes = (
(57,0,o),
(86,10,o),
(101,33,cs),
(153,117,o),
(218,217,o),
(298,298,cs),
(300,300,o),
(302,300,o),
(302,298,cs),
(345,205,o),
(371,127,o),
(387,43,cs),
(392,19,o),
(416,0,o),
(441,0,cs),
(469,0,o),
(485,15,o),
(478,43,cs),
(452,136,o),
(408,253,o),
(357,338,cs),
(356,339,o),
(357,341,o),
(358,342,cs),
(443,424,o),
(529,534,o),
(591,624,cs),
(610,652,o),
(600,677,o),
(577,677,cs),
(547,677,o),
(517,650,o),
(501,624,cs),
(452,544,o),
(400,460,o),
(319,381,cs),
(318,379,o),
(316,379,o),
(315,381,cs),
(269,460,o),
(250,535,o),
(235,614,cs),
(226,662,o),
(210,667,o),
(183,667,cs),
(158,667,o),
(149,654,o),
(157,624,cs),
(181,534,o),
(209,423,o),
(260,342,cs),
(261,341,o),
(260,339,o),
(259,338,cs),
(173,253,o),
(78,136,o),
(12,43,cs),
(-7,15,o),
(3,0,o),
(31,0,cs)
);
}
);
width = 600;
}
);
metricLeft = "=H/3";
metricRight = "=H/3";
note = X;
unicode = 88;
userData = {
KernOnName = X;
};
},
{
glyphname = Y;
kernLeft = KO_Y;
kernRight = KO_Y;
lastChange = "2025-01-03 22:26:44 +0000";
layers = (
{
anchors = (
{
name = bottom;
pos = (194,0);
},
{
name = top;
pos = (327,625);
},
{
name = topleft;
pos = (89,667);
}
);
hints = (
{
horizontal = 1;
place = (0,21);
target = up;
type = BottomGhost;
},
{
place = (145,100);
type = Stem;
}
);
layerId = m005;
shapes = (
{
closed = 1;
nodes = (
(220,0,o),
(256,18,o),
(258,49,cs),
(264,120,o),
(278,190,o),
(293,260,cs),
(294,265,o),
(296,268,o),
(300,273,cs),
(390,375,o),
(484,501,o),
(563,610,cs),
(587,643,o),
(577,677,o),
(543,677,cs),
(515,677,o),
(481,654,o),
(464,617,cs),
(419,518,o),
(341,428,o),
(261,336,cs),
(260,334,o),
(258,334,o),
(257,336,cs),
(217,428,o),
(199,530,o),
(186,627,cs),
(183,654,o),
(157,667,o),
(122,667,cs),
(92,667,o),
(75,644,o),
(83,610,cs),
(106,501,o),
(146,375,o),
(192,273,cs),
(194,268,o),
(194,265,o),
(193,260,cs),
(178,190,o),
(164,120,o),
(138,49,cs),
(128,18,o),
(156,0,o),
(189,0,cs)
);
}
);
width = 533;
},
{
anchors = (
{
name = bottom;
pos = (185,0);
},
{
name = top;
pos = (318,625);
},
{
name = topleft;
pos = (72,667);
}
);
hints = (
{
horizontal = 1;
place = (0,21);
target = up;
type = BottomGhost;
},
{
place = (145,100);
type = Stem;
}
);
layerId = m002;
shapes = (
{
closed = 1;
nodes = (
(243,-25,o),
(307,19,o),
(312,81,cs),
(317,140,o),
(323,177,o),
(335,235,cs),
(338,247,o),
(342,256,o),
(351,266,cs),
(438,364,o),
(530,460,o),
(594,562,cs),
(637,632,o),
(617,702,o),
(545,702,cs),
(494,702,o),
(443,661,o),
(409,604,cs),
(370,538,o),
(347,499,o),
(287,438,cs),
(282,432,o),
(276,432,o),
(273,438,cs),
(245,502,o),
(238,549,o),
(228,618,cs),
(223,664,o),
(182,692,o),
(131,692,cs),
(59,692,o),
(9,634,o),
(24,565,cs),
(46,462,o),
(87,364,o),
(133,266,cs),
(136,256,o),
(138,247,o),
(135,235,cs),
(123,177,o),
(113,140,o),
(92,81,cs),
(71,19,o),
(117,-25,o),
(181,-25,cs)
);
}
);
width = 529;
},
{
anchors = (
{
name = bottom;
pos = (185,0);
},
{
name = top;
pos = (318,625);
},
{
name = topleft;
pos = (72,667);
}
);
hints = (
{
horizontal = 1;
place = (0,21);
target = up;
type = BottomGhost;
},
{
place = (145,100);
type = Stem;
}
);
layerId = m003;
shapes = (
{
closed = 1;
nodes = (
(214,0,o),
(241,13,o),
(243,38,cs),
(248,110,o),
(266,192,o),
(281,265,cs),
(282,269,o),
(284,271,o),
(286,274,cs),
(377,377,o),
(474,514,o),
(554,625,cs),
(575,653,o),
(568,677,o),
(540,677,cs),
(515,677,o),
(488,658,o),
(473,625,cs),
(424,519,o),
(338,414,o),
(255,318,cs),
(253,316,o),
(251,316,o),
(251,318,cs),
(206,415,o),
(188,532,o),
(176,634,cs),
(173,657,o),
(152,667,o),
(126,667,cs),
(95,667,o),
(85,654,o),
(92,624,cs),
(114,513,o),
(153,377,o),
(200,274,cs),
(202,271,o),
(202,269,o),
(201,265,cs),
(186,192,o),
(168,110,o),
(143,38,cs),
(135,13,o),
(156,0,o),
(186,0,cs)
);
}
);
width = 533;
}
);
metricLeft = "=V";
metricRight = "=V";
note = Y;
unicode = 89;
userData = {
KernOnName = Y;
};
},
{
glyphname = Z;
kernLeft = KO_Z;
kernRight = KO_Z;
lastChange = "2025-01-03 22:26:44 +0000";
layers = (
{
anchors = (
{
name = bottom;
pos = (199,0);
},
{
name = center;
pos = (270,334);
},
{
name = top;
pos = (332,625);
}
);
hints = (
{
horizontal = 1;
place = (0,85);
type = Stem;
},
{
horizontal = 1;
place = (587,80);
type = Stem;
},
{
place = (-41,475);
type = Stem;
}
);
layerId = m005;
shapes = (
{
closed = 1;
nodes = (
(119,626,cs),
(114,601,o),
(132,574,o),
(158,577,cs),
(248,586,o),
(327,587,o),
(413,587,cs),
(422,587,o),
(423,581,o),
(417,575,cs),
(3,108,ls),
(-14,88,o),
(-24,70,o),
(-29,46,cs),
(-36,14,o),
(-15,0,o),
(10,0,cs),
(141,0,o),
(261,0,o),
(390,-10,cs),
(415,-12,o),
(444,14,o),
(449,39,cs),
(459,86,o),
(429,102,o),
(403,100,cs),
(302,90,o),
(213,90,o),
(115,90,cs),
(106,90,o),
(106,96,o),
(111,102,cs),
(555,607,ls),
(574,628,o),
(581,666,o),
(546,667,cs),
(421,670,o),
(292,664,o),
(169,677,cs),
(145,680,o),
(125,653,o)
);
}
);
width = 521;
},
{
anchors = (
{
name = bottom;
pos = (276,0);
},
{
name = center;
pos = (347,334);
},
{
name = top;
pos = (409,625);
}
);
hints = (
{
horizontal = 1;
place = (0,85);
type = Stem;
},
{
horizontal = 1;
place = (587,80);
type = Stem;
},
{
place = (-41,475);
type = Stem;
}
);
layerId = m002;
shapes = (
{
closed = 1;
nodes = (
(136,576,cs),
(124,521,o),
(163,471,o),
(219,477,cs),
(273,483,o),
(322,486,o),
(373,487,cs),
(382,487,o),
(382,480,o),
(376,474,cs),
(77,196,ls),
(48,169,o),
(16,130,o),
(9,96,cs),
(-4,36,o),
(31,-13,o),
(84,-13,cs),
(215,-13,o),
(333,-15,o),
(460,-25,cs),
(514,-29,o),
(576,36,o),
(587,89,cs),
(603,165,o),
(552,204,o),
(498,200,cs),
(431,194,o),
(371,191,o),
(308,190,cs),
(300,190,o),
(300,196,o),
(306,202,cs),
(658,529,ls),
(716,583,o),
(701,681,o),
(626,681,cs),
(500,681,o),
(373,681,o),
(249,692,cs),
(197,697,o),
(147,631,o)
);
}
);
width = 685;
},
{
anchors = (
{
name = bottom;
pos = (223,0);
},
{
name = center;
pos = (294,334);
},
{
name = top;
pos = (356,625);
}
);
hints = (
{
horizontal = 1;
place = (0,85);
type = Stem;
},
{
horizontal = 1;
place = (587,80);
type = Stem;
},
{
place = (-41,475);
type = Stem;
}
);
layerId = m003;
shapes = (
{
closed = 1;
nodes = (
(155,636,cs),
(151,615,o),
(165,595,o),
(185,597,cs),
(284,608,o),
(368,607,o),
(465,607,cs),
(471,607,o),
(472,603,o),
(468,599,cs),
(32,92,ls),
(16,74,o),
(7,58,o),
(3,36,cs),
(-3,10,o),
(11,-5,o),
(33,-4,cs),
(165,0,o),
(286,3,o),
(416,-7,cs),
(435,-9,o),
(457,8,o),
(462,31,cs),
(470,70,o),
(447,82,o),
(424,80,cs),
(314,69,o),
(219,70,o),
(111,70,cs),
(105,70,o),
(104,74,o),
(108,78,cs),
(575,623,ls),
(589,641,o),
(595,667,o),
(570,667,cs),
(444,667,o),
(317,667,o),
(192,674,cs),
(172,675,o),
(160,659,o)
);
}
);
width = 586;
}
);
metricLeft = "=H/4";
metricRight = "=H/4";
note = Z;
unicode = 90;
userData = {
KernOnName = Z;
};
},
{
glyphname = A.salt;
kernLeft = KO_A.salt;
kernRight = KO_A.salt;
lastChange = "2025-01-03 22:27:25 +0000";
layers = (
{
anchors = (
{
name = bottom;
pos = (203,0);
},
{
name = ogonek;
pos = (425,10);
},
{
name = top;
pos = (336,625);
}
);
hints = (
{
horizontal = 1;
place = (0,21);
target = up;
type = BottomGhost;
},
{
horizontal = 1;
place = (150,75);
type = Stem;
},
{
horizontal = 1;
place = (557,110);
type = Stem;
},
{
place = (-60,516);
type = Stem;
}
);
layerId = m005;
shapes = (
{
closed = 1;
nodes = (
(6,0,ls),
(38,0,o),
(61,16,o),
(74,48,cs),
(85,77,o),
(98,106,o),
(110,134,cs),
(112,140,o),
(116,143,o),
(122,143,cs),
(197,146,o),
(271,147,o),
(344,147,cs),
(350,147,o),
(354,144,o),
(353,138,cs),
(354,113,o),
(354,87,o),
(353,62,cs),
(353,21,o),
(368,0,o),
(400,0,cs),
(406,0,ls),
(440,0,o),
(461,22,o),
(460,59,cs),
(454,243,o),
(435,451,o),
(403,633,cs),
(398,663,o),
(380,677,o),
(348,677,cs),
(346,677,ls),
(314,677,o),
(290,663,o),
(273,633,cs),
(197,508,o),
(-19,81,o),
(-28,59,cs),
(-45,22,o),
(-32,0,o),
(5,0,cs)
);
},
{
closed = 1;
nodes = (
(154,227,o),
(152,231,o),
(156,238,cs),
(206,354,o),
(261,463,o),
(313,550,cs),
(319,558,o),
(325,558,o),
(327,550,cs),
(341,464,o),
(349,359,o),
(352,246,cs),
(353,238,o),
(349,233,o),
(341,232,cs),
(282,229,o),
(222,228,o),
(161,227,cs)
);
}
);
width = 550;
},
{
anchors = (
{
name = bottom;
pos = (204,0);
},
{
name = ogonek;
pos = (426,10);
},
{
name = top;
pos = (337,625);
}
);
hints = (
{
horizontal = 1;
place = (0,21);
target = up;
type = BottomGhost;
},
{
horizontal = 1;
place = (150,75);
type = Stem;
},
{
horizontal = 1;
place = (557,110);
type = Stem;
},
{
place = (-59,516);
type = Stem;
}
);
layerId = m002;
shapes = (
{
closed = 1;
nodes = (
(2,-25,ls),
(58,-25,o),
(111,8,o),
(128,64,cs),
(131,75,o),
(129,70,o),
(131,75,cs),
(137,90,o),
(152,93,o),
(164,93,cs),
(239,96,o),
(222,97,o),
(295,97,cs),
(305,97,o),
(308,91,o),
(309,84,cs),
(309,76,o),
(309,77,o),
(309,77,cs),
(301,13,o),
(343,-25,o),
(396,-25,cs),
(402,-25,ls),
(468,-25,o),
(519,27,o),
(518,96,cs),
(511,281,o),
(479,432,o),
(447,616,cs),
(438,665,o),
(405,692,o),
(352,692,cs),
(350,692,ls),
(297,692,o),
(252,665,o),
(223,616,cs),
(147,489,o),
(-56,121,o),
(-69,95,cs),
(-100,28,o),
(-68,-25,o),
(1,-25,cs)
);
},
{
closed = 1;
nodes = (
(232,277,o),
(234,293,o),
(241,310,cs),
(252,338,o),
(259,351,o),
(277,379,cs),
(284,390,o),
(290,384,o),
(291,379,cs),
(295,356,o),
(294,334,o),
(296,307,cs),
(297,296,o),
(291,283,o),
(274,279,cs),
(262,276,o),
(255,277,o),
(243,277,cs)
);
}
);
width = 550;
},
{
anchors = (
{
name = bottom;
pos = (203,0);
},
{
name = ogonek;
pos = (425,10);
},
{
name = top;
pos = (336,625);
}
);
hints = (
{
horizontal = 1;
place = (0,21);
target = up;
type = BottomGhost;
},
{
horizontal = 1;
place = (150,75);
type = Stem;
},
{
horizontal = 1;
place = (557,110);
type = Stem;
},
{
place = (-60,516);
type = Stem;
}
);
layerId = m003;
shapes = (
{
closed = 1;
nodes = (
(6,0,ls),
(34,0,o),
(52,11,o),
(63,40,cs),
(78,76,o),
(91,111,o),
(107,147,cs),
(108,151,o),
(111,153,o),
(115,153,cs),
(197,157,o),
(277,157,o),
(357,157,cs),
(361,157,o),
(363,156,o),
(362,151,cs),
(363,119,o),
(362,86,o),
(362,54,cs),
(361,16,o),
(372,0,o),
(400,0,cs),
(406,0,ls),
(435,0,o),
(448,14,o),
(447,47,cs),
(441,230,o),
(427,455,o),
(395,636,cs),
(390,663,o),
(377,674,o),
(348,674,cs),
(346,674,ls),
(317,674,o),
(298,663,o),
(283,636,cs),
(207,510,o),
(-7,77,o),
(-21,47,cs),
(-36,14,o),
(-27,0,o),
(5,0,cs)
);
},
{
closed = 1;
nodes = (
(139,217,o),
(138,220,o),
(140,225,cs),
(200,362,o),
(265,493,o),
(324,590,cs),
(328,595,o),
(332,595,o),
(334,589,cs),
(351,495,o),
(358,367,o),
(362,233,cs),
(362,227,o),
(359,223,o),
(354,223,cs),
(285,219,o),
(214,218,o),
(144,217,cs)
);
}
);
width = 550;
}
);
note = A;
},
{
glyphname = B.salt;
kernLeft = KO_N;
kernRight = KO_B;
lastChange = "2025-01-03 22:27:28 +0000";
layers = (
{
hints = (
{
horizontal = 1;
place = (0,21);
target = up;
type = BottomGhost;
},
{
horizontal = 1;
place = (282,67);
type = Stem;
},
{
horizontal = 1;
place = (598,69);
type = Stem;
},
{
place = (-1,100);
type = Stem;
},
{
place = (335,99);
type = Stem;
}
);
layerId = m005;
shapes = (
{
closed = 1;
nodes = (
(175,0,ls),
(339,0,o),
(455,68,o),
(470,190,cs),
(479,257,o),
(462,307,o),
(408,336,cs),
(401,340,o),
(402,344,o),
(410,348,cs),
(468,376,o),
(505,422,o),
(518,484,cs),
(543,602,o),
(471,667,o),
(317,667,cs),
(171,667,ls),
(140,667,o),
(105,649,o),
(101,618,cs),
(90,518,o),
(31,239,o),
(-19,49,cs),
(-28,18,o),
(-2,0,o),
(29,0,cs)
);
},
{
closed = 1;
nodes = (
(103,90,o),
(100,94,o),
(101,100,cs),
(142,290,ls),
(143,296,o),
(148,300,o),
(154,300,cs),
(240,300,ls),
(345,300,o),
(387,265,o),
(371,190,cs),
(356,115,o),
(300,90,o),
(195,90,cs),
(109,90,ls)
);
},
{
closed = 1;
nodes = (
(166,380,o),
(163,383,o),
(164,390,cs),
(177,452,o),
(181,513,o),
(195,576,cs),
(196,583,o),
(201,587,o),
(207,587,cs),
(301,587,ls),
(396,587,o),
(434,554,o),
(419,484,cs),
(404,413,o),
(352,380,o),
(257,380,cs),
(172,380,ls)
);
}
);
width = 493;
},
{
hints = (
{
horizontal = 1;
place = (0,21);
target = up;
type = BottomGhost;
},
{
horizontal = 1;
place = (282,67);
type = Stem;
},
{
horizontal = 1;
place = (598,69);
type = Stem;
},
{
place = (-1,100);
type = Stem;
},
{
place = (335,99);
type = Stem;
}
);
layerId = m002;
shapes = (
{
closed = 1;
nodes = (
(260,-15,ls),
(447,-15,o),
(596,72,o),
(617,229,cs),
(622,269,o),
(616,290,o),
(602,310,cs),
(586,335,o),
(591,355,o),
(615,381,cs),
(632,398,o),
(642,416,o),
(649,449,cs),
(680,598,o),
(585,682,o),
(408,682,cs),
(262,682,ls),
(201,682,o),
(138,639,o),
(131,578,cs),
(120,481,o),
(77,275,o),
(27,87,cs),
(10,26,o),
(55,-15,o),
(114,-15,cs)
);
},
{
closed = 1;
nodes = (
(289,157,o),
(252,158,o),
(259,193,cs),
(264,218,ls),
(271,250,o),
(292,269,o),
(321,268,cs),
(362,266,ls),
(408,264,o),
(421,244,o),
(414,213,cs),
(407,179,o),
(371,160,o),
(348,159,cs),
(312,158,ls)
);
},
{
closed = 1;
nodes = (
(323,412,o),
(303,417,o),
(311,449,cs),
(313,461,o),
(313,455,o),
(318,480,cs),
(322,500,o),
(324,519,o),
(360,519,cs),
(399,519,ls),
(428,519,o),
(462,509,o),
(453,466,cs),
(447,435,o),
(419,412,o),
(375,412,cs),
(352,412,ls)
);
}
);
width = 647;
},
{
hints = (
{
horizontal = 1;
place = (0,21);
target = up;
type = BottomGhost;
},
{
horizontal = 1;
place = (282,67);
type = Stem;
},
{
horizontal = 1;
place = (598,69);
type = Stem;
},
{
place = (-1,100);
type = Stem;
},
{
place = (335,99);
type = Stem;
}
);
layerId = m003;
shapes = (
{
closed = 1;
nodes = (
(194,0,ls),
(355,0,o),
(463,63,o),
(479,189,cs),
(489,263,o),
(467,312,o),
(397,337,cs),
(391,339,o),
(391,343,o),
(397,345,cs),
(470,370,o),
(512,415,o),
(527,484,cs),
(553,607,o),
(487,667,o),
(336,667,cs),
(190,667,ls),
(162,667,o),
(136,654,o),
(133,629,cs),
(121,528,o),
(58,229,o),
(7,38,cs),
(0,13,o),
(20,0,o),
(48,0,cs)
);
},
{
closed = 1;
nodes = (
(112,70,o),
(106,78,o),
(108,90,cs),
(154,303,ls),
(154,307,o),
(158,310,o),
(162,310,cs),
(261,310,ls),
(371,310,o),
(418,272,o),
(400,190,cs),
(381,98,o),
(319,70,o),
(210,70,cs),
(124,70,ls)
);
},
{
closed = 1;
nodes = (
(172,370,o),
(169,372,o),
(170,377,cs),
(184,444,o),
(200,519,o),
(205,585,c),
(208,598,o),
(218,607,o),
(230,607,cs),
(324,607,ls),
(424,607,o),
(466,570,o),
(448,484,cs),
(432,407,o),
(374,370,o),
(274,370,cs),
(176,370,ls)
);
}
);
width = 532;
}
);
metricLeft = "=H";
metricRight = "=H/4";
note = P;
},
{
glyphname = D.salt;
kernLeft = KO_E;
kernRight = KO_O;
lastChange = "2025-01-03 22:27:28 +0000";
layers = (
{
hints = (
{
horizontal = 1;
place = (-10,80);
type = Stem;
},
{
horizontal = 1;
place = (597,80);
type = Stem;
},
{
place = (-36,110);
type = Stem;
},
{
place = (354,110);
type = Stem;
}
);
layerId = m005;
shapes = (
{
closed = 1;
nodes = (
(241,0,ls),
(395,0,o),
(508,126,o),
(555,347,cs),
(602,571,o),
(537,667,o),
(383,667,cs),
(207,667,ls),
(176,667,o),
(142,649,o),
(137,618,cs),
(107,428,o),
(67,239,o),
(17,49,cs),
(8,18,o),
(34,0,o),
(65,0,cs)
);
},
{
closed = 1;
nodes = (
(172,262,o),
(203,409,o),
(229,572,cs),
(229,578,o),
(234,582,o),
(240,582,cs),
(365,582,ls),
(460,582,o),
(493,526,o),
(455,347,cs),
(417,171,o),
(355,90,o),
(260,90,cs),
(135,90,ls),
(129,90,o),
(126,94,o),
(128,100,cs)
);
}
);
width = 593;
},
{
hints = (
{
horizontal = 1;
place = (-10,80);
type = Stem;
},
{
horizontal = 1;
place = (597,80);
type = Stem;
},
{
place = (-36,110);
type = Stem;
},
{
place = (354,110);
type = Stem;
}
);
layerId = m002;
shapes = (
{
closed = 1;
nodes = (
(234,-25,ls),
(417,-25,o),
(555,124,o),
(603,347,cs),
(651,573,o),
(569,692,o),
(386,692,cs),
(210,692,ls),
(151,692,o),
(88,651,o),
(80,590,cs),
(50,402,o),
(20,265,o),
(-30,77,cs),
(-46,16,o),
(-1,-25,o),
(58,-25,cs)
);
},
{
closed = 1;
nodes = (
(217,285,o),
(236,380,o),
(242,408,cs),
(254,464,o),
(253,507,o),
(292,507,cs),
(347,507,ls),
(417,507,o),
(431,480,o),
(403,347,cs),
(375,215,o),
(346,165,o),
(274,165,cs),
(219,165,ls),
(206,165,o),
(187,180,o),
(192,198,cs)
);
}
);
width = 594;
},
{
hints = (
{
horizontal = 1;
place = (-10,80);
type = Stem;
},
{
horizontal = 1;
place = (597,80);
type = Stem;
},
{
place = (-36,110);
type = Stem;
},
{
place = (354,110);
type = Stem;
}
);
layerId = m003;
shapes = (
{
closed = 1;
nodes = (
(214,0,ls),
(364,0,o),
(470,120,o),
(518,347,cs),
(567,577,o),
(506,667,o),
(356,667,cs),
(180,667,ls),
(152,667,o),
(126,654,o),
(123,629,cs),
(92,438,o),
(48,229,o),
(-3,38,cs),
(-10,13,o),
(10,0,o),
(38,0,cs)
);
},
{
closed = 1;
nodes = (
(133,252,o),
(168,419,o),
(194,581,c),
(194,593,o),
(205,602,o),
(217,602,cs),
(342,602,ls),
(443,602,o),
(479,542,o),
(438,347,cs),
(397,154,o),
(329,70,o),
(229,70,cs),
(104,70,ls),
(92,70,o),
(85,79,o),
(89,91,c)
);
}
);
width = 570;
}
);
metricLeft = "=|H";
metricRight = "=O";
note = O;
},
{
glyphname = H.salt;
kernRight = KO_H;
lastChange = "2025-01-03 22:27:25 +0000";
layers = (
{
hints = (
{
horizontal = 1;
place = (0,21);
target = up;
type = BottomGhost;
},
{
horizontal = 1;
place = (305,75);
type = Stem;
},
{
place = (-1,100);
type = Stem;
},
{
place = (359,100);
type = Stem;
}
);
layerId = m005;
shapes = (
{
closed = 1;
nodes = (
(40,0,ls),
(71,0,o),
(107,18,o),
(110,49,cs),
(117,130,o),
(134,209,o),
(151,290,cs),
(152,297,o),
(157,300,o),
(163,300,cs),
(393,300,ls),
(399,300,o),
(402,296,o),
(401,290,cs),
(384,209,o),
(367,130,o),
(340,49,cs),
(329,18,o),
(357,0,o),
(388,0,cs),
(390,0,ls),
(421,0,o),
(455,18,o),
(460,49,cs),
(490,239,o),
(530,428,o),
(580,618,cs),
(589,649,o),
(563,667,o),
(532,667,cs),
(530,667,ls),
(499,667,o),
(477,649,o),
(470,618,cs),
(422,390,ls),
(421,384,o),
(416,380,o),
(410,380,cs),
(180,380,ls),
(174,380,o),
(171,383,o),
(172,390,cs),
(188,466,o),
(204,542,o),
(230,618,cs),
(241,649,o),
(213,667,o),
(182,667,cs),
(180,667,ls),
(149,667,o),
(115,649,o),
(110,618,cs),
(80,428,o),
(40,239,o),
(0,49,cs),
(-7,18,o),
(7,0,o),
(38,0,cs)
);
}
);
width = 570;
},
{
hints = (
{
horizontal = 1;
place = (0,21);
target = up;
type = BottomGhost;
},
{
horizontal = 1;
place = (305,75);
type = Stem;
},
{
place = (-1,100);
type = Stem;
},
{
place = (359,100);
type = Stem;
}
);
layerId = m002;
shapes = (
{
closed = 1;
nodes = (
(60,-25,ls),
(122,-25,o),
(186,19,o),
(191,80,cs),
(195,128,o),
(197,151,o),
(206,199,cs),
(213,232,o),
(235,250,o),
(267,250,cs),
(317,250,ls),
(349,250,o),
(363,232,o),
(357,200,cs),
(345,151,o),
(337,128,o),
(321,80,cs),
(300,19,o),
(346,-25,o),
(408,-25,cs),
(410,-25,ls),
(469,-25,o),
(532,16,o),
(540,77,cs),
(570,265,o),
(600,402,o),
(650,590,cs),
(666,651,o),
(621,692,o),
(562,692,cs),
(560,692,ls),
(501,692,o),
(453,652,o),
(440,593,cs),
(416,480,ls),
(409,448,o),
(388,430,o),
(356,430,cs),
(306,430,ls),
(274,430,o),
(259,448,o),
(267,480,cs),
(278,525,o),
(284,543,o),
(299,587,cs),
(320,648,o),
(274,692,o),
(212,692,cs),
(210,692,ls),
(151,692,o),
(88,651,o),
(80,590,cs),
(50,402,o),
(20,264,o),
(-20,74,cs),
(-33,15,o),
(-1,-25,o),
(58,-25,cs)
);
}
);
width = 620;
},
{
hints = (
{
horizontal = 1;
place = (0,21);
target = up;
type = BottomGhost;
},
{
horizontal = 1;
place = (305,75);
type = Stem;
},
{
place = (-1,100);
type = Stem;
},
{
place = (359,100);
type = Stem;
}
);
layerId = m003;
shapes = (
{
closed = 1;
nodes = (
(40,0,ls),
(71,0,o),
(107,18,o),
(110,49,cs),
(117,130,o),
(134,209,o),
(151,290,cs),
(152,297,o),
(157,300,o),
(163,300,cs),
(393,300,ls),
(399,300,o),
(402,296,o),
(401,290,cs),
(384,209,o),
(367,130,o),
(340,49,cs),
(329,18,o),
(357,0,o),
(388,0,cs),
(390,0,ls),
(421,0,o),
(455,18,o),
(460,49,cs),
(490,239,o),
(530,428,o),
(580,618,cs),
(589,649,o),
(563,667,o),
(532,667,cs),
(530,667,ls),
(499,667,o),
(477,649,o),
(470,618,cs),
(422,390,ls),
(421,384,o),
(416,380,o),
(410,380,cs),
(180,380,ls),
(174,380,o),
(171,383,o),
(172,390,cs),
(188,466,o),
(204,542,o),
(230,618,cs),
(241,649,o),
(213,667,o),
(182,667,cs),
(180,667,ls),
(149,667,o),
(115,649,o),
(110,618,cs),
(80,428,o),
(40,239,o),
(0,49,cs),
(-7,18,o),
(7,0,o),
(38,0,cs)
);
}
);
width = 570;
}
);
note = H;
},
{
glyphname = I.salt;
kernRight = KO_H;
lastChange = "2025-01-03 22:27:28 +0000";
layers = (
{
anchors = (
{
name = bottom;
pos = (50,0);
},
{
name = ogonek;
pos = (140,10);
},
{
name = top;
pos = (183,625);
},
{
name = topleft;
pos = (102,667);
}
);
hints = (
{
horizontal = 1;
place = (0,21);
target = up;
type = BottomGhost;
},
{
place = (-1,100);
type = Stem;
}
);
layerId = m005;
shapes = (
{
closed = 1;
nodes = (
(51,0,ls),
(82,0,o),
(116,18,o),
(121,49,cs),
(151,239,o),
(191,428,o),
(241,618,cs),
(250,649,o),
(224,667,o),
(193,667,cs),
(191,667,ls),
(160,667,o),
(138,649,o),
(131,618,cs),
(91,428,o),
(51,239,o),
(1,49,cs),
(-8,18,o),
(18,0,o),
(49,0,cs)
);
}
);
width = 231;
},
{
anchors = (
{
name = bottom;
pos = (80,0);
},
{
name = ogonek;
pos = (170,10);
},
{
name = top;
pos = (213,625);
},
{
name = topleft;
pos = (132,667);
}
);
hints = (
{
horizontal = 1;
place = (0,21);
target = up;
type = BottomGhost;
},
{
place = (-1,100);
type = Stem;
}
);
layerId = m002;
shapes = (
{
closed = 1;
nodes = (
(70,-50,ls),
(129,-50,o),
(192,-9,o),
(201,52,cs),
(231,240,o),
(271,427,o),
(321,615,cs),
(338,676,o),
(293,717,o),
(234,717,cs),
(232,717,ls),
(173,717,o),
(124,677,o),
(111,618,cs),
(71,428,o),
(31,240,o),
(-19,52,cs),
(-36,-9,o),
(9,-50,o),
(68,-50,cs)
);
}
);
width = 292;
},
{
anchors = (
{
name = bottom;
pos = (49,0);
},
{
name = ogonek;
pos = (139,10);
},
{
name = top;
pos = (182,625);
},
{
name = topleft;
pos = (101,667);
}
);
hints = (
{
horizontal = 1;
place = (0,21);
target = up;
type = BottomGhost;
},
{
place = (-1,100);
type = Stem;
}
);
layerId = m003;
shapes = (
{
closed = 1;
nodes = (
(50,0,ls),
(81,0,o),
(115,18,o),
(120,49,cs),
(150,239,o),
(190,428,o),
(240,618,cs),
(249,649,o),
(223,667,o),
(192,667,cs),
(190,667,ls),
(159,667,o),
(137,649,o),
(130,618,cs),
(90,428,o),
(50,239,o),
(0,49,cs),
(-9,18,o),
(17,0,o),
(48,0,cs)
);
}
);
width = 238;
}
);
metricLeft = "=H.salt";
metricRight = "=H";
note = I;
},
{
glyphname = a;
kernLeft = KO_a;
kernRight = KO_a;
lastChange = "2025-01-03 22:26:44 +0000";
layers = (
{
anchors = (
{
name = bottom;
pos = (205,0);
},
{
name = ogonek;
pos = (413,10);
},
{
name = top;
pos = (311,500);
}
);
hints = (
{
horizontal = 1;
place = (0,21);
target = up;
type = BottomGhost;
},
{
horizontal = 1;
place = (435,75);
type = Stem;
},
{
place = (-13,100);
type = Stem;
},
{
place = (277,95);
type = Stem;
},
{
horizontal = 1;
place = (-10,80);
type = Stem;
}
);
layerId = m005;
shapes = (
{
closed = 1;
nodes = (
(234,-10,o),
(294,55,o),
(309,55,cs),
(318,55,o),
(321,46,o),
(321,32,cs),
(321,11,o),
(329,0,o),
(353,0,cs),
(375,0,o),
(401,12,o),
(404,34,cs),
(413,124,o),
(450,297,o),
(488,429,cs),
(496,457,o),
(476,475,o),
(452,485,cs),
(416,499,o),
(374,510,o),
(310,510,cs),
(150,510,o),
(72,355,o),
(50,250,cs),
(45,225,ls),
(13,75,o),
(38,-10,o),
(145,-10,cs)
);
},
{
closed = 1;
nodes = (
(132,75,o),
(123,124,o),
(145,225,cs),
(150,250,ls),
(166,323,o),
(202,435,o),
(294,435,cs),
(330,435,o),
(363,430,o),
(379,427,cs),
(384,426,o),
(387,422,o),
(384,416,cs),
(365,344,o),
(345,272,o),
(329,200,cs),
(315,132,o),
(245,75,o),
(188,75,cs)
);
}
);
width = 513;
},
{
anchors = (
{
name = bottom;
pos = (218,0);
},
{
name = ogonek;
pos = (430,10);
},
{
name = top;
pos = (324,500);
}
);
hints = (
{
horizontal = 1;
place = (0,21);
target = up;
type = BottomGhost;
},
{
horizontal = 1;
place = (435,75);
type = Stem;
},
{
place = (-13,100);
type = Stem;
},
{
place = (277,95);
type = Stem;
},
{
horizontal = 1;
place = (-10,80);
type = Stem;
}
);
layerId = m002;
shapes = (
{
closed = 1;
nodes = (
(277,-25,o),
(305,40,o),
(323,40,cs),
(335,40,o),
(331,26,o),
(339,8,cs),
(345,-6,o),
(356,-15,o),
(368,-15,cs),
(420,-15,o),
(474,21,o),
(481,74,cs),
(489,162,o),
(510,260,o),
(548,390,cs),
(563,442,o),
(533,479,o),
(490,497,cs),
(452,512,o),
(402,525,o),
(331,525,cs),
(130,525,o),
(43,367,o),
(18,250,cs),
(13,225,ls),
(-23,57,o),
(16,-25,o),
(160,-25,cs)
);
},
{
closed = 1;
nodes = (
(194,160,o),
(204,186,o),
(213,225,cs),
(218,250,ls),
(225,281,o),
(247,350,o),
(294,350,cs),
(301,350,o),
(308,350,o),
(315,349,cs),
(329,349,o),
(331,330,o),
(322,298,cs),
(311,254,o),
(307,244,o),
(297,200,cs),
(292,176,o),
(250,160,o),
(224,160,cs)
);
}
);
width = 526;
},
{
anchors = (
{
name = bottom;
pos = (211,0);
},
{
name = ogonek;
pos = (419,10);
},
{
name = top;
pos = (317,500);
}
);
hints = (
{
horizontal = 1;
place = (0,21);
target = up;
type = BottomGhost;
},
{
horizontal = 1;
place = (435,75);
type = Stem;
},
{
place = (-13,100);
type = Stem;
},
{
place = (277,95);
type = Stem;
},
{
horizontal = 1;
place = (-10,80);
type = Stem;
}
);
layerId = m003;
shapes = (
{
closed = 1;
nodes = (
(239,-7,o),
(291,58,o),
(315,58,cs),
(329,58,o),
(336,47,o),
(336,27,cs),
(336,9,o),
(339,3,o),
(359,3,cs),
(379,3,o),
(396,11,o),
(398,26,cs),
(408,116,o),
(447,304,o),
(486,437,cs),
(492,459,o),
(476,473,o),
(455,483,cs),
(418,496,o),
(379,507,o),
(316,507,cs),
(164,507,o),
(88,354,o),
(66,250,cs),
(61,225,ls),
(29,77,o),
(50,-7,o),
(151,-7,cs)
);
},
{
closed = 1;
nodes = (
(126,58,o),
(119,121,o),
(141,225,cs),
(146,250,ls),
(162,324,o),
(202,452,o),
(304,452,cs),
(341,452,o),
(375,447,o),
(390,444,cs),
(401,442,o),
(406,433,o),
(402,422,c),
(382,350,o),
(360,271,o),
(345,200,cs),
(330,127,o),
(253,58,o),
(190,58,cs)
);
}
);
width = 514;
}
);
metricLeft = "=o";
metricRight = "=|n";
note = d;
unicode = 97;
userData = {
KernOnName = a;
};
},
{
glyphname = ae;
kernLeft = KO_ae;
kernRight = KO_e;
lastChange = "2025-01-03 22:33:20 +0000";
layers = (
{
anchors = (
{
name = bottom;
pos = (328,0);
},
{
name = top;
pos = (434,500);
}
);
hints = (
{
horizontal = 1;
place = (-10,75);
type = Stem;
},
{
horizontal = 1;
place = (215,65);
type = Stem;
},
{
horizontal = 1;
place = (440,70);
type = Stem;
},
{
place = (-23,90);
type = Stem;
},
{
place = (247,95);
type = Stem;
},
{
place = (527,100);
type = Stem;
},
{
horizontal = 1;
place = (250,60);
type = Stem;
},
{
horizontal = 1;
place = (-10,80);
type = Stem;
},
{
horizontal = 1;
place = (-10,75);
type = Stem;
},
{
horizontal = 1;
place = (215,65);
type = Stem;
},
{
horizontal = 1;
place = (440,70);
type = Stem;
},
{
place = (-13,100);
type = Stem;
},
{
place = (272,100);
type = Stem;
},
{
horizontal = 1;
place = (0,21);
target = up;
type = BottomGhost;
},
{
horizontal = 1;
place = (435,75);
type = Stem;
},
{
place = (-275,100);
type = Stem;
},
{
place = (15,95);
type = Stem;
},
{
horizontal = 1;
place = (-10,80);
type = Stem;
}
);
layerId = m005;
shapes = (
{
closed = 1;
nodes = (
(536,-10,o),
(594,9,o),
(619,19,cs),
(626,22,o),
(641,30,o),
(640,61,cs),
(640,83,o),
(618,108,o),
(594,100,cs),
(572,93,o),
(533,65,o),
(490,65,cs),
(403,65,o),
(389,122,o),
(405,208,cs),
(406,214,o),
(410,218,o),
(417,218,cs),
(515,218,o),
(701,223,o),
(729,352,cs),
(740,405,o),
(730,510,o),
(584,510,cs),
(424,510,o),
(346,355,o),
(324,250,cs),
(319,225,ls),
(296,120,o),
(314,-10,o),
(474,-10,cs)
);
},
{
closed = 1;
nodes = (
(426,288,o),
(423,292,o),
(424,298,cs),
(443,378,o),
(483,440,o),
(569,440,cs),
(623,440,o),
(636,398,o),
(628,350,cs),
(620,307,o),
(572,289,o),
(433,288,cs)
);
},
{
closed = 1;
nodes = (
(218,-10,o),
(358,59,o),
(399,249,c),
(404,275,ls),
(432,404,o),
(464,510,o),
(314,510,cs),
(264,510,o),
(218,498,o),
(189,488,cs),
(166,480,o),
(155,464,o),
(158,443,cs),
(158,442,o),
(159,441,o),
(158,440,cs),
(160,417,o),
(173,403,o),
(196,411,cs),
(218,418,o),
(249,435,o),
(283,435,cs),
(363,435,o),
(357,405,o),
(337,310,c),
(201,310,o),
(61,282,o),
(34,155,cs),
(13,59,o),
(14,-10,o),
(124,-10,cs)
);
},
{
closed = 1;
nodes = (
(120,65,o),
(112,99,o),
(124,155,cs),
(141,238,o),
(252,249,o),
(324,250,c),
(313,200,ls),
(299,132,o),
(227,65,o),
(170,65,cs)
);
}
);
width = 763;
},
{
anchors = (
{
name = bottom;
pos = (351,0);
},
{
name = top;
pos = (457,500);
}
);
hints = (
{
horizontal = 1;
place = (-10,75);
type = Stem;
},
{
horizontal = 1;
place = (215,65);
type = Stem;
},
{
horizontal = 1;
place = (440,70);
type = Stem;
},
{
place = (-23,90);
type = Stem;
},
{
place = (247,95);
type = Stem;
},
{
place = (527,100);
type = Stem;
},
{
horizontal = 1;
place = (250,60);
type = Stem;
},
{
horizontal = 1;
place = (-10,80);
type = Stem;
}
);
layerId = m002;
shapes = (
{
closed = 1;
nodes = (
(565,-25,o),
(632,-2,o),
(660,9,cs),
(691,22,o),
(722,54,o),
(721,108,cs),
(719,158,o),
(672,200,o),
(618,182,cs),
(591,174,o),
(557,150,o),
(530,150,cs),
(503,150,o),
(486,158,o),
(489,171,cs),
(493,189,o),
(504,203,o),
(543,207,cs),
(652,218,o),
(775,221,o),
(803,352,cs),
(816,417,o),
(795,525,o),
(609,525,cs),
(408,525,o),
(321,367,o),
(296,250,cs),
(291,225,ls),
(273,143,o),
(293,-25,o),
(493,-25,cs)
);
},
{
closed = 1;
nodes = (
(546,338,o),
(527,344,o),
(530,359,cs),
(535,382,o),
(561,390,o),
(581,390,cs),
(595,390,o),
(608,385,o),
(604,368,cs),
(601,353,o),
(596,341,o),
(561,339,cs)
);
},
{
closed = 1;
nodes = (
(262,-25,o),
(430,52,o),
(472,249,cs),
(477,275,ls),
(504,400,o),
(541,525,o),
(340,525,cs),
(283,525,o),
(228,511,o),
(196,500,cs),
(150,483,o),
(129,479,o),
(130,436,cs),
(130,437,o),
(130,437,o),
(130,438,cs),
(129,378,o),
(170,345,o),
(226,364,cs),
(254,373,o),
(275,385,o),
(296,385,cs),
(317,385,o),
(323,385,o),
(319,359,c),
(185,351,o),
(39,307,o),
(7,155,cs),
(-10,75,o),
(-8,-25,o),
(144,-25,cs)
);
},
{
closed = 1;
nodes = (
(196,140,o),
(194,143,o),
(197,155,cs),
(202,181,o),
(241,192,o),
(286,197,c),
(286,200,ls),
(277,158,o),
(236,140,o),
(209,140,cs)
);
}
);
width = 808;
},
{
anchors = (
{
name = bottom;
pos = (349,0);
},
{
name = top;
pos = (455,500);
}
);
hints = (
{
horizontal = 1;
place = (-10,75);
type = Stem;
},
{
horizontal = 1;
place = (215,65);
type = Stem;
},
{
horizontal = 1;
place = (440,70);
type = Stem;
},
{
place = (-23,90);
type = Stem;
},
{
place = (247,95);
type = Stem;
},
{
place = (527,100);
type = Stem;
},
{
horizontal = 1;
place = (250,60);
type = Stem;
},
{
horizontal = 1;
place = (-10,80);
type = Stem;
}
);
layerId = m003;
shapes = (
{
closed = 1;
nodes = (
(556,-7,o),
(614,12,o),
(640,22,cs),
(646,25,o),
(659,31,o),
(658,60,cs),
(657,81,o),
(637,104,o),
(615,97,cs),
(593,90,o),
(554,62,o),
(510,62,cs),
(421,62,o),
(407,121,o),
(423,208,cs),
(425,215,o),
(430,221,o),
(439,221,cs),
(537,221,o),
(720,226,o),
(747,352,cs),
(758,404,o),
(749,507,o),
(605,507,cs),
(447,507,o),
(370,354,o),
(348,250,cs),
(343,225,ls),
(321,121,o),
(337,-7,o),
(495,-7,cs)
);
},
{
closed = 1;
nodes = (
(444,285,o),
(441,290,o),
(442,298,cs),
(461,379,o),
(503,443,o),
(591,443,cs),
(647,443,o),
(661,399,o),
(652,350,cs),
(644,305,o),
(594,286,o),
(453,285,cs)
);
},
{
closed = 1;
nodes = (
(238,-7,o),
(377,61,o),
(417,249,cs),
(422,275,ls),
(450,404,o),
(482,507,o),
(335,507,cs),
(285,507,o),
(239,495,o),
(210,485,cs),
(188,478,o),
(179,464,o),
(182,443,c),
(182,441,o),
(183,441,o),
(182,440,c),
(185,419,o),
(195,407,o),
(217,414,cs),
(238,421,o),
(270,438,o),
(305,438,cs),
(389,438,o),
(381,404,o),
(360,307,c),
(223,307,o),
(84,280,o),
(58,155,cs),
(37,59,o),
(37,-7,o),
(145,-7,cs)
);
},
{
closed = 1;
nodes = (
(138,62,o),
(130,98,o),
(142,155,cs),
(160,242,o),
(276,252,o),
(349,253,c),
(337,200,ls),
(322,130,o),
(249,62,o),
(190,62,cs)
);
}
);
width = 801;
}
);
metricLeft = "=a";
metricRight = "=e";
note = ae;
unicode = 230;
},
{
glyphname = b;
kernLeft = KO_h;
kernRight = KO_p;
lastChange = "2025-01-03 22:26:44 +0000";
layers = (
{
hints = (
{
horizontal = 1;
place = (-10,70);
type = Stem;
},
{
horizontal = 1;
place = (430,80);
type = Stem;
},
{
place = (-14,95);
type = Stem;
},
{
place = (271,100);
type = Stem;
},
{
horizontal = 1;
place = (0,21);
target = up;
type = BottomGhost;
}
);
layerId = m005;
shapes = (
{
closed = 1;
nodes = (
(363,-10,o),
(441,145,o),
(464,250,cs),
(469,275,ls),
(501,425,o),
(476,510,o),
(369,510,cs),
(280,510,o),
(238,461,o),
(229,461,cs),
(220,461,o),
(220,469,o),
(227,500,cs),
(238,550,o),
(255,611,o),
(271,661,cs),
(281,692,o),
(254,710,o),
(223,710,cs),
(190,710,o),
(168,692,o),
(161,661,cs),
(118,460,o),
(74,249,o),
(21,48,cs),
(12,17,o),
(38,0,o),
(68,-2,cs),
(106,-5,o),
(141,-10,o),
(203,-10,cs)
);
},
{
closed = 1;
nodes = (
(192,80,o),
(163,83,o),
(145,88,cs),
(142,89,o),
(140,93,o),
(142,99,cs),
(184,300,ls),
(199,368,o),
(271,435,o),
(328,435,cs),
(384,435,o),
(391,376,o),
(369,275,cs),
(364,250,ls),
(348,177,o),
(315,80,o),
(223,80,cs)
);
}
);
width = 516;
},
{
hints = (
{
horizontal = 1;
place = (-10,70);
type = Stem;
},
{
horizontal = 1;
place = (430,80);
type = Stem;
},
{
place = (-14,95);
type = Stem;
},
{
place = (271,100);
type = Stem;
},
{
horizontal = 1;
place = (0,21);
target = up;
type = BottomGhost;
}
);
layerId = m002;
shapes = (
{
closed = 1;
nodes = (
(400,-25,o),
(495,168,o),
(513,250,cs),
(518,275,ls),
(554,443,o),
(515,525,o),
(381,525,cs),
(351,525,o),
(314,513,o),
(295,506,cs),
(287,503,o),
(276,502,o),
(279,514,cs),
(285,542,o),
(296,571,o),
(312,621,cs),
(331,682,o),
(286,725,o),
(225,725,cs),
(164,725,o),
(115,685,o),
(103,626,cs),
(60,425,o),
(30,285,o),
(-22,86,cs),
(-37,32,o),
(-4,-13,o),
(60,-17,cs),
(96,-20,o),
(134,-25,o),
(199,-25,cs)
);
},
{
closed = 1;
nodes = (
(233,165,o),
(224,164,o),
(218,171,cs),
(212,177,o),
(209,184,o),
(213,204,cs),
(226,265,ls),
(236,314,o),
(275,350,o),
(309,350,cs),
(329,350,o),
(330,329,o),
(318,275,cs),
(313,250,ls),
(305,215,o),
(288,165,o),
(240,165,cs)
);
}
);
width = 533;
},
{
hints = (
{
horizontal = 1;
place = (-10,70);
type = Stem;
},
{
horizontal = 1;
place = (430,80);
type = Stem;
},
{
place = (-14,95);
type = Stem;
},
{
place = (271,100);
type = Stem;
},
{
horizontal = 1;
place = (0,21);
target = up;
type = BottomGhost;
}
);
layerId = m003;
shapes = (
{
closed = 1;
nodes = (
(355,-7,o),
(431,146,o),
(453,250,cs),
(458,275,ls),
(491,430,o),
(468,507,o),
(367,507,cs),
(284,507,o),
(241,458,o),
(227,458,cs),
(211,458,o),
(209,468,o),
(217,507,cs),
(228,557,o),
(246,619,o),
(262,669,cs),
(269,694,o),
(249,707,o),
(221,707,cs),
(192,707,o),
(177,695,o),
(172,668,cs),
(129,467,o),
(81,242,o),
(28,40,cs),
(21,16,o),
(40,3,o),
(69,1,cs),
(106,-2,o),
(142,-7,o),
(203,-7,cs)
);
},
{
closed = 1;
nodes = (
(186,63,o),
(157,66,o),
(139,71,cs),
(130,73,o),
(127,81,o),
(129,92,cs),
(175,307,ls),
(190,379,o),
(267,452,o),
(331,452,cs),
(395,452,o),
(402,386,o),
(378,275,cs),
(373,250,ls),
(357,176,o),
(319,63,o),
(218,63,cs)
);
}
);
width = 523;
}
);
metricLeft = "=n";
metricRight = "=o";
note = b;
unicode = 98;
},
{
glyphname = c;
kernLeft = KO_e;
kernRight = KO_c;
lastChange = "2025-01-03 22:26:44 +0000";
layers = (
{
anchors = (
{
name = bottom;
pos = (202,0);
},
{
name = top;
pos = (308,500);
}
);
hints = (
{
horizontal = 1;
place = (-10,80);
type = Stem;
},
{
horizontal = 1;
place = (435,75);
type = Stem;
},
{
place = (-13,100);
type = Stem;
}
);
layerId = m005;
shapes = (
{
closed = 1;
nodes = (
(247,-10,o),
(298,5,o),
(324,16,cs),
(334,20,o),
(352,33,o),
(351,60,cs),
(348,83,o),
(329,107,o),
(304,99,cs),
(283,92,o),
(250,65,o),
(216,65,cs),
(126,65,o),
(130,157,o),
(145,225,cs),
(150,250,ls),
(164,318,o),
(204,435,o),
(294,435,cs),
(313,435,o),
(329,432,o),
(341,426,cs),
(359,418,o),
(372,416,o),
(390,430,cs),
(405,441,ls),
(426,458,o),
(432,479,o),
(411,490,cs),
(387,503,o),
(353,510,o),
(310,510,cs),
(150,510,o),
(72,355,o),
(50,250,cs),
(45,225,ls),
(22,120,o),
(40,-10,o),
(200,-10,cs)
);
}
);
width = 402;
},
{
anchors = (
{
name = bottom;
pos = (215,0);
},
{
name = top;
pos = (321,500);
}
);
hints = (
{
horizontal = 1;
place = (-10,80);
type = Stem;
},
{
horizontal = 1;
place = (435,75);
type = Stem;
},
{
place = (-13,100);
type = Stem;
}
);
layerId = m002;
shapes = (
{
closed = 1;
nodes = (
(266,-25,o),
(325,-7,o),
(356,5,cs),
(390,19,o),
(425,58,o),
(422,110,cs),
(416,160,o),
(372,199,o),
(317,181,cs),
(295,173,o),
(262,150,o),
(247,150,cs),
(200,150,o),
(202,196,o),
(208,225,cs),
(213,250,ls),
(227,315,o),
(243,350,o),
(289,350,cs),
(303,350,o),
(309,349,o),
(317,345,cs),
(355,328,o),
(390,333,o),
(422,358,cs),
(436,369,ls),
(491,411,o),
(497,474,o),
(448,500,cs),
(418,516,o),
(375,525,o),
(326,525,cs),
(125,525,o),
(38,367,o),
(13,250,cs),
(8,225,ls),
(-17,108,o),
(10,-25,o),
(210,-25,cs)
);
}
);
width = 482;
},
{
anchors = (
{
name = bottom;
pos = (202,0);
},
{
name = top;
pos = (308,500);
}
);
hints = (
{
horizontal = 1;
place = (-10,80);
type = Stem;
},
{
horizontal = 1;
place = (435,75);
type = Stem;
},
{
place = (-13,100);
type = Stem;
}
);
layerId = m003;
shapes = (
{
closed = 1;
nodes = (
(245,-7,o),
(294,7,o),
(321,18,cs),
(330,22,o),
(340,29,o),
(338,50,cs),
(336,71,o),
(322,88,o),
(304,83,cs),
(285,76,o),
(250,48,o),
(212,48,cs),
(113,48,o),
(120,156,o),
(135,225,cs),
(140,250,ls),
(155,319,o),
(199,452,o),
(298,452,cs),
(318,452,o),
(335,449,o),
(349,442,cs),
(365,435,o),
(373,434,o),
(386,444,cs),
(401,455,ls),
(420,469,o),
(422,480,o),
(407,488,cs),
(383,500,o),
(352,507,o),
(310,507,cs),
(158,507,o),
(82,354,o),
(60,250,cs),
(55,225,ls),
(33,122,o),
(47,-7,o),
(200,-7,cs)
);
}
);
width = 430;
}
);
metricLeft = "=o";
metricRight = "=o/4";
note = c;
unicode = 99;
userData = {
KernOnName = c;
};
},
{
glyphname = d;
kernLeft = KO_a;
kernRight = KO_d;
lastChange = "2025-01-03 22:26:44 +0000";
layers = (
{
anchors = (
{
name = bottom;
pos = (212,0);
},
{
name = center;
pos = (462,560);
},
{
name = top;
pos = (318,500);
},
{
name = topright;
pos = (603,700);
}
);
hints = (
{
horizontal = 1;
place = (0,21);
target = up;
type = BottomGhost;
},
{
horizontal = 1;
place = (435,75);
type = Stem;
},
{
place = (-34,100);
type = Stem;
},
{
place = (256,95);
type = Stem;
},
{
horizontal = 1;
place = (-10,80);
type = Stem;
}
);
layerId = m005;
shapes = (
{
closed = 1;
nodes = (
(234,-10,o),
(294,55,o),
(309,55,cs),
(318,55,o),
(321,46,o),
(321,32,cs),
(322,11,o),
(329,-5,o),
(366,-5,cs),
(401,-5,o),
(420,23,o),
(417,44,cs),
(404,124,o),
(443,310,o),
(538,661,cs),
(547,692,o),
(521,710,o),
(488,710,cs),
(457,710,o),
(435,692,o),
(428,661,cs),
(396,511,ls),
(395,504,o),
(390,501,o),
(384,503,cs),
(370,506,o),
(344,510,o),
(311,510,cs),
(151,510,o),
(73,355,o),
(51,250,cs),
(45,225,ls),
(14,75,o),
(38,-10,o),
(145,-10,cs)
);
},
{
closed = 1;
nodes = (
(133,75,o),
(124,124,o),
(145,225,cs),
(151,250,ls),
(166,323,o),
(203,435,o),
(295,435,cs),
(330,435,o),
(357,430,o),
(369,427,cs),
(375,426,o),
(377,422,o),
(376,416,cs),
(330,200,ls),
(316,132,o),
(246,75,o),
(189,75,cs)
);
}
);
width = 526;
},
{
anchors = (
{
name = bottom;
pos = (223,0);
},
{
name = center;
pos = (475,560);
},
{
name = top;
pos = (329,500);
},
{
name = topright;
pos = (618,700);
}
);
hints = (
{
horizontal = 1;
place = (0,21);
target = up;
type = BottomGhost;
},
{
horizontal = 1;
place = (435,75);
type = Stem;
},
{
place = (-34,100);
type = Stem;
},
{
place = (256,95);
type = Stem;
},
{
horizontal = 1;
place = (-10,80);
type = Stem;
}
);
layerId = m002;
shapes = (
{
closed = 1;
nodes = (
(226,-25,o),
(272,-2,o),
(292,12,cs),
(305,21,o),
(322,21,o),
(325,5,cs),
(327,-9,o),
(335,-20,o),
(379,-20,cs),
(449,-20,o),
(490,20,o),
(485,62,cs),
(477,121,o),
(503,274,o),
(597,623,cs),
(614,684,o),
(569,725,o),
(508,725,cs),
(449,725,o),
(400,685,o),
(388,626,cs),
(371,549,ls),
(368,533,o),
(357,524,o),
(340,525,cs),
(337,525,o),
(334,525,o),
(331,525,cs),
(130,525,o),
(43,367,o),
(18,250,cs),
(12,225,ls),
(-23,57,o),
(15,-25,o),
(159,-25,cs)
);
},
{
closed = 1;
nodes = (
(202,160,o),
(200,168,o),
(212,225,cs),
(218,250,ls),
(233,320,o),
(249,360,o),
(296,360,cs),
(302,360,o),
(308,360,o),
(314,359,cs),
(325,359,o),
(329,349,o),
(326,334,cs),
(305,235,ls),
(295,188,o),
(261,160,o),
(224,160,cs)
);
}
);
width = 575;
},
{
anchors = (
{
name = bottom;
pos = (217,0);
},
{
name = center;
pos = (468,560);
},
{
name = top;
pos = (323,500);
},
{
name = topright;
pos = (609,700);
}
);
hints = (
{
horizontal = 1;
place = (0,21);
target = up;
type = BottomGhost;
},
{
horizontal = 1;
place = (435,75);
type = Stem;
},
{
place = (-34,100);
type = Stem;
},
{
place = (256,95);
type = Stem;
},
{
horizontal = 1;
place = (-10,80);
type = Stem;
}
);
layerId = m003;
shapes = (
{
closed = 1;
nodes = (
(239,-7,o),
(291,58,o),
(315,58,cs),
(329,58,o),
(336,47,o),
(335,27,cs),
(335,8,o),
(340,-2,o),
(371,-2,cs),
(400,-2,o),
(413,17,o),
(411,33,cs),
(397,115,o),
(440,317,o),
(535,669,cs),
(542,694,o),
(522,707,o),
(494,707,cs),
(465,707,o),
(450,695,o),
(445,668,cs),
(409,502,ls),
(408,497,o),
(405,494,o),
(400,496,cs),
(384,501,o),
(353,507,o),
(315,507,cs),
(163,507,o),
(88,354,o),
(66,250,cs),
(60,225,ls),
(29,77,o),
(50,-7,o),
(151,-7,cs)
);
},
{
closed = 1;
nodes = (
(126,58,o),
(118,121,o),
(140,225,cs),
(146,250,ls),
(161,324,o),
(202,452,o),
(304,452,cs),
(342,452,o),
(373,446,o),
(390,441,cs),
(394,440,o),
(395,437,o),
(395,433,cs),
(345,200,ls),
(330,127,o),
(253,58,o),
(190,58,cs)
);
}
);
width = 563;
}
);
metricLeft = "=o";
metricRight = "=|n";
note = d;
unicode = 100;
userData = {
KernOnName = d;
};
},
{
glyphname = dcroat;
kernLeft = KO_aacute;
kernRight = KO_dcroat;
lastChange = "2025-01-03 22:34:20 +0000";
layers = (
{
anchors = (
{
name = top;
pos = (369,633);
}
);
hints = (
{
horizontal = 1;
place = (568,65);
type = Stem;
},
{
place = (169,400);
type = Stem;
}
);
layerId = m003;
shapes = (
{
ref = d;
},
{
closed = 1;
nodes = (
(577,601,ls),
(581,619,o),
(565,642,o),
(546,640,cs),
(432,630,o),
(320,630,o),
(208,630,cs),
(190,630,o),
(177,619,o),
(173,601,cs),
(173,600,ls),
(169,581,o),
(175,559,o),
(194,561,cs),
(308,571,o),
(420,571,o),
(530,561,cs),
(547,559,o),
(573,582,o),
(577,600,cs)
);
}
);
width = 576;
},
{
anchors = (
{
name = top;
pos = (335,633);
}
);
hints = (
{
horizontal = 1;
place = (568,65);
type = Stem;
},
{
place = (135,400);
type = Stem;
}
);
layerId = m005;
shapes = (
{
ref = d;
},
{
closed = 1;
nodes = (
(586,601,ls),
(590,621,o),
(573,645,o),
(553,643,cs),
(439,633,o),
(327,633,o),
(215,633,cs),
(195,633,o),
(180,621,o),
(176,601,cs),
(176,600,ls),
(172,580,o),
(179,556,o),
(199,558,cs),
(313,568,o),
(425,568,o),
(535,558,cs),
(555,556,o),
(582,580,o),
(586,600,cs)
);
}
);
width = 545;
},
{
anchors = (
{
name = top;
pos = (353,653);
}
);
hints = (
{
horizontal = 1;
place = (588,65);
type = Stem;
},
{
place = (153,400);
type = Stem;
}
);
layerId = m002;
shapes = (
{
ref = d;
},
{
closed = 1;
nodes = (
(641,624,ls),
(649,659,o),
(621,694,o),
(586,691,cs),
(473,681,o),
(362,681,o),
(250,681,cs),
(216,681,o),
(188,658,o),
(181,624,cs),
(181,623,ls),
(174,589,o),
(189,552,o),
(226,556,cs),
(339,566,o),
(449,566,o),
(558,556,cs),
(591,553,o),
(634,588,o),
(641,623,cs)
);
}
);
width = 588;
}
);
metricLeft = "=d";
unicode = 273;
},
{
glyphname = eth;
kernLeft = KO_eth;
lastChange = "2024-12-25 19:07:37 +0000";
layers = (
{
hints = (
{
horizontal = 1;
place = (-10,70);
type = Stem;
},
{
horizontal = 1;
place = (340,70);
type = Stem;
},
{
horizontal = 1;
place = (612,65);
type = Stem;
},
{
place = (24,112);
type = Stem;
},
{
place = (364,117);
type = Stem;
},
{
horizontal = 1;
place = (182.967,45.255);
type = Stem;
},
{
place = (356.569,282.843);
type = Stem;
}
);
layerId = m005;
shapes = (
{
pos = (552,0);
ref = six;
scale = (-1,1);
},
{
closed = 1;
nodes = (
(377,675,ls),
(359,693,o),
(330,702,o),
(315,682,cs),
(270,623,o),
(217,570,o),
(165,518,cs),
(147,500,o),
(147,481,o),
(165,463,cs),
(166,462,ls),
(184,444,o),
(213,435,o),
(229,454,cs),
(274,514,o),
(326,566,o),
(378,619,cs),
(396,636,o),
(396,656,o),
(378,674,cs)
);
}
);
width = 552;
},
{
hints = (
{
horizontal = 1;
place = (-10,70);
type = Stem;
},
{
horizontal = 1;
place = (340,70);
type = Stem;
},
{
horizontal = 1;
place = (612,65);
type = Stem;
},
{
place = (24,112);
type = Stem;
},
{
place = (364,117);
type = Stem;
},
{
horizontal = 1;
place = (182.967,45.255);
type = Stem;
},
{
place = (356.569,282.843);
type = Stem;
}
);
layerId = m002;
shapes = (
{
pos = (547,1);
ref = six;
scale = (-1,1);
},
{
closed = 1;
nodes = (
(409,714,ls),
(371,752,o),
(316,764,o),
(283,721,cs),
(236,660,o),
(200,607,o),
(146,553,cs),
(108,515,o),
(88,499,o),
(126,461,cs),
(135,453,ls),
(173,414,o),
(227,432,o),
(260,476,cs),
(308,537,o),
(303,532,o),
(357,587,cs),
(396,625,o),
(456,667,o),
(417,706,cs)
);
}
);
width = 552;
},
{
hints = (
{
horizontal = 1;
place = (-10,70);
type = Stem;
},
{
horizontal = 1;
place = (340,70);
type = Stem;
},
{
horizontal = 1;
place = (612,65);
type = Stem;
},
{
place = (24,112);
type = Stem;
},
{
place = (364,117);
type = Stem;
},
{
horizontal = 1;
place = (182.967,45.255);
type = Stem;
},
{
place = (356.569,282.843);
type = Stem;
}
);
layerId = m003;
shapes = (
{
pos = (552,0);
ref = six;
scale = (-1,1);
},
{
closed = 1;
nodes = (
(370,668,ls),
(354,684,o),
(334,690,o),
(323,676,cs),
(277,616,o),
(224,563,o),
(172,511,cs),
(157,496,o),
(157,485,o),
(172,470,cs),
(173,469,ls),
(190,452,o),
(209,447,o),
(221,461,cs),
(266,520,o),
(319,573,o),
(371,626,cs),
(386,640,o),
(386,652,o),
(371,667,cs)
);
}
);
width = 552;
}
);
note = eth;
unicode = 240;
},
{
glyphname = e;
kernLeft = KO_e;
kernRight = KO_e;
lastChange = "2025-01-03 22:26:44 +0000";
layers = (
{
anchors = (
{
name = bottom;
pos = (202,0);
},
{
name = ogonek;
pos = (345,19);
},
{
name = top;
pos = (308,500);
}
);
hints = (
{
horizontal = 1;
place = (-10,75);
type = Stem;
},
{
horizontal = 1;
place = (215,65);
type = Stem;
},
{
horizontal = 1;
place = (440,70);
type = Stem;
},
{
place = (-13,100);
type = Stem;
},
{
place = (272,100);
type = Stem;
}
);
layerId = m005;
shapes = (
{
closed = 1;
nodes = (
(262,-10,o),
(320,9,o),
(345,19,cs),
(352,22,o),
(367,30,o),
(366,61,cs),
(366,83,o),
(344,108,o),
(320,100,cs),
(298,93,o),
(259,65,o),
(216,65,cs),
(129,65,o),
(115,122,o),
(131,208,cs),
(132,214,o),
(136,218,o),
(143,218,cs),
(241,218,o),
(427,223,o),
(455,352,cs),
(466,405,o),
(456,510,o),
(310,510,cs),
(150,510,o),
(72,355,o),
(50,250,cs),
(45,225,ls),
(22,120,o),
(40,-10,o),
(200,-10,cs)
);
},
{
closed = 1;
nodes = (
(152,288,o),
(149,292,o),
(150,298,cs),
(169,378,o),
(209,440,o),
(295,440,cs),
(349,440,o),
(362,398,o),
(354,350,cs),
(346,307,o),
(298,289,o),
(159,288,cs)
);
}
);
width = 489;
},
{
anchors = (
{
name = bottom;
pos = (212,0);
},
{
name = ogonek;
pos = (374,9);
},
{
name = top;
pos = (318,500);
}
);
hints = (
{
horizontal = 1;
place = (-10,75);
type = Stem;
},
{
horizontal = 1;
place = (215,65);
type = Stem;
},
{
horizontal = 1;
place = (440,70);
type = Stem;
},
{
place = (-13,100);
type = Stem;
},
{
place = (272,100);
type = Stem;
}
);
layerId = m002;
shapes = (
{
closed = 1;
nodes = (
(279,-25,o),
(346,-2,o),
(374,9,cs),
(405,22,o),
(436,54,o),
(435,108,cs),
(433,158,o),
(386,200,o),
(332,182,cs),
(305,174,o),
(271,150,o),
(244,150,cs),
(217,150,o),
(200,158,o),
(203,171,cs),
(207,189,o),
(218,203,o),
(257,207,cs),
(366,218,o),
(489,221,o),
(517,352,cs),
(530,417,o),
(509,525,o),
(323,525,cs),
(122,525,o),
(35,367,o),
(10,250,cs),
(5,225,ls),
(-13,143,o),
(7,-25,o),
(207,-25,cs)
);
},
{
closed = 1;
nodes = (
(260,338,o),
(241,344,o),
(244,359,cs),
(249,382,o),
(275,390,o),
(295,390,cs),
(309,390,o),
(322,385,o),
(318,368,cs),
(315,353,o),
(310,341,o),
(275,339,cs)
);
}
);
width = 522;
},
{
anchors = (
{
name = bottom;
pos = (202,0);
},
{
name = ogonek;
pos = (341,21);
},
{
name = top;
pos = (308,500);
}
);
hints = (
{
horizontal = 1;
place = (-10,75);
type = Stem;
},
{
horizontal = 1;
place = (215,65);
type = Stem;
},
{
horizontal = 1;
place = (440,70);
type = Stem;
},
{
place = (-13,100);
type = Stem;
},
{
place = (272,100);
type = Stem;
}
);
layerId = m003;
shapes = (
{
closed = 1;
nodes = (
(260,-7,o),
(316,11,o),
(341,21,c),
(347,24,o),
(355,28,o),
(354,52,cs),
(354,71,o),
(338,90,o),
(320,84,cs),
(299,77,o),
(259,48,o),
(212,48,cs),
(118,48,o),
(104,119,o),
(121,208,cs),
(124,220,o),
(132,228,o),
(145,228,cs),
(243,228,o),
(419,233,o),
(445,352,cs),
(456,404,o),
(449,507,o),
(310,507,cs),
(158,507,o),
(82,354,o),
(60,250,cs),
(55,225,ls),
(33,122,o),
(47,-7,o),
(200,-7,cs)
);
},
{
closed = 1;
nodes = (
(144,278,o),
(138,286,o),
(140,298,cs),
(160,381,o),
(205,457,o),
(299,457,cs),
(360,457,o),
(373,402,o),
(364,350,cs),
(354,299,o),
(301,279,o),
(157,278,cs)
);
}
);
width = 500;
}
);
metricLeft = "=o";
metricRight = "=o";
note = e;
unicode = 101;
userData = {
KernOnName = e;
};
},
{
glyphname = f;
kernLeft = KO_f;
kernRight = KO_f;
lastChange = "2025-01-03 22:26:37 +0000";
layers = (
{
hints = (
{
horizontal = 1;
place = (0,21);
target = up;
type = BottomGhost;
},
{
horizontal = 1;
place = (435,65);
type = Stem;
},
{
horizontal = 1;
place = (640,61);
type = Stem;
},
{
place = (6,95.5);
type = Stem;
}
);
layerId = m005;
shapes = (
{
closed = 1;
nodes = (
(54,-10,cs),
(85,-10,o),
(119,8,o),
(124,39,cs),
(140,163,o),
(169,296,o),
(195,420,cs),
(196,426,o),
(201,430,o),
(207,430,cs),
(229,429,o),
(250,425,o),
(272,425,cs),
(294,425,o),
(310,442,o),
(314,464,cs),
(319,488,o),
(311,505,o),
(289,505,cs),
(267,505,o),
(244,501,o),
(222,500,cs),
(216,500,o),
(213,504,o),
(214,511,cs),
(233,598,o),
(240,640,o),
(292,640,cs),
(313,640,o),
(310,629,o),
(320,627,cs),
(338,622,o),
(365,638,o),
(377,659,cs),
(388,679,o),
(374,695,o),
(356,701,cs),
(336,707,o),
(313,710,o),
(287,710,cs),
(161,710,o),
(137,616,o),
(114,510,cs),
(113,504,o),
(108,500,o),
(102,500,cs),
(64,500,o),
(49,488,o),
(44,464,cs),
(40,442,o),
(54,430,o),
(87,430,cs),
(93,430,o),
(96,427,o),
(95,420,cs),
(69,296,o),
(40,163,o),
(4,39,cs),
(-5,8,o),
(21,-10,o)
);
}
);
width = 290;
},
{
hints = (
{
horizontal = 1;
place = (0,21);
target = up;
type = BottomGhost;
},
{
horizontal = 1;
place = (435,65);
type = Stem;
},
{
horizontal = 1;
place = (640,61);
type = Stem;
},
{
place = (6,95.5);
type = Stem;
}
);
layerId = m002;
shapes = (
{
closed = 1;
nodes = (
(81,-25,cs),
(140,-25,o),
(203,16,o),
(212,78,cs),
(228,200,o),
(226,191,o),
(253,315,cs),
(255,327,o),
(259,342,o),
(267,341,cs),
(276,340,o),
(276,340,o),
(284,340,cs),
(334,340,o),
(376,379,o),
(387,429,cs),
(398,481,o),
(370,514,o),
(321,514,cs),
(321,514,o),
(311,514,o),
(304,515,cs),
(300,516,o),
(296,519,o),
(297,526,cs),
(298,528,o),
(298,531,o),
(298,531,cs),
(300,536,o),
(307,543,o),
(321,543,cs),
(366,543,o),
(418,563,o),
(443,608,cs),
(470,655,o),
(447,700,o),
(402,714,cs),
(379,721,o),
(349,725,o),
(320,725,cs),
(146,725,o),
(109,582,o),
(101,545,cs),
(99,533,o),
(96,520,o),
(85,515,cs),
(67,507,o),
(27,479,o),
(17,429,cs),
(7,381,o),
(38,350,o),
(49,345,cs),
(57,341,o),
(54,324,o),
(53,315,cs),
(26,191,o),
(28,200,o),
(-8,78,cs),
(-25,16,o),
(20,-25,o)
);
}
);
width = 393;
},
{
hints = (
{
horizontal = 1;
place = (0,21);
target = up;
type = BottomGhost;
},
{
horizontal = 1;
place = (435,65);
type = Stem;
},
{
horizontal = 1;
place = (640,61);
type = Stem;
},
{
place = (6,95.5);
type = Stem;
}
);
layerId = m003;
shapes = (
{
closed = 1;
nodes = (
(55,-7,cs),
(83,-7,o),
(109,6,o),
(112,31,cs),
(129,156,o),
(161,308,o),
(187,432,cs),
(190,444,o),
(200,452,o),
(212,452,cs),
(234,451,o),
(256,447,o),
(277,447,cs),
(294,447,o),
(303,457,o),
(307,476,cs),
(311,497,o),
(306,507,o),
(289,507,cs),
(268,507,o),
(246,503,o),
(222,502,cs),
(210,502,o),
(204,510,o),
(207,523,cs),
(225,610,o),
(233,657,o),
(295,657,cs),
(318,657,o),
(322,645,o),
(325,644,cs),
(340,640,o),
(360,651,o),
(370,669,cs),
(377,683,o),
(369,693,o),
(352,698,cs),
(333,704,o),
(311,707,o),
(286,707,cs),
(170,707,o),
(149,628,o),
(127,522,cs),
(124,510,o),
(114,502,o),
(102,502,cs),
(68,502,o),
(61,496,o),
(57,476,cs),
(53,459,o),
(62,452,o),
(92,452,cs),
(104,452,o),
(110,445,o),
(107,432,cs),
(81,308,o),
(49,156,o),
(12,31,cs),
(5,6,o),
(25,-7,o)
);
}
);
width = 290;
}
);
note = f;
unicode = 102;
userData = {
KernOnName = f;
};
},
{
glyphname = g;
kernLeft = KO_a;
kernRight = KO_g;
lastChange = "2025-01-03 22:26:44 +0000";
layers = (
{
anchors = (
{
name = bottom;
pos = (163,-200);
},
{
name = top;
pos = (311,500);
}
);
hints = (
{
horizontal = 1;
place = (-10,80);
type = Stem;
},
{
horizontal = 1;
place = (435,75);
type = Stem;
},
{
place = (8,100);
type = Stem;
},
{
place = (298,95);
type = Stem;
}
);
layerId = m005;
shapes = (
{
closed = 1;
nodes = (
(297,-210,o),
(365,-105,o),
(387,0,cs),
(418,143,o),
(448,286,o),
(488,429,cs),
(496,457,o),
(476,475,o),
(452,485,cs),
(416,499,o),
(375,510,o),
(311,510,cs),
(151,510,o),
(73,355,o),
(50,250,cs),
(45,225,ls),
(13,75,o),
(38,-10,o),
(145,-10,cs),
(234,-10,o),
(276,39,o),
(285,39,cs),
(293,39,o),
(294,33,o),
(289,9,cs),
(270,-77,o),
(240,-135,o),
(153,-135,cs),
(110,-135,o),
(82,-117,o),
(62,-110,cs),
(41,-102,o),
(21,-116,o),
(10,-144,cs),
(1,-164,o),
(2,-180,o),
(20,-188,cs),
(45,-198,o),
(86,-210,o),
(137,-210,cs)
);
},
{
closed = 1;
nodes = (
(132,75,o),
(123,124,o),
(145,225,cs),
(150,250,ls),
(166,323,o),
(203,435,o),
(295,435,cs),
(334,435,o),
(363,429,o),
(378,426,cs),
(384,425,o),
(387,422,o),
(384,415,cs),
(365,344,o),
(345,272,o),
(330,200,cs),
(315,132,o),
(245,75,o),
(188,75,cs)
);
}
);
width = 513;
},
{
anchors = (
{
name = bottom;
pos = (197,-200);
},
{
name = top;
pos = (345,500);
}
);
hints = (
{
horizontal = 1;
place = (-10,80);
type = Stem;
},
{
horizontal = 1;
place = (435,75);
type = Stem;
},
{
place = (8,100);
type = Stem;
},
{
place = (298,95);
type = Stem;
}
);
layerId = m002;
shapes = (
{
closed = 1;
nodes = (
(370,-225,o),
(458,-86,o),
(484,35,cs),
(514,178,o),
(529,249,o),
(569,390,cs),
(584,442,o),
(554,479,o),
(511,497,cs),
(473,512,o),
(424,525,o),
(353,525,cs),
(152,525,o),
(64,367,o),
(39,250,cs),
(34,225,ls),
(6,92,o),
(37,-25,o),
(181,-25,cs),
(214,-25,o),
(238,-20,o),
(258,-15,cs),
(265,-13,o),
(271,-15,o),
(265,-23,cs),
(252,-42,o),
(240,-50,o),
(210,-50,cs),
(179,-50,o),
(160,-37,o),
(134,-28,cs),
(88,-10,o),
(33,-41,o),
(9,-99,cs),
(-9,-143,o),
(-1,-183,o),
(39,-200,cs),
(65,-211,o),
(115,-225,o),
(173,-225,cs)
);
},
{
closed = 1;
nodes = (
(223,160,o),
(222,168,o),
(234,225,cs),
(239,250,ls),
(254,320,o),
(269,350,o),
(316,350,cs),
(331,350,o),
(340,347,o),
(345,341,cs),
(352,332,o),
(354,329,o),
(351,314,cs),
(346,293,o),
(338,269,o),
(331,235,cs),
(321,188,o),
(282,160,o),
(245,160,cs)
);
}
);
width = 547;
},
{
anchors = (
{
name = bottom;
pos = (197,-200);
},
{
name = top;
pos = (345,500);
}
);
hints = (
{
horizontal = 1;
place = (-10,80);
type = Stem;
},
{
horizontal = 1;
place = (435,75);
type = Stem;
},
{
place = (8,100);
type = Stem;
},
{
place = (298,95);
type = Stem;
}
);
layerId = m003;
shapes = (
{
closed = 1;
nodes = (
(325,-207,o),
(388,-110,o),
(410,-7,cs),
(440,136,o),
(473,293,o),
(514,437,cs),
(521,459,o),
(505,473,o),
(483,483,cs),
(447,496,o),
(407,507,o),
(344,507,cs),
(192,507,o),
(116,354,o),
(94,250,cs),
(89,225,ls),
(57,77,o),
(79,-7,o),
(180,-7,cs),
(263,-7,o),
(306,42,o),
(320,42,cs),
(334,42,o),
(338,34,o),
(332,2,cs),
(312,-86,o),
(279,-152,o),
(184,-152,cs),
(138,-152,o),
(109,-133,o),
(89,-126,cs),
(74,-120,o),
(62,-129,o),
(52,-153,cs),
(44,-171,o),
(44,-180,o),
(59,-186,cs),
(83,-195,o),
(122,-207,o),
(172,-207,cs)
);
},
{
closed = 1;
nodes = (
(154,58,o),
(147,121,o),
(169,225,cs),
(174,250,ls),
(190,324,o),
(230,452,o),
(332,452,cs),
(372,452,o),
(403,446,o),
(417,443,cs),
(429,441,o),
(434,433,o),
(430,421,c),
(411,350,o),
(389,272,o),
(374,200,cs),
(357,120,o),
(281,58,o),
(218,58,cs)
);
}
);
width = 543;
}
);
metricLeft = "=o";
metricRight = "=|n";
note = q;
unicode = 103;
userData = {
KernOnName = g;
};
},
{
glyphname = h;
kernLeft = KO_h;
kernRight = KO_n;
lastChange = "2025-01-03 22:26:44 +0000";
layers = (
{
anchors = (
{
name = bottom;
pos = (217,0);
},
{
name = center;
pos = (201,560);
},
{
name = top;
pos = (365,700);
}
);
hints = (
{
horizontal = 1;
place = (0,21);
target = up;
type = BottomGhost;
},
{
horizontal = 1;
place = (435,75);
type = Stem;
},
{
place = (-14,95);
type = Stem;
},
{
place = (271,100);
type = Stem;
}
);
layerId = m005;
shapes = (
{
closed = 1;
nodes = (
(70,-10,cs),
(101,-10,o),
(137,8,o),
(140,39,cs),
(148,123,o),
(168,216,o),
(185,300,cs),
(200,368,o),
(272,435,o),
(329,435,cs),
(385,435,o),
(397,401,o),
(375,300,cs),
(358,216,o),
(338,123,o),
(310,39,cs),
(299,8,o),
(327,-10,o),
(360,-10,cs),
(391,-10,o),
(427,8,o),
(430,39,cs),
(438,123,o),
(458,216,o),
(475,300,cs),
(507,450,o),
(477,510,o),
(370,510,cs),
(281,510,o),
(239,461,o),
(230,461,cs),
(221,461,o),
(221,469,o),
(228,500,cs),
(239,550,o),
(256,611,o),
(272,661,cs),
(282,692,o),
(255,710,o),
(224,710,cs),
(191,710,o),
(169,692,o),
(162,661,cs),
(119,460,o),
(73,240,o),
(20,39,cs),
(11,8,o),
(37,-10,o)
);
}
);
width = 539;
},
{
anchors = (
{
name = bottom;
pos = (217,0);
},
{
name = center;
pos = (201,560);
},
{
name = top;
pos = (365,700);
}
);
hints = (
{
horizontal = 1;
place = (0,21);
target = up;
type = BottomGhost;
},
{
horizontal = 1;
place = (435,75);
type = Stem;
},
{
place = (-14,95);
type = Stem;
},
{
place = (271,100);
type = Stem;
}
);
layerId = m002;
shapes = (
{
closed = 1;
nodes = (
(67,-25,cs),
(129,-25,o),
(194,19,o),
(199,80,cs),
(206,161,o),
(210,181,o),
(228,265,cs),
(238,314,o),
(277,350,o),
(311,350,cs),
(336,350,o),
(334,342,o),
(318,265,cs),
(300,181,o),
(296,161,o),
(269,80,cs),
(248,19,o),
(293,-25,o),
(357,-25,cs),
(419,-25,o),
(484,19,o),
(489,80,cs),
(496,161,o),
(500,181,o),
(518,265,cs),
(555,439,o),
(512,525,o),
(373,525,cs),
(337,525,o),
(309,519,o),
(291,514,cs),
(283,512,o),
(281,517,o),
(284,529,cs),
(289,551,o),
(298,571,o),
(314,621,cs),
(333,682,o),
(288,725,o),
(227,725,cs),
(166,725,o),
(117,685,o),
(105,626,cs),
(62,425,o),
(30,276,o),
(-22,77,cs),
(-39,16,o),
(6,-25,o)
);
}
);
width = 540;
},
{
anchors = (
{
name = bottom;
pos = (217,0);
},
{
name = center;
pos = (201,560);
},
{
name = top;
pos = (365,700);
}
);
hints = (
{
horizontal = 1;
place = (0,21);
target = up;
type = BottomGhost;
},
{
horizontal = 1;
place = (435,75);
type = Stem;
},
{
place = (-14,95);
type = Stem;
},
{
place = (271,100);
type = Stem;
}
);
layerId = m003;
shapes = (
{
closed = 1;
nodes = (
(71,-7,cs),
(99,-7,o),
(126,6,o),
(128,31,cs),
(136,115,o),
(159,223,o),
(177,307,cs),
(192,379,o),
(269,452,o),
(333,452,cs),
(395,452,o),
(409,413,o),
(387,307,cs),
(369,223,o),
(346,115,o),
(318,31,cs),
(310,6,o),
(331,-7,o),
(361,-7,cs),
(389,-7,o),
(416,6,o),
(418,31,cs),
(426,115,o),
(449,223,o),
(467,307,cs),
(498,454,o),
(471,507,o),
(369,507,cs),
(286,507,o),
(243,458,o),
(229,458,cs),
(213,458,o),
(211,468,o),
(219,507,cs),
(230,557,o),
(248,619,o),
(264,669,cs),
(271,694,o),
(251,707,o),
(223,707,cs),
(194,707,o),
(179,695,o),
(174,668,cs),
(131,467,o),
(81,233,o),
(28,31,cs),
(21,6,o),
(41,-7,o)
);
}
);
width = 541;
}
);
metricLeft = "=n";
metricRight = "=n";
note = h;
unicode = 104;
},
{
glyphname = i;
kernLeft = KO_i;
kernRight = KO_i;
lastChange = "2025-01-03 22:26:44 +0000";
layers = (
{
anchors = (
{
name = bottom;
pos = (72,0);
},
{
name = ogonek;
pos = (111,0);
}
);
hints = (
{
horizontal = 1;
place = (0,21);
target = up;
type = BottomGhost;
},
{
horizontal = 1;
place = (585,120);
type = Stem;
},
{
place = (-27,120);
type = Stem;
},
{
place = (-15,95);
type = Stem;
}
);
layerId = m005;
shapes = (
{
closed = 1;
nodes = (
(101,-10,o),
(135,8,o),
(140,39,cs),
(158,173,o),
(191,327,o),
(220,461,cs),
(226,492,o),
(212,510,o),
(181,510,cs),
(148,510,o),
(114,492,o),
(110,461,cs),
(91,327,o),
(58,173,o),
(20,39,cs),
(11,8,o),
(37,-10,o),
(70,-10,cs)
);
},
{
closed = 1;
nodes = (
(234,580,o),
(272,612,o),
(280,650,cs),
(288,689,o),
(264,720,o),
(225,720,cs),
(187,720,o),
(148,689,o),
(140,650,cs),
(132,612,o),
(157,580,o),
(195,580,cs)
);
}
);
width = 270;
},
{
anchors = (
{
name = bottom;
pos = (72,0);
},
{
name = ogonek;
pos = (147,0);
}
);
hints = (
{
horizontal = 1;
place = (0,21);
target = up;
type = BottomGhost;
},
{
horizontal = 1;
place = (585,120);
type = Stem;
},
{
place = (-31,120);
type = Stem;
},
{
place = (-19,95);
type = Stem;
}
);
layerId = m002;
shapes = (
{
closed = 1;
nodes = (
(127,-25,o),
(189,16,o),
(198,77,cs),
(216,210,o),
(234,292,o),
(262,426,cs),
(275,485,o),
(243,525,o),
(184,525,cs),
(123,525,o),
(61,484,o),
(52,423,cs),
(33,290,o),
(16,210,o),
(-22,77,cs),
(-39,16,o),
(7,-25,o),
(68,-25,cs)
);
},
{
closed = 1;
nodes = (
(263,530,o),
(316,584,o),
(330,650,cs),
(344,717,o),
(302,770,o),
(235,770,cs),
(169,770,o),
(104,717,o),
(90,650,cs),
(76,584,o),
(118,530,o),
(184,530,cs)
);
}
);
width = 307;
},
{
anchors = (
{
name = bottom;
pos = (71,0);
},
{
name = ogonek;
pos = (103,0);
}
);
hints = (
{
horizontal = 1;
place = (0,21);
target = up;
type = BottomGhost;
},
{
horizontal = 1;
place = (585,120);
type = Stem;
},
{
place = (-27,120);
type = Stem;
},
{
place = (-15,95);
type = Stem;
}
);
layerId = m003;
shapes = (
{
closed = 1;
nodes = (
(99,-7,o),
(125,6,o),
(128,31,cs),
(147,166,o),
(182,334,o),
(211,468,cs),
(217,495,o),
(207,507,o),
(180,507,cs),
(150,507,o),
(124,494,o),
(121,469,cs),
(102,334,o),
(67,166,o),
(28,31,cs),
(21,6,o),
(41,-7,o),
(71,-7,cs)
);
},
{
closed = 1;
nodes = (
(232,590,o),
(262,616,o),
(269,650,cs),
(277,685,o),
(257,710,o),
(222,710,cs),
(188,710,o),
(157,685,o),
(149,650,cs),
(142,616,o),
(163,590,o),
(197,590,cs)
);
}
);
width = 298;
}
);
metricLeft = "=n";
metricRight = "=|n";
note = i;
unicode = 105;
userData = {
KernOnName = i;
};
},
{
glyphname = dotlessi;
kernLeft = KO_r;
kernRight = KO_iacute;
lastChange = "2025-01-03 22:33:20 +0000";
layers = (
{
anchors = (
{
name = bottom;
pos = (72,0);
},
{
name = ogonek;
pos = (132,0);
},
{
name = top;
pos = (178,500);
}
);
hints = (
{
horizontal = 1;
place = (0,21);
target = up;
type = BottomGhost;
},
{
horizontal = 1;
place = (585,120);
type = Stem;
},
{
place = (-5,120);
type = Stem;
},
{
place = (7,95);
type = Stem;
}
);
layerId = m005;
shapes = (
{
closed = 1;
nodes = (
(71,-10,cs),
(102,-10,o),
(136,8,o),
(140,39,cs),
(159,173,o),
(191,327,o),
(220,461,cs),
(226,492,o),
(212,510,o),
(181,510,cs),
(148,510,o),
(114,492,o),
(110,461,cs),
(91,327,o),
(59,173,o),
(20,39,cs),
(12,8,o),
(38,-10,o)
);
}
);
width = 240;
},
{
anchors = (
{
name = bottom;
pos = (72,0);
},
{
name = ogonek;
pos = (182,0);
},
{
name = top;
pos = (178,500);
}
);
hints = (
{
horizontal = 1;
place = (0,21);
target = up;
type = BottomGhost;
},
{
horizontal = 1;
place = (585,120);
type = Stem;
},
{
place = (-5,120);
type = Stem;
},
{
place = (7,95);
type = Stem;
}
);
layerId = m002;
shapes = (
{
closed = 1;
nodes = (
(68,-25,cs),
(127,-25,o),
(189,16,o),
(198,77,cs),
(216,210,o),
(234,292,o),
(262,426,cs),
(275,485,o),
(243,525,o),
(184,525,cs),
(123,525,o),
(61,484,o),
(52,423,cs),
(34,290,o),
(16,210,o),
(-22,77,cs),
(-39,16,o),
(7,-25,o)
);
}
);
width = 239;
},
{
anchors = (
{
name = bottom;
pos = (72,0);
},
{
name = ogonek;
pos = (122,0);
},
{
name = top;
pos = (178,500);
}
);
hints = (
{
horizontal = 1;
place = (0,21);
target = up;
type = BottomGhost;
},
{
horizontal = 1;
place = (585,120);
type = Stem;
},
{
place = (-5,120);
type = Stem;
},
{
place = (7,95);
type = Stem;
}
);
layerId = m003;
shapes = (
{
closed = 1;
nodes = (
(71,-7,cs),
(99,-7,o),
(125,6,o),
(128,31,cs),
(147,166,o),
(183,334,o),
(211,468,cs),
(217,495,o),
(208,507,o),
(181,507,cs),
(151,507,o),
(125,494,o),
(122,469,cs),
(103,334,o),
(67,166,o),
(28,31,cs),
(21,6,o),
(41,-7,o)
);
}
);
width = 240;
}
);
metricLeft = "=i";
metricRight = "=i";
note = i;
unicode = 305;
},
{
glyphname = j;
kernLeft = KO_j;
kernRight = KO_j;
lastChange = "2025-01-03 22:26:44 +0000";
layers = (
{
hints = (
{
horizontal = 1;
place = (585,120);
type = Stem;
},
{
place = (-6,120);
type = Stem;
}
);
layerId = m005;
shapes = (
{
closed = 1;
nodes = (
(63,-216,o),
(95,-117,o),
(120,0,cs),
(152,150,o),
(186,311,o),
(218,461,cs),
(224,492,o),
(210,510,o),
(179,510,cs),
(146,510,o),
(112,492,o),
(108,461,cs),
(86,311,o),
(53,150,o),
(21,0,cs),
(0,-97,o),
(-8,-137,o),
(-61,-127,cs),
(-85,-123,o),
(-106,-149,o),
(-111,-174,cs),
(-115,-194,o),
(-104,-209,o),
(-79,-210,cs)
);
},
{
closed = 1;
nodes = (
(232,580,o),
(270,612,o),
(278,650,cs),
(286,689,o),
(262,720,o),
(223,720,cs),
(185,720,o),
(146,689,o),
(138,650,cs),
(130,612,o),
(155,580,o),
(193,580,cs)
);
}
);
width = 268;
},
{
hints = (
{
horizontal = 1;
place = (585,120);
type = Stem;
},
{
place = (-10,120);
type = Stem;
}
);
layerId = m002;
shapes = (
{
closed = 1;
nodes = (
(103,-233,o),
(147,-89,o),
(174,35,cs),
(205,185,o),
(225,276,o),
(257,426,cs),
(269,485,o),
(238,525,o),
(179,525,cs),
(118,525,o),
(55,484,o),
(46,423,cs),
(24,274,o),
(6,185,o),
(-25,35,cs),
(-39,-30,o),
(-43,-45,o),
(-58,-43,cs),
(-105,-37,o),
(-146,-83,o),
(-157,-139,cs),
(-167,-186,o),
(-139,-223,o),
(-88,-225,cs)
);
},
{
closed = 1;
nodes = (
(246,530,o),
(310,584,o),
(324,650,cs),
(339,717,o),
(297,770,o),
(230,770,cs),
(164,770,o),
(99,717,o),
(84,650,cs),
(70,584,o),
(113,530,o),
(179,530,cs)
);
}
);
width = 301;
},
{
hints = (
{
horizontal = 1;
place = (585,120);
type = Stem;
},
{
place = (-5,120);
type = Stem;
}
);
layerId = m003;
shapes = (
{
closed = 1;
nodes = (
(55,-213,o),
(84,-123,o),
(111,0,cs),
(142,150,o),
(178,318,o),
(210,468,cs),
(216,495,o),
(206,507,o),
(179,507,cs),
(149,507,o),
(124,494,o),
(120,469,cs),
(98,318,o),
(63,150,o),
(32,0,cs),
(9,-104,o),
(-2,-156,o),
(-66,-144,cs),
(-83,-141,o),
(-97,-159,o),
(-102,-181,cs),
(-105,-197,o),
(-98,-206,o),
(-77,-207,cs)
);
},
{
closed = 1;
nodes = (
(231,590,o),
(262,616,o),
(269,650,cs),
(276,685,o),
(256,710,o),
(221,710,cs),
(187,710,o),
(156,685,o),
(149,650,cs),
(142,616,o),
(162,590,o),
(196,590,cs)
);
}
);
width = 297;
}
);
metricRight = "=i";
note = j;
unicode = 106;
userData = {
KernOnName = j;
};
},
{
glyphname = jdotless;
kernLeft = KO_j;
lastChange = "2025-01-03 22:33:20 +0000";
layers = (
{
anchors = (
{
name = bottom;
pos = (24,-200);
},
{
name = top;
pos = (172,500);
}
);
hints = (
{
horizontal = 1;
place = (585,120);
type = Stem;
},
{
place = (16,120);
type = Stem;
},
{
horizontal = 1;
place = (585,120);
type = Stem;
},
{
place = (16,120);
type = Stem;
}
);
layerId = m005;
shapes = (
{
closed = 1;
nodes = (
(63,-216,o),
(95,-117,o),
(120,0,cs),
(152,150,o),
(186,311,o),
(218,461,cs),
(225,492,o),
(211,510,o),
(180,510,cs),
(147,510,o),
(113,492,o),
(108,461,cs),
(86,311,o),
(53,150,o),
(21,0,cs),
(1,-97,o),
(-8,-137,o),
(-61,-127,cs),
(-85,-123,o),
(-106,-149,o),
(-111,-174,cs),
(-115,-194,o),
(-103,-209,o),
(-78,-210,cs)
);
}
);
width = 238;
},
{
anchors = (
{
name = bottom;
pos = (20,-200);
},
{
name = top;
pos = (168,500);
}
);
hints = (
{
horizontal = 1;
place = (585,120);
type = Stem;
},
{
place = (16,120);
type = Stem;
},
{
horizontal = 1;
place = (585,120);
type = Stem;
},
{
place = (16,120);
type = Stem;
}
);
layerId = m002;
shapes = (
{
closed = 1;
nodes = (
(103,-233,o),
(147,-89,o),
(174,35,cs),
(205,185,o),
(225,276,o),
(257,426,cs),
(269,485,o),
(238,525,o),
(179,525,cs),
(118,525,o),
(55,484,o),
(46,423,cs),
(24,274,o),
(6,185,o),
(-25,35,cs),
(-39,-30,o),
(-42,-44,o),
(-48,-43,cs),
(-94,-35,o),
(-145,-83,o),
(-157,-139,cs),
(-167,-186,o),
(-139,-223,o),
(-88,-225,cs)
);
}
);
width = 234;
},
{
anchors = (
{
name = bottom;
pos = (24,-200);
},
{
name = top;
pos = (172,500);
}
);
hints = (
{
horizontal = 1;
place = (585,120);
type = Stem;
},
{
place = (16,120);
type = Stem;
},
{
horizontal = 1;
place = (585,120);
type = Stem;
},
{
place = (16,120);
type = Stem;
}
);
layerId = m003;
shapes = (
{
closed = 1;
nodes = (
(55,-213,o),
(84,-123,o),
(110,0,cs),
(142,150,o),
(178,318,o),
(210,468,cs),
(215,495,o),
(206,507,o),
(179,507,cs),
(149,507,o),
(123,494,o),
(120,469,cs),
(98,318,o),
(63,150,o),
(31,0,cs),
(9,-104,o),
(-2,-156,o),
(-66,-144,cs),
(-84,-141,o),
(-98,-159,o),
(-102,-181,cs),
(-106,-197,o),
(-99,-206,o),
(-78,-207,cs)
);
}
);
width = 238;
}
);
metricLeft = "=j";
metricRight = "=j";
note = j;
unicode = 567;
},
{
glyphname = k;
kernLeft = KO_h;
kernRight = KO_k;
lastChange = "2025-01-03 22:26:44 +0000";
layers = (
{
anchors = (
{
name = bottom;
pos = (202,0);
},
{
name = top;
pos = (350,700);
}
);
hints = (
{
horizontal = 1;
place = (0,21);
target = up;
type = BottomGhost;
},
{
place = (-14,95);
type = Stem;
},
{
place = (256,95);
type = Stem;
}
);
layerId = m005;
shapes = (
{
closed = 1;
nodes = (
(70,-10,cs),
(101,-10,o),
(123,8,o),
(130,39,cs),
(152,143,ls),
(153,148,o),
(155,151,o),
(159,155,cs),
(238,233,ls),
(242,237,o),
(248,239,o),
(253,237,cs),
(305,208,o),
(323,119,o),
(317,38,cs),
(314,6,o),
(325,-10,o),
(359,-10,cs),
(391,-10,o),
(428,9,o),
(426,41,cs),
(424,143,o),
(392,258,o),
(316,295,cs),
(310,298,o),
(311,303,o),
(316,308,cs),
(451,440,ls),
(484,472,o),
(486,510,o),
(452,510,cs),
(406,510,o),
(381,494,o),
(364,471,cs),
(318,407,o),
(256,343,o),
(183,279,cs),
(175,272,o),
(170,274,o),
(172,283,cs),
(198,407,o),
(226,538,o),
(262,661,c),
(269,692,o),
(255,710,o),
(224,710,cs),
(191,710,o),
(157,692,o),
(152,661,cs),
(119,460,o),
(73,240,o),
(20,39,cs),
(11,8,o),
(37,-10,o)
);
}
);
width = 477;
},
{
anchors = (
{
name = bottom;
pos = (202,0);
},
{
name = top;
pos = (350,700);
}
);
hints = (
{
horizontal = 1;
place = (0,21);
target = up;
type = BottomGhost;
},
{
place = (-14,95);
type = Stem;
},
{
place = (256,95);
type = Stem;
}
);
layerId = m002;
shapes = (
{
closed = 1;
nodes = (
(67,-25,cs),
(126,-25,o),
(175,15,o),
(187,74,cs),
(196,115,ls),
(199,127,o),
(204,137,o),
(214,146,cs),
(221,153,ls),
(234,166,o),
(247,167,o),
(255,154,cs),
(269,133,o),
(277,112,o),
(273,67,cs),
(269,10,o),
(297,-25,o),
(356,-25,cs),
(419,-25,o),
(487,22,o),
(485,88,cs),
(483,171,o),
(457,240,o),
(404,296,cs),
(393,308,o),
(396,321,o),
(412,331,cs),
(476,373,ls),
(551,422,o),
(535,525,o),
(455,525,cs),
(382,525,o),
(347,502,o),
(316,459,cs),
(305,444,o),
(293,428,o),
(279,412,cs),
(263,392,o),
(247,401,o),
(253,426,cs),
(268,493,o),
(286,560,o),
(304,624,c),
(318,684,o),
(287,725,o),
(227,725,cs),
(166,725,o),
(103,684,o),
(94,623,cs),
(62,424,o),
(30,276,o),
(-22,77,cs),
(-39,16,o),
(6,-25,o)
);
}
);
width = 488;
},
{
anchors = (
{
name = bottom;
pos = (202,0);
},
{
name = top;
pos = (350,700);
}
);
hints = (
{
horizontal = 1;
place = (0,21);
target = up;
type = BottomGhost;
},
{
place = (-14,95);
type = Stem;
},
{
place = (256,95);
type = Stem;
}
);
layerId = m003;
shapes = (
{
closed = 1;
nodes = (
(71,-7,cs),
(98,-7,o),
(113,5,o),
(118,32,cs),
(143,149,ls),
(144,152,o),
(146,156,o),
(148,158,cs),
(240,247,ls),
(243,250,o),
(247,252,o),
(251,250,cs),
(312,224,o),
(332,120,o),
(325,32,cs),
(323,3,o),
(330,-7,o),
(360,-7,cs),
(389,-7,o),
(415,7,o),
(414,32,cs),
(412,139,o),
(380,264,o),
(296,292,cs),
(291,293,o),
(291,297,o),
(295,301,cs),
(446,453,ls),
(475,482,o),
(476,507,o),
(451,507,cs),
(408,507,o),
(389,494,o),
(373,473,cs),
(322,400,o),
(247,322,o),
(164,249,cs),
(157,244,o),
(154,246,o),
(155,252,cs),
(183,385,o),
(214,535,o),
(254,668,c),
(259,695,o),
(250,707,o),
(223,707,cs),
(193,707,o),
(167,694,o),
(164,669,cs),
(131,467,o),
(81,233,o),
(28,31,cs),
(21,6,o),
(41,-7,o)
);
}
);
width = 459;
}
);
metricLeft = "=n";
metricRight = "=v";
note = k;
unicode = 107;
},
{
glyphname = l;
kernLeft = KO_l;
kernRight = KO_l;
lastChange = "2025-01-03 22:26:44 +0000";
layers = (
{
anchors = (
{
name = bottom;
pos = (88,0);
},
{
name = center;
pos = (163,350);
},
{
name = top;
pos = (237,700);
},
{
name = topright;
pos = (343,700);
}
);
hints = (
{
horizontal = 1;
place = (0,21);
target = up;
type = BottomGhost;
},
{
place = (-15,95);
type = Stem;
},
{
horizontal = 1;
place = (-3,63);
type = Stem;
}
);
layerId = m005;
shapes = (
{
closed = 1;
nodes = (
(163,-4,o),
(186,9,o),
(191,33,cs),
(199,70,o),
(187,91,o),
(163,90,cs),
(134,89,o),
(128,105,o),
(149,200,cs),
(181,350,o),
(215,511,o),
(267,661,cs),
(277,692,o),
(249,710,o),
(218,710,cs),
(185,710,o),
(163,692,o),
(157,661,cs),
(125,511,o),
(91,350,o),
(49,200,cs),
(18,90,o),
(13,-14,o),
(143,-5,cs)
);
}
);
width = 276;
},
{
anchors = (
{
name = bottom;
pos = (80,0);
},
{
name = center;
pos = (133,250);
},
{
name = top;
pos = (228,700);
},
{
name = topright;
pos = (360,700);
}
);
hints = (
{
horizontal = 1;
place = (0,21);
target = up;
type = BottomGhost;
},
{
place = (-14,95);
type = Stem;
},
{
horizontal = 1;
place = (-3,63);
type = Stem;
}
);
layerId = m002;
shapes = (
{
closed = 1;
nodes = (
(174,-22,o),
(224,10,o),
(235,63,cs),
(249,129,o),
(240,163,o),
(190,163,cs),
(178,163,o),
(171,177,o),
(182,230,cs),
(214,380,o),
(244,474,o),
(295,620,cs),
(317,682,o),
(271,726,o),
(209,726,cs),
(148,726,o),
(99,686,o),
(87,627,cs),
(55,477,o),
(35,382,o),
(-7,233,cs),
(-41,112,o),
(-48,-37,o),
(129,-25,cs)
);
}
);
width = 303;
},
{
anchors = (
{
name = bottom;
pos = (76,0);
},
{
name = center;
pos = (151,350);
},
{
name = top;
pos = (225,700);
},
{
name = topright;
pos = (331,700);
}
);
hints = (
{
horizontal = 1;
place = (0,21);
target = up;
type = BottomGhost;
},
{
place = (-15,95);
type = Stem;
},
{
horizontal = 1;
place = (-3,63);
type = Stem;
}
);
layerId = m003;
shapes = (
{
closed = 1;
nodes = (
(149,-1,o),
(164,7,o),
(168,26,cs),
(175,60,o),
(167,74,o),
(148,73,cs),
(110,72,o),
(104,93,o),
(127,200,cs),
(159,350,o),
(194,519,o),
(246,669,cs),
(255,694,o),
(233,707,o),
(205,707,cs),
(176,707,o),
(162,695,o),
(156,668,cs),
(124,518,o),
(88,350,o),
(46,199,cs),
(15,83,o),
(10,-10,o),
(131,-2,cs)
);
}
);
width = 299;
}
);
metricLeft = "=n";
metricRight = "=o";
note = l;
unicode = 108;
userData = {
KernOnName = l;
};
},
{
glyphname = lslash;
kernLeft = KO_lslash;
kernRight = KO_lslash;
lastChange = "2025-01-03 22:35:10 +0000";
layers = (
{
hints = (
{
horizontal = 1;
place = (0,21);
target = up;
type = BottomGhost;
},
{
place = (60,95);
type = Stem;
},
{
horizontal = 1;
place = (-3,63);
type = Stem;
}
);
layerId = m005;
shapes = (
{
pos = (107,0);
ref = l;
},
{
closed = 1;
nodes = (
(93,224,ls),
(104,210,o),
(122,210,o),
(139,224,cs),
(221,291,o),
(302,359,o),
(381,416,cs),
(399,429,o),
(404,458,o),
(393,472,cs),
(391,475,ls),
(380,489,o),
(362,489,o),
(345,475,cs),
(263,408,o),
(181,341,o),
(102,284,cs),
(84,271,o),
(79,242,o),
(90,228,cs)
);
}
);
width = 417;
},
{
layerId = m002;
shapes = (
{
pos = (44,0);
ref = l;
},
{
closed = 1;
nodes = (
(-9,206,ls),
(10,182,o),
(44,182,o),
(73,206,cs),
(155,273,o),
(235,341,o),
(313,397,cs),
(344,420,o),
(354,465,o),
(335,490,cs),
(333,493,ls),
(314,517,o),
(280,517,o),
(251,493,cs),
(169,426,o),
(88,359,o),
(10,303,cs),
(-21,280,o),
(-30,235,o),
(-12,210,cs)
);
}
);
width = 347;
},
{
hints = (
{
horizontal = 1;
place = (0,21);
target = up;
type = BottomGhost;
},
{
place = (60,95);
type = Stem;
},
{
horizontal = 1;
place = (-3,63);
type = Stem;
}
);
layerId = m003;
shapes = (
{
pos = (15,0);
ref = l;
},
{
closed = 1;
nodes = (
(-6,226,ls),
(4,213,o),
(20,213,o),
(36,226,cs),
(117,293,o),
(198,361,o),
(278,418,cs),
(294,430,o),
(299,457,o),
(289,470,cs),
(286,473,ls),
(276,486,o),
(260,486,o),
(244,473,cs),
(163,406,o),
(81,339,o),
(2,282,cs),
(-15,270,o),
(-20,243,o),
(-9,230,cs)
);
}
);
width = 345;
}
);
metricRight = "=l";
note = l;
unicode = 322;
},
{
glyphname = m;
kernLeft = KO_r;
kernRight = KO_n;
lastChange = "2025-01-03 22:26:37 +0000";
layers = (
{
hints = (
{
horizontal = 1;
place = (0,21);
target = up;
type = BottomGhost;
},
{
horizontal = 1;
place = (435,75);
type = Stem;
},
{
place = (7,95);
type = Stem;
},
{
place = (262,100);
type = Stem;
},
{
place = (522,100);
type = Stem;
}
);
layerId = m005;
shapes = (
{
closed = 1;
nodes = (
(71,-10,cs),
(102,-10,o),
(138,8,o),
(140,39,cs),
(148,123,o),
(168,216,o),
(186,300,cs),
(200,368,o),
(272,435,o),
(329,435,cs),
(385,435,o),
(397,401,o),
(376,300,cs),
(358,216,o),
(338,123,o),
(310,39,cs),
(300,8,o),
(328,-10,o),
(361,-10,cs),
(392,-10,o),
(428,8,o),
(430,39,cs),
(438,123,o),
(458,216,o),
(476,300,cs),
(490,368,o),
(562,435,o),
(619,435,cs),
(675,435,o),
(687,401,o),
(666,300,cs),
(648,216,o),
(628,123,o),
(600,39,cs),
(590,8,o),
(618,-10,o),
(651,-10,cs),
(682,-10,o),
(718,8,o),
(720,39,cs),
(728,123,o),
(748,216,o),
(766,300,cs),
(798,450,o),
(767,510,o),
(660,510,cs),
(571,510,o),
(511,445,o),
(491,445,cs),
(484,445,o),
(480,453,o),
(473,464,cs),
(456,496,o),
(422,510,o),
(370,510,cs),
(281,510,o),
(221,445,o),
(206,445,cs),
(197,445,o),
(195,457,o),
(195,471,cs),
(194,492,o),
(187,503,o),
(166,503,cs),
(141,503,o),
(114,491,o),
(112,469,cs),
(92,330,o),
(60,178,o),
(20,39,cs),
(12,8,o),
(38,-10,o)
);
}
);
width = 830;
},
{
hints = (
{
horizontal = 1;
place = (0,21);
target = up;
type = BottomGhost;
},
{
horizontal = 1;
place = (435,75);
type = Stem;
},
{
place = (7,95);
type = Stem;
},
{
place = (262,100);
type = Stem;
},
{
place = (522,100);
type = Stem;
}
);
layerId = m002;
shapes = (
{
closed = 1;
nodes = (
(68,-25,cs),
(130,-25,o),
(194,19,o),
(199,80,cs),
(206,161,o),
(210,181,o),
(228,265,cs),
(239,314,o),
(277,350,o),
(311,350,cs),
(330,350,o),
(332,329,o),
(318,265,cs),
(300,181,o),
(296,161,o),
(269,80,cs),
(248,19,o),
(294,-25,o),
(358,-25,cs),
(420,-25,o),
(484,19,o),
(489,80,cs),
(496,161,o),
(500,181,o),
(518,265,cs),
(529,314,o),
(567,350,o),
(601,350,cs),
(620,350,o),
(622,329,o),
(608,265,cs),
(590,181,o),
(586,161,o),
(559,80,cs),
(538,19,o),
(584,-25,o),
(648,-25,cs),
(710,-25,o),
(774,19,o),
(779,80,cs),
(786,161,o),
(790,181,o),
(808,265,cs),
(845,439,o),
(802,525,o),
(663,525,cs),
(603,525,o),
(547,491,o),
(522,474,cs),
(503,461,o),
(486,463,o),
(481,474,cs),
(468,498,o),
(437,525,o),
(373,525,cs),
(288,525,o),
(232,459,o),
(214,459,cs),
(202,459,o),
(202,479,o),
(198,490,cs),
(195,500,o),
(186,515,o),
(168,515,cs),
(113,515,o),
(59,479,o),
(53,427,cs),
(34,290,o),
(18,215,o),
(-22,77,cs),
(-39,16,o),
(7,-25,o)
);
}
);
width = 830;
},
{
hints = (
{
horizontal = 1;
place = (0,21);
target = up;
type = BottomGhost;
},
{
horizontal = 1;
place = (435,75);
type = Stem;
},
{
place = (7,95);
type = Stem;
},
{
place = (262,100);
type = Stem;
},
{
place = (522,100);
type = Stem;
}
);
layerId = m003;
shapes = (
{
closed = 1;
nodes = (
(71,-7,cs),
(99,-7,o),
(126,6,o),
(128,31,cs),
(136,115,o),
(159,223,o),
(177,307,cs),
(192,379,o),
(269,452,o),
(333,452,cs),
(395,452,o),
(410,413,o),
(387,307,cs),
(369,223,o),
(346,115,o),
(318,31,cs),
(310,6,o),
(331,-7,o),
(361,-7,cs),
(389,-7,o),
(416,6,o),
(418,31,cs),
(426,115,o),
(449,223,o),
(467,307,cs),
(482,379,o),
(559,452,o),
(623,452,cs),
(685,452,o),
(700,413,o),
(677,307,cs),
(659,223,o),
(636,115,o),
(608,31,cs),
(600,6,o),
(621,-7,o),
(651,-7,cs),
(679,-7,o),
(706,6,o),
(708,31,cs),
(716,115,o),
(739,223,o),
(757,307,cs),
(788,454,o),
(762,507,o),
(660,507,cs),
(574,507,o),
(518,442,o),
(491,442,cs),
(480,442,o),
(474,452,o),
(466,465,cs),
(450,495,o),
(420,507,o),
(370,507,cs),
(282,507,o),
(230,442,o),
(206,442,cs),
(192,442,o),
(186,456,o),
(186,476,cs),
(186,494,o),
(182,500,o),
(165,500,cs),
(142,500,o),
(125,492,o),
(123,477,cs),
(103,337,o),
(68,171,o),
(28,31,cs),
(21,6,o),
(41,-7,o)
);
}
);
width = 831;
}
);
metricLeft = "=n";
metricRight = "=n";
note = m;
unicode = 109;
},
{
glyphname = n;
kernLeft = KO_r;
kernRight = KO_n;
lastChange = "2025-01-03 22:26:37 +0000";
layers = (
{
anchors = (
{
name = bottom;
pos = (217,0);
},
{
name = top;
pos = (323,500);
}
);
hints = (
{
horizontal = 1;
place = (0,21);
target = up;
type = BottomGhost;
},
{
horizontal = 1;
place = (435,75);
type = Stem;
},
{
place = (7,95);
type = Stem;
},
{
place = (292,100);
type = Stem;
}
);
layerId = m005;
shapes = (
{
closed = 1;
nodes = (
(92,330,o),
(59,177,o),
(20,38,cs),
(11,7,o),
(37,-10,o),
(72,-10,cs),
(103,-10,o),
(137,7,o),
(140,38,cs),
(148,122,o),
(168,216,o),
(186,300,cs),
(200,368,o),
(272,435,o),
(329,435,cs),
(385,435,o),
(397,401,o),
(376,300,cs),
(358,216,o),
(338,122,o),
(310,38,cs),
(299,7,o),
(327,-10,o),
(362,-10,cs),
(393,-10,o),
(427,7,o),
(430,38,cs),
(438,122,o),
(458,216,o),
(476,300,cs),
(508,450,o),
(477,510,o),
(370,510,cs),
(281,510,o),
(221,445,o),
(206,445,cs),
(197,445,o),
(195,457,o),
(195,471,cs),
(194,492,o),
(187,503,o),
(163,503,cs),
(141,503,o),
(114,491,o),
(112,469,cs)
);
}
);
width = 540;
},
{
anchors = (
{
name = bottom;
pos = (217,0);
},
{
name = top;
pos = (323,500);
}
);
hints = (
{
horizontal = 1;
place = (0,21);
target = up;
type = BottomGhost;
},
{
horizontal = 1;
place = (435,75);
type = Stem;
},
{
place = (7,95);
type = Stem;
},
{
place = (292,100);
type = Stem;
}
);
layerId = m002;
shapes = (
{
closed = 1;
nodes = (
(33,289,o),
(17,214,o),
(-22,76,cs),
(-39,16,o),
(4,-25,o),
(69,-25,cs),
(134,-25,o),
(193,20,o),
(199,79,cs),
(206,160,o),
(210,180,o),
(228,264,cs),
(238,313,o),
(277,349,o),
(311,349,cs),
(330,349,o),
(332,328,o),
(318,264,cs),
(300,180,o),
(296,160,o),
(269,79,cs),
(249,20,o),
(290,-25,o),
(359,-25,cs),
(424,-25,o),
(483,20,o),
(489,79,cs),
(496,160,o),
(500,180,o),
(518,264,cs),
(555,438,o),
(512,524,o),
(373,524,cs),
(307,524,o),
(264,490,o),
(245,480,cs),
(226,470,o),
(217,475,o),
(215,487,cs),
(212,510,o),
(189,514,o),
(165,514,cs),
(113,514,o),
(59,478,o),
(53,426,cs)
);
}
);
width = 540;
},
{
anchors = (
{
name = bottom;
pos = (217,0);
},
{
name = top;
pos = (323,500);
}
);
hints = (
{
horizontal = 1;
place = (0,21);
target = up;
type = BottomGhost;
},
{
horizontal = 1;
place = (435,75);
type = Stem;
},
{
place = (7,95);
type = Stem;
},
{
place = (292,100);
type = Stem;
}
);
layerId = m003;
shapes = (
{
closed = 1;
nodes = (
(103,337,o),
(68,170,o),
(28,30,cs),
(21,6,o),
(40,-7,o),
(72,-7,cs),
(100,-7,o),
(126,5,o),
(128,30,cs),
(136,114,o),
(158,216,o),
(176,300,cs),
(191,372,o),
(269,452,o),
(333,452,cs),
(395,452,o),
(408,406,o),
(386,300,cs),
(368,216,o),
(346,114,o),
(318,30,cs),
(310,5,o),
(330,-7,o),
(362,-7,cs),
(390,-7,o),
(416,5,o),
(418,30,cs),
(426,114,o),
(448,216,o),
(466,300,cs),
(497,447,o),
(472,507,o),
(370,507,cs),
(282,507,o),
(230,442,o),
(206,442,cs),
(192,442,o),
(186,456,o),
(186,476,cs),
(186,494,o),
(182,500,o),
(162,500,cs),
(142,500,o),
(125,492,o),
(123,477,cs)
);
}
);
width = 540;
}
);
note = n;
unicode = 110;
userData = {
KernOnName = n;
};
},
{
glyphname = o;
kernLeft = KO_e;
kernRight = KO_o;
lastChange = "2025-01-03 22:26:37 +0000";
layers = (
{
anchors = (
{
name = bottom;
pos = (202,0);
},
{
name = center;
pos = (255,250);
},
{
name = ogonek;
pos = (400,10);
},
{
name = top;
pos = (308,500);
},
{
name = topright;
pos = (533,500);
}
);
hints = (
{
horizontal = 1;
place = (-10,80);
type = Stem;
},
{
horizontal = 1;
place = (440,70);
type = Stem;
},
{
place = (-13,100);
type = Stem;
},
{
place = (297,100);
type = Stem;
}
);
layerId = m005;
shapes = (
{
closed = 1;
nodes = (
(460,250,ls),
(482,355,o),
(470,510,o),
(310,510,cs),
(150,510,o),
(72,355,o),
(50,250,cs),
(45,225,ls),
(22,120,o),
(40,-10,o),
(200,-10,cs),
(360,-10,o),
(432,120,o),
(455,225,cs)
);
},
{
closed = 1;
nodes = (
(355,225,ls),
(342,167,o),
(308,75,o),
(218,75,cs),
(128,75,o),
(132,167,o),
(145,225,cs),
(150,250,ls),
(164,318,o),
(204,435,o),
(294,435,cs),
(384,435,o),
(374,318,o),
(360,250,cs)
);
}
);
width = 510;
},
{
anchors = (
{
name = bottom;
pos = (212,0);
},
{
name = center;
pos = (265,250);
},
{
name = ogonek;
pos = (410,10);
},
{
name = top;
pos = (318,500);
},
{
name = topright;
pos = (543,500);
}
);
hints = (
{
horizontal = 1;
place = (-10,80);
type = Stem;
},
{
horizontal = 1;
place = (440,70);
type = Stem;
},
{
place = (-13,100);
type = Stem;
},
{
place = (297,100);
type = Stem;
}
);
layerId = m002;
shapes = (
{
closed = 1;
nodes = (
(520,250,ls),
(545,367,o),
(524,525,o),
(323,525,cs),
(122,525,o),
(35,367,o),
(10,250,cs),
(5,225,ls),
(-13,143,o),
(7,-25,o),
(207,-25,cs),
(407,-25,o),
(497,143,o),
(515,225,cs)
);
},
{
closed = 1;
nodes = (
(315,225,ls),
(306,186,o),
(279,160,o),
(246,160,cs),
(213,160,o),
(196,186,o),
(205,225,cs),
(210,250,ls),
(224,314,o),
(251,350,o),
(286,350,cs),
(321,350,o),
(334,314,o),
(320,250,cs)
);
}
);
width = 530;
},
{
anchors = (
{
name = bottom;
pos = (202,0);
},
{
name = center;
pos = (255,250);
},
{
name = ogonek;
pos = (400,10);
},
{
name = top;
pos = (308,500);
},
{
name = topright;
pos = (533,500);
}
);
hints = (
{
horizontal = 1;
place = (-10,80);
type = Stem;
},
{
horizontal = 1;
place = (440,70);
type = Stem;
},
{
place = (-13,100);
type = Stem;
},
{
place = (297,100);
type = Stem;
}
);
layerId = m003;
shapes = (
{
closed = 1;
nodes = (
(450,250,ls),
(472,354,o),
(462,507,o),
(310,507,cs),
(158,507,o),
(82,354,o),
(60,250,cs),
(55,225,ls),
(33,122,o),
(47,-7,o),
(200,-7,cs),
(353,-7,o),
(423,122,o),
(445,225,cs)
);
},
{
closed = 1;
nodes = (
(365,225,ls),
(352,166,o),
(313,58,o),
(214,58,cs),
(115,58,o),
(122,166,o),
(135,225,cs),
(140,250,ls),
(155,319,o),
(199,452,o),
(298,452,cs),
(397,452,o),
(385,319,o),
(370,250,cs)
);
}
);
width = 510;
}
);
note = o;
unicode = 111;
userData = {
KernOnName = o;
};
},
{
glyphname = oslash;
kernLeft = KO_oslash;
lastChange = "2024-12-25 19:16:25 +0000";
layers = (
{
layerId = m005;
shapes = (
{
ref = o;
},
{
closed = 1;
nodes = (
(30,27,ls),
(44,13,o),
(63,12,o),
(76,27,cs),
(202,163,o),
(328,289,o),
(464,415,cs),
(479,428,o),
(478,457,o),
(464,471,cs),
(461,474,ls),
(447,488,o),
(429,478,o),
(415,464,cs),
(289,338,o),
(153,212,o),
(17,86,cs),
(2,73,o),
(13,44,o),
(27,30,cs)
);
}
);
width = 490;
},
{
layerId = m002;
shapes = (
{
ref = o;
},
{
closed = 1;
nodes = (
(12,9,ls),
(37,-15,o),
(72,-15,o),
(95,10,cs),
(220,146,o),
(326,269,o),
(481,396,cs),
(530,436,o),
(526,474,o),
(502,499,cs),
(499,502,ls),
(475,526,o),
(443,512,o),
(417,482,cs),
(324,375,o),
(166,230,o),
(0,105,cs),
(-28,84,o),
(-15,36,o),
(9,12,cs)
);
}
);
width = 530;
},
{
layerId = m003;
shapes = (
{
ref = o;
},
{
closed = 1;
nodes = (
(32,29,ls),
(45,16,o),
(62,15,o),
(74,29,cs),
(200,165,o),
(326,291,o),
(462,417,cs),
(475,429,o),
(475,455,o),
(462,469,cs),
(459,472,ls),
(446,485,o),
(430,475,o),
(417,462,cs),
(291,336,o),
(155,210,o),
(19,84,cs),
(6,72,o),
(16,46,o),
(29,32,cs)
);
}
);
width = 510;
}
);
unicode = 248;
},
{
glyphname = oe;
kernLeft = KO_e;
kernRight = KO_e;
lastChange = "2025-01-03 22:35:40 +0000";
layers = (
{
anchors = (
{
name = bottom;
pos = (397,0);
},
{
name = top;
pos = (397,500);
}
);
hints = (
{
horizontal = 1;
place = (-10,80);
type = Stem;
},
{
horizontal = 1;
place = (440,70);
type = Stem;
},
{
place = (523,100);
type = Stem;
},
{
place = (833,100);
type = Stem;
}
);
layerId = m005;
shapes = (
{
closed = 1;
nodes = (
(360,-10,o),
(412,120,o),
(435,225,cs),
(440,250,ls),
(462,355,o),
(470,510,o),
(310,510,cs),
(150,510,o),
(72,355,o),
(50,250,cs),
(45,225,ls),
(22,120,o),
(40,-10,o),
(200,-10,cs)
);
},
{
closed = 1;
nodes = (
(126,65,o),
(132,167,o),
(145,225,cs),
(150,250,ls),
(164,318,o),
(204,435,o),
(294,435,cs),
(384,435,o),
(374,318,o),
(360,250,cs),
(355,225,ls),
(342,167,o),
(306,65,o),
(216,65,cs)
);
},
{
pos = (310,0);
ref = e;
}
);
width = 799;
},
{
anchors = (
{
name = bottom;
pos = (408,0);
},
{
name = top;
pos = (408,500);
}
);
layerId = m002;
shapes = (
{
closed = 1;
nodes = (
(409,-25,o),
(477,144,o),
(495,225,cs),
(500,250,ls),
(516,326,o),
(527,525,o),
(323,525,cs),
(123,525,o),
(28,333,o),
(10,250,cs),
(5,225,ls),
(-13,142,o),
(8,-25,o),
(207,-25,cs)
);
},
{
closed = 1;
nodes = (
(199,150,o),
(201,210,o),
(205,225,cs),
(210,250,ls),
(223,309,o),
(243,350,o),
(286,350,cs),
(329,350,o),
(333,309,o),
(320,250,cs),
(315,225,ls),
(311,210,o),
(289,150,o),
(244,150,cs)
);
},
{
pos = (310,0);
ref = e;
}
);
width = 832;
},
{
anchors = (
{
name = bottom;
pos = (397,0);
},
{
name = top;
pos = (397,500);
}
);
layerId = m003;
shapes = (
{
closed = 1;
nodes = (
(361,-4,o),
(400,120,o),
(423,225,cs),
(428,250,ls),
(450,355,o),
(467,504,o),
(313,504,cs),
(157,504,o),
(82,353,o),
(60,250,cs),
(55,225,ls),
(33,122,o),
(49,-4,o),
(205,-4,cs)
);
},
{
closed = 1;
nodes = (
(122,59,o),
(130,167,o),
(143,225,cs),
(148,250,ls),
(162,318,o),
(204,441,o),
(300,441,cs),
(396,441,o),
(384,318,o),
(370,250,cs),
(365,225,ls),
(352,167,o),
(314,59,o),
(218,59,cs)
);
},
{
pos = (310,0);
ref = e;
}
);
width = 810;
}
);
metricLeft = "=o";
metricRight = "=e";
unicode = 339;
},
{
glyphname = p;
kernLeft = KO_r;
kernRight = KO_p;
lastChange = "2025-01-03 22:26:44 +0000";
layers = (
{
hints = (
{
horizontal = 1;
place = (-10,63);
type = Stem;
},
{
horizontal = 1;
place = (435,75);
type = Stem;
},
{
place = (28,95);
type = Stem;
},
{
place = (313,100);
type = Stem;
}
);
layerId = m005;
shapes = (
{
closed = 1;
nodes = (
(292,510,o),
(232,445,o),
(217,445,cs),
(208,445,o),
(205,457,o),
(205,471,cs),
(205,492,o),
(197,503,o),
(173,503,cs),
(151,503,o),
(125,491,o),
(122,469,cs),
(88,263,o),
(42,45,o),
(-12,-161,cs),
(-21,-192,o),
(5,-210,o),
(36,-210,cs),
(69,-210,o),
(91,-192,o),
(98,-161,cs),
(130,-11,ls),
(131,-4,o),
(136,-1,o),
(142,-3,cs),
(156,-6,o),
(182,-10,o),
(215,-10,cs),
(375,-10,o),
(453,145,o),
(475,250,cs),
(481,275,ls),
(512,425,o),
(488,510,o),
(381,510,cs)
);
},
{
closed = 1;
nodes = (
(396,435,o),
(402,376,o),
(381,275,cs),
(375,250,ls),
(360,177,o),
(325,75,o),
(233,75,cs),
(198,75,o),
(171,80,o),
(159,83,cs),
(153,84,o),
(151,88,o),
(152,94,cs),
(196,300,ls),
(210,368,o),
(283,435,o),
(340,435,cs)
);
}
);
width = 528;
},
{
hints = (
{
horizontal = 1;
place = (-10,63);
type = Stem;
},
{
horizontal = 1;
place = (435,75);
type = Stem;
},
{
place = (28,95);
type = Stem;
},
{
place = (313,100);
type = Stem;
}
);
layerId = m002;
shapes = (
{
closed = 1;
nodes = (
(299,525,o),
(270,460,o),
(252,460,cs),
(241,460,o),
(241,473,o),
(239,488,cs),
(237,503,o),
(227,515,o),
(208,515,cs),
(161,515,o),
(104,481,o),
(95,429,cs),
(62,224,o),
(31,81,o),
(-22,-123,cs),
(-39,-184,o),
(6,-225,o),
(65,-225,cs),
(126,-225,o),
(175,-185,o),
(187,-126,cs),
(204,-49,ls),
(207,-33,o),
(218,-24,o),
(235,-25,cs),
(238,-25,o),
(241,-25,o),
(244,-25,cs),
(445,-25,o),
(540,168,o),
(557,250,cs),
(563,275,ls),
(591,408,o),
(560,525,o),
(416,525,cs)
);
},
{
closed = 1;
nodes = (
(374,350,o),
(375,333,o),
(363,275,cs),
(357,250,ls),
(350,215,o),
(331,160,o),
(283,160,cs),
(277,160,o),
(271,160,o),
(265,161,cs),
(254,161,o),
(250,171,o),
(254,186,cs),
(270,265,ls),
(281,314,o),
(320,350,o),
(354,350,cs)
);
}
);
width = 574;
},
{
hints = (
{
horizontal = 1;
place = (-10,63);
type = Stem;
},
{
horizontal = 1;
place = (435,75);
type = Stem;
},
{
place = (28,95);
type = Stem;
},
{
place = (313,100);
type = Stem;
}
);
layerId = m003;
shapes = (
{
closed = 1;
nodes = (
(324,507,o),
(272,442,o),
(248,442,cs),
(234,442,o),
(228,456,o),
(228,476,cs),
(228,494,o),
(224,500,o),
(204,500,cs),
(184,500,o),
(168,492,o),
(165,476,cs),
(132,270,o),
(82,38,o),
(28,-169,cs),
(21,-194,o),
(41,-207,o),
(69,-207,cs),
(98,-207,o),
(113,-195,o),
(118,-168,cs),
(154,-2,ls),
(155,3,o),
(158,6,o),
(163,4,cs),
(179,-1,o),
(210,-7,o),
(248,-7,cs),
(400,-7,o),
(474,139,o),
(497,250,cs),
(503,275,ls),
(536,430,o),
(513,507,o),
(412,507,cs)
);
},
{
closed = 1;
nodes = (
(439,452,o),
(446,386,o),
(423,275,cs),
(417,250,ls),
(400,169,o),
(362,58,o),
(261,58,cs),
(223,58,o),
(192,64,o),
(175,69,cs),
(171,70,o),
(170,73,o),
(170,77,cs),
(219,307,ls),
(235,379,o),
(311,452,o),
(375,452,cs)
);
}
);
width = 568;
}
);
metricLeft = "=n";
metricRight = "=o";
note = p;
unicode = 112;
userData = {
KernOnName = p;
};
},
{
glyphname = thorn;
lastChange = "2025-01-03 22:33:20 +0000";
layers = (
{
hints = (
{
horizontal = 1;
place = (-10,70);
type = Stem;
},
{
horizontal = 1;
place = (430,80);
type = Stem;
},
{
place = (7,95);
type = Stem;
},
{
place = (292,100);
type = Stem;
},
{
horizontal = 1;
place = (0,21);
target = up;
type = BottomGhost;
}
);
layerId = m005;
shapes = (
{
closed = 1;
nodes = (
(30,-200,ls),
(61,-200,o),
(83,-182,o),
(90,-151,cs),
(118,-17,ls),
(120,-11,o),
(124,-7,o),
(130,-7,cs),
(151,-9,o),
(175,-10,o),
(205,-10,cs),
(365,-10,o),
(432,95,o),
(454,200,cs),
(476,300,ls),
(508,450,o),
(477,510,o),
(370,510,cs),
(281,510,o),
(239,461,o),
(230,461,cs),
(221,461,o),
(222,469,o),
(228,500,cs),
(260,651,ls),
(267,682,o),
(253,700,o),
(222,700,cs),
(220,700,ls),
(189,700,o),
(167,682,o),
(160,651,cs),
(-10,-151,ls),
(-17,-182,o),
(-3,-200,o),
(28,-200,cs)
);
},
{
closed = 1;
nodes = (
(173,60,o),
(142,69,o),
(137,70,cs),
(137,70,o),
(137,73,o),
(139,79,cs),
(186,300,ls),
(200,368,o),
(272,435,o),
(329,435,cs),
(385,435,o),
(397,401,o),
(376,300,cs),
(354,200,ls),
(339,127,o),
(312,60,o),
(220,60,cs)
);
}
);
width = 519;
},
{
hints = (
{
horizontal = 1;
place = (-10,70);
type = Stem;
},
{
horizontal = 1;
place = (430,80);
type = Stem;
},
{
place = (7,95);
type = Stem;
},
{
place = (292,100);
type = Stem;
},
{
horizontal = 1;
place = (0,21);
target = up;
type = BottomGhost;
}
);
layerId = m002;
shapes = (
{
closed = 1;
nodes = (
(57,-215,ls),
(116,-215,o),
(165,-175,o),
(177,-116,cs),
(195,-34,ls),
(196,-28,o),
(201,-24,o),
(207,-25,cs),
(215,-25,o),
(223,-25,o),
(232,-25,cs),
(429,-25,o),
(516,114,o),
(542,235,cs),
(548,265,ls),
(585,439,o),
(542,525,o),
(403,525,cs),
(364,525,o),
(334,514,o),
(324,507,cs),
(312,500,o),
(310,510,o),
(313,525,cs),
(333,616,ls),
(345,675,o),
(314,715,o),
(255,715,cs),
(253,715,ls),
(194,715,o),
(145,675,o),
(133,616,cs),
(-23,-116,ls),
(-35,-175,o),
(-4,-215,o),
(55,-215,cs)
);
},
{
closed = 1;
nodes = (
(258,145,o),
(249,146,o),
(241,146,cs),
(236,147,o),
(234,151,o),
(235,157,cs),
(258,265,ls),
(267,307,o),
(314,350,o),
(341,350,cs),
(361,350,o),
(365,345,o),
(348,265,cs),
(342,235,ls),
(328,171,o),
(317,145,o),
(268,145,cs)
);
}
);
width = 563;
},
{
hints = (
{
horizontal = 1;
place = (-10,70);
type = Stem;
},
{
horizontal = 1;
place = (430,80);
type = Stem;
},
{
place = (7,95);
type = Stem;
},
{
place = (292,100);
type = Stem;
},
{
horizontal = 1;
place = (0,21);
target = up;
type = BottomGhost;
}
);
layerId = m003;
shapes = (
{
closed = 1;
nodes = (
(66,-204,ls),
(95,-204,o),
(116,-187,o),
(122,-158,cs),
(154,-11,ls),
(154,-7,o),
(158,-4,o),
(162,-4,cs),
(185,-5,o),
(209,-7,o),
(242,-7,cs),
(400,-7,o),
(466,96,o),
(488,200,cs),
(510,300,ls),
(541,449,o),
(512,507,o),
(407,507,cs),
(319,507,o),
(277,458,o),
(266,458,cs),
(254,458,o),
(256,469,o),
(262,500,cs),
(296,658,ls),
(302,687,o),
(289,704,o),
(260,704,cs),
(258,704,ls),
(229,704,o),
(208,687,o),
(202,658,cs),
(28,-158,ls),
(22,-187,o),
(35,-204,o),
(64,-204,cs)
);
},
{
closed = 1;
nodes = (
(221,57,o),
(191,62,o),
(173,67,cs),
(171,68,o),
(171,70,o),
(172,74,cs),
(220,300,ls),
(235,370,o),
(308,438,o),
(367,438,cs),
(425,438,o),
(437,402,o),
(416,300,cs),
(394,200,ls),
(379,127,o),
(350,57,o),
(256,57,cs)
);
}
);
width = 573;
}
);
metricLeft = "=n";
metricRight = "=o";
note = b;
unicode = 254;
},
{
glyphname = q;
kernLeft = KO_a;
kernRight = KO_g;
lastChange = "2025-01-03 22:26:44 +0000";
layers = (
{
hints = (
{
horizontal = 1;
place = (-10,80);
type = Stem;
},
{
horizontal = 1;
place = (435,75);
type = Stem;
},
{
place = (8,100);
type = Stem;
},
{
place = (298,95);
type = Stem;
}
);
layerId = m005;
shapes = (
{
closed = 1;
nodes = (
(234,-10,o),
(276,39,o),
(285,39,cs),
(294,39,o),
(294,31,o),
(287,0,cs),
(276,-50,o),
(264,-111,o),
(243,-161,cs),
(231,-191,o),
(260,-210,o),
(293,-210,cs),
(324,-210,o),
(358,-192,o),
(363,-161,cs),
(394,32,o),
(437,236,o),
(488,429,cs),
(495,457,o),
(476,475,o),
(452,485,cs),
(416,499,o),
(375,510,o),
(311,510,cs),
(151,510,o),
(73,355,o),
(50,250,cs),
(45,225,ls),
(13,75,o),
(38,-10,o),
(145,-10,cs)
);
},
{
closed = 1;
nodes = (
(130,65,o),
(123,124,o),
(145,225,cs),
(150,250,ls),
(166,323,o),
(203,435,o),
(295,435,cs),
(331,435,o),
(364,430,o),
(379,427,cs),
(385,426,o),
(387,422,o),
(385,416,cs),
(365,344,o),
(345,272,o),
(330,200,cs),
(315,132,o),
(243,65,o),
(186,65,cs)
);
}
);
width = 513;
},
{
hints = (
{
horizontal = 1;
place = (-10,80);
type = Stem;
},
{
horizontal = 1;
place = (435,75);
type = Stem;
},
{
place = (8,100);
type = Stem;
},
{
place = (298,95);
type = Stem;
}
);
layerId = m002;
shapes = (
{
closed = 1;
nodes = (
(185,-25,o),
(207,-23,o),
(223,-19,cs),
(247,-13,o),
(250,-25,o),
(246,-43,cs),
(243,-57,o),
(240,-71,o),
(221,-116,cs),
(195,-181,o),
(246,-225,o),
(308,-225,cs),
(367,-225,o),
(430,-184,o),
(439,-123,cs),
(470,68,o),
(498,200,o),
(548,392,cs),
(561,443,o),
(533,479,o),
(490,497,cs),
(452,512,o),
(403,525,o),
(332,525,cs),
(131,525,o),
(43,367,o),
(18,250,cs),
(13,225,ls),
(-23,57,o),
(16,-25,o),
(160,-25,cs)
);
},
{
closed = 1;
nodes = (
(202,150,o),
(201,167,o),
(213,225,cs),
(218,250,ls),
(226,285,o),
(248,350,o),
(295,350,cs),
(302,350,o),
(309,350,o),
(315,349,cs),
(329,349,o),
(333,339,o),
(329,322,cs),
(316,279,o),
(311,257,o),
(305,235,cs),
(293,186,o),
(256,150,o),
(222,150,cs)
);
}
);
width = 525;
},
{
hints = (
{
horizontal = 1;
place = (-10,80);
type = Stem;
},
{
horizontal = 1;
place = (435,75);
type = Stem;
},
{
place = (8,100);
type = Stem;
},
{
place = (298,95);
type = Stem;
}
);
layerId = m003;
shapes = (
{
closed = 1;
nodes = (
(235,-7,o),
(278,42,o),
(292,42,cs),
(308,42,o),
(310,32,o),
(302,-7,cs),
(291,-57,o),
(278,-119,o),
(257,-170,cs),
(247,-193,o),
(270,-207,o),
(300,-207,cs),
(328,-207,o),
(354,-194,o),
(357,-169,cs),
(388,25,o),
(435,243,o),
(486,436,cs),
(492,459,o),
(477,473,o),
(455,483,cs),
(419,496,o),
(379,507,o),
(316,507,cs),
(164,507,o),
(88,354,o),
(66,250,cs),
(61,225,ls),
(29,77,o),
(51,-7,o),
(152,-7,cs)
);
},
{
closed = 1;
nodes = (
(124,48,o),
(119,121,o),
(141,225,cs),
(146,250,ls),
(162,324,o),
(202,452,o),
(304,452,cs),
(341,452,o),
(379,446,o),
(402,441,cs),
(406,440,o),
(407,438,o),
(406,433,cs),
(384,357,o),
(362,275,o),
(346,200,cs),
(330,128,o),
(252,48,o),
(188,48,cs)
);
}
);
width = 514;
}
);
metricLeft = "=o";
metricRight = "=|n";
note = q;
unicode = 113;
},
